<?xml version="1.0" standalone="no"?>
<!DOCTYPE svg PUBLIC "-//W3C//DTD SVG 1.1//EN" "http://www.w3.org/Graphics/SVG/1.1/DTD/svg11.dtd" >
<svg>
<metadata>
Created by FontForge 20120731 at Sat Jun 29 13:33:40 2019
 By www
Copyright (c) 2014 by Harbor Type. All rights reserved.
</metadata>
<defs>
<font id="GraviolaW03-Regular" horiz-adv-x="567" >
  <font-face 
    font-family="GraviolaW03-Regular"
    font-weight="400"
    font-stretch="normal"
    units-per-em="1000"
    panose-1="2 11 5 3 4 6 0 2 0 4"
    ascent="800"
    descent="-200"
    x-height="504"
    cap-height="720"
    bbox="-180 -266 1164 964"
    underline-thickness="50"
    underline-position="-75"
    unicode-range="U+0020-FB04"
  />
<missing-glyph horiz-adv-x="0" 
 />
    <glyph glyph-name="uniFB00" unicode="ff" horiz-adv-x="661" 
d="M709 657q-56 28 -112 28q-48 0 -72.5 -26t-24.5 -74v-81h154v-68h-154v-436h-90v436h-217v-436h-91v436h-73v55l73 10v78q0 77 51.5 122t141.5 45q42 0 85 -9t74 -25q49 47 139 47q59 0 99 -11q18 -4 24.5 -14t6.5 -25q0 -28 -14 -52zM193 572v-68h217v88q0 33 7 58
q-50 25 -116 25q-52 0 -80 -26.5t-28 -76.5z" />
    <glyph glyph-name="uniFB03" unicode="ffi" horiz-adv-x="889" 
d="M769 650q-28 14 -66.5 24.5t-81.5 10.5q-59 0 -90 -26t-31 -74v-81h307v-504h-91v436h-216v-436h-90v436h-217v-436h-91v436h-73v55l73 10v78q0 77 51.5 122t141.5 45q96 0 165 -37q58 50 164 50q75 0 129 -18q14 -5 22.5 -12.5t8.5 -27.5q0 -27 -15 -51zM410 504v88
q0 32 9 57q-49 26 -118 26q-52 0 -80 -26.5t-28 -76.5v-68h217z" />
    <glyph glyph-name="uniFB04" unicode="ffl" horiz-adv-x="902" 
d="M821 0h-91v660q-18 9 -47.5 17t-69.5 8q-55 0 -84 -26t-29 -74v-81h145v-68h-145v-436h-90v436h-217v-436h-91v436h-73v55l73 10v78q0 77 51.5 122t141.5 45q41 0 84.5 -9t78.5 -27q55 49 157 49q104 0 206 -48v-711zM410 504v88q0 32 9 57q-49 26 -118 26
q-52 0 -80 -26.5t-28 -76.5v-68h217z" />
    <glyph glyph-name="f_b.liga" unicode="fb" horiz-adv-x="908" 
d="M855 252q0 -53 -10.5 -102t-34.5 -84t-61 -54.5t-88 -19.5q-46 0 -87.5 21t-71.5 57l-15 -70h-66v660q-23 12 -54.5 18.5t-61.5 6.5q-54 0 -83 -26t-29 -74v-81h139v-68h-139v-436h-91v436h-73v55l73 10v91q0 78 54.5 122.5t151.5 44.5q102 0 204 -48v-269
q28 32 69.5 51.5t82.5 19.5q62 0 104 -29.5t64.5 -86.5t22.5 -145zM760 252q0 96 -27.5 142.5t-91.5 46.5q-35 0 -65.5 -17.5t-47.5 -45.5q-18 -24 -18 -70v-111q0 -48 21 -77q42 -56 110 -56q61 0 90 46.5t29 141.5z" />
    <glyph glyph-name="f_h.liga" unicode="fh" horiz-adv-x="912" 
d="M831 0h-90v336q0 97 -89 97q-35 0 -69 -17t-54 -43q-17 -22 -17 -55v-318h-91v660q-23 12 -54.5 18.5t-61.5 6.5q-54 0 -83 -26t-29 -74v-81h139v-68h-139v-436h-91v436h-73v55l73 10v91q0 78 54.5 122.5t151.5 44.5q102 0 204 -48v-277q32 37 76.5 57.5t87.5 20.5
q79 0 117 -42t38 -117v-353z" />
    <glyph glyph-name="f_i.liga" unicode="fi" horiz-adv-x="581" 
d="M462 650q-29 14 -67.5 24.5t-80.5 10.5q-60 0 -90.5 -26t-30.5 -74v-81h307v-504h-90v436h-217v-436h-91v436h-73v55l73 10v91q0 78 57 122.5t157 44.5q80 0 130 -18q13 -4 21.5 -12t8.5 -28q0 -26 -14 -51z" />
    <glyph glyph-name="f_j.liga" unicode="fj" horiz-adv-x="581" 
d="M462 650q-29 14 -67.5 24.5t-80.5 10.5q-60 0 -90.5 -26t-30.5 -74v-81h307v-414q0 -198 -102 -303q-22 -22 -42 -22q-32 0 -67 45q63 53 92 111t29 156v359h-217v-436h-91v436h-73v55l73 10v91q0 78 57 122.5t157 44.5q80 0 130 -18q13 -4 21.5 -12t8.5 -28
q0 -26 -14 -51z" />
    <glyph glyph-name="f_k.liga" unicode="fk" horiz-adv-x="869" 
d="M421 0v660q-23 12 -54.5 18.5t-61.5 6.5q-54 0 -83 -26t-29 -74v-81h139v-68h-139v-436h-91v436h-73v55l73 10v91q0 78 54.5 122.5t151.5 44.5q102 0 204 -48v-448q82 38 132.5 99t67.5 142h100q-6 -30 -23.5 -70t-52 -82t-77.5 -74q43 -30 77 -69.5t58.5 -92
t32.5 -116.5h-96q-10 76 -43 137t-87 103q-39 -22 -89 -40v-200h-91z" />
    <glyph glyph-name="f_l.liga" unicode="fl" horiz-adv-x="593" 
d="M512 0h-91v660q-23 12 -54.5 18.5t-61.5 6.5q-54 0 -83 -26t-29 -74v-81h139v-68h-139v-436h-91v436h-73v55l73 10v91q0 78 54.5 122.5t151.5 44.5q102 0 204 -48v-711z" />
    <glyph glyph-name="f_f_b.liga" unicode="ffb" horiz-adv-x="1217" 
d="M821 711v-269q28 32 69.5 51.5t82.5 19.5q40 0 74.5 -13.5t60.5 -44t41 -81.5t15 -122q0 -53 -10.5 -102t-34.5 -84t-61 -54.5t-88 -19.5q-46 0 -87.5 21t-71.5 57l-15 -70h-66v660q-18 9 -47.5 17t-69.5 8q-55 0 -84 -26t-29 -74v-81h145v-68h-145v-436h-90v436h-217
v-436h-91v436h-73v55l73 10v78q0 77 51.5 122t141.5 45q41 0 84.5 -9t78.5 -27q55 49 157 49q104 0 206 -48zM1069 252q0 96 -27.5 142.5t-91.5 46.5q-34 0 -64 -17.5t-49 -45.5q-18 -27 -18 -70v-111q0 -48 21 -77q42 -56 110 -56q61 0 90 46.5t29 141.5zM410 504v88
q0 32 9 57q-49 26 -118 26q-52 0 -80 -26.5t-28 -76.5v-68h217z" />
    <glyph glyph-name="f_f_h.liga" unicode="ffh" horiz-adv-x="1221" 
d="M1140 0h-90v336q0 97 -89 97q-35 0 -69 -17t-54 -43q-17 -22 -17 -55v-318h-91v660q-18 9 -47.5 17t-69.5 8q-55 0 -84 -26t-29 -74v-81h145v-68h-145v-436h-90v436h-217v-436h-91v436h-73v55l73 10v78q0 77 51.5 122t141.5 45q41 0 84.5 -9t78.5 -27q55 49 157 49
q104 0 206 -48v-277q32 37 76.5 57.5t87.5 20.5q79 0 117 -42t38 -117v-353zM410 504v88q0 32 9 57q-49 26 -118 26q-52 0 -80 -26.5t-28 -76.5v-68h217z" />
    <glyph glyph-name="f_f_j.liga" unicode="ffj" horiz-adv-x="889" 
d="M29 436v55l73 10v78q0 77 51.5 122t141.5 45q96 0 165 -37q58 50 164 50q75 0 129 -18q14 -5 22.5 -12.5t8.5 -27.5q0 -27 -15 -51q-28 14 -66.5 24.5t-81.5 10.5q-59 0 -90 -26t-31 -74v-81h307v-414q0 -100 -25.5 -174.5t-77.5 -128.5q-22 -22 -42 -22q-31 0 -67 45
q63 53 92 111t29 156v359h-216v-436h-90v436h-217v-436h-91v436h-73zM410 504v88q0 32 9 57q-49 26 -118 26q-52 0 -80 -26.5t-28 -76.5v-68h217z" />
    <glyph glyph-name="f_f_k.liga" unicode="ffk" horiz-adv-x="1178" 
d="M730 0v660q-18 9 -47.5 17t-69.5 8q-55 0 -84 -26t-29 -74v-81h145v-68h-145v-436h-90v436h-217v-436h-91v436h-73v55l73 10v78q0 77 51.5 122t141.5 45q41 0 84.5 -9t78.5 -27q55 49 157 49q104 0 206 -48v-448q82 38 132.5 99t67.5 142h100q-6 -30 -23.5 -70t-52 -82
t-77.5 -74q43 -30 77 -69.5t58.5 -92t32.5 -116.5h-96q-10 76 -43 137t-87 103q-39 -22 -89 -40v-200h-91zM410 504v88q0 32 9 57q-49 26 -118 26q-52 0 -80 -26.5t-28 -76.5v-68h217z" />
    <glyph glyph-name=".notdef" horiz-adv-x="0" 
 />
    <glyph glyph-name="glyph1" horiz-adv-x="0" 
 />
    <glyph glyph-name="glyph1" horiz-adv-x="0" 
 />
    <glyph glyph-name="nonmarkingreturn" horiz-adv-x="333" 
 />
    <glyph glyph-name="space" unicode=" " horiz-adv-x="243" 
 />
    <glyph glyph-name="exclam" unicode="!" horiz-adv-x="274" 
d="M137 -7q-24 0 -39.5 10.5t-15.5 53.5q0 33 12 48.5t43 15.5t43.5 -14.5t12.5 -49.5t-12.5 -49.5t-43.5 -14.5zM170 229h-66q-16 283 -16 491h98q0 -132 -16 -491z" />
    <glyph glyph-name="quotedbl" unicode="&#x22;" horiz-adv-x="367" 
d="M144 493h-62l-12 247h86zM285 493h-62l-12 247h85z" />
    <glyph glyph-name="numbersign" unicode="#" horiz-adv-x="642" 
d="M63 482v71h120l19 167h79l-19 -167h158l19 167h80l-19 -167h113v-71h-121l-27 -244h113v-71h-121l-18 -167h-80l18 167h-158l-18 -167h-80l19 167h-111v71h119l27 244h-112zM254 482l-27 -244h158l27 244h-158z" />
    <glyph glyph-name="dollar" unicode="$" horiz-adv-x="583" 
d="M337 -110h-92v101q-77 6 -134 28q-18 6 -29.5 16.5t-11.5 31.5q0 14 5.5 32t14.5 31q97 -57 186 -57q71 0 108.5 32t37.5 87q0 52 -36 84t-120 54q-197 50 -197 199q0 75 45.5 129t129.5 68v104h93v-101q51 -4 108 -20q42 -12 42 -44q0 -33 -20 -63q-81 45 -167 45
q-68 0 -100.5 -30.5t-32.5 -79.5q0 -44 31.5 -72.5t112.5 -48.5q79 -20 124.5 -51t66.5 -72t21 -95q0 -78 -50 -133.5t-136 -69.5v-105z" />
    <glyph glyph-name="percent" unicode="%" horiz-adv-x="769" 
d="M185 422q40 0 66 34t26 90q0 27 -8.5 56.5t-31 48.5t-52.5 19q-19 0 -40.5 -11t-36.5 -41t-15 -72q0 -56 26 -90t66 -34zM185 363q-52 0 -89 24.5t-56.5 64.5t-19.5 94q0 86 47 135t118 49q34 0 60 -10.5t47.5 -29t39 -54.5t17.5 -90q0 -32 -8.5 -64.5t-28.5 -58.5
t-52 -43t-75 -17zM592 49q40 0 66 34t26 90q0 57 -26 91t-66 34t-66 -34t-26 -91q0 -56 26 -90t66 -34zM592 -10q-71 0 -118 49t-47 134q0 86 47 135t118 49q34 0 60 -10.5t47.5 -29t39 -54.5t17.5 -90q0 -53 -19 -93t-56 -65t-89 -25zM178 0h-76l498 720h78z" />
    <glyph glyph-name="ampersand" unicode="&#x26;" horiz-adv-x="696" 
d="M471 482h85q22 -30 35 -76t13 -100q0 -96 -46 -174q41 -31 103 -70l-44 -72q-21 13 -56 37t-56 41q-40 -37 -95.5 -57.5t-120.5 -20.5q-85 0 -143 27t-87.5 71t-29.5 105q0 40 13 81t48.5 75.5t83.5 53.5q-38 50 -55.5 90t-17.5 79q0 51 26 85.5t74.5 53.5t121.5 19
q89 0 158 -24q17 -6 28.5 -16t11.5 -31q0 -32 -20 -62q-84 50 -175 50q-33 0 -62.5 -8.5t-45 -31.5t-15.5 -53q0 -41 36 -97q43 -64 109.5 -136t145.5 -138q12 26 19.5 61t7.5 69q0 102 -50 169zM444 118q-130 111 -228 230q-89 -50 -89 -148q0 -39 19 -68t56 -46.5
t91 -17.5q93 0 151 50z" />
    <glyph glyph-name="quotesingle" unicode="'" horiz-adv-x="230" 
d="M148 493h-66l-12 247h89z" />
    <glyph glyph-name="parenleft" unicode="(" horiz-adv-x="315" 
d="M291 740q-72 -72 -110 -184.5t-38 -251.5t38 -251.5t110 -184.5q-18 -27 -49 -27q-24 0 -53 35q-142 167 -142 428t142 428q29 35 53 35q31 0 49 -27z" />
    <glyph glyph-name="parenright" unicode=")" horiz-adv-x="315" 
d="M25 740q8 13 21.5 20t26.5 7q25 0 54 -34q141 -166 141 -429t-141 -429q-29 -34 -54 -34q-13 0 -26.5 7t-21.5 20q72 72 109.5 184.5t37.5 251.5t-37.5 251.5t-109.5 184.5z" />
    <glyph glyph-name="asterisk" unicode="*" horiz-adv-x="453" 
d="M58 646l141 -63l-18 131q-2 16 8 24.5t26 8.5q6 0 17 -3t17 -6l-18 -156l120 60l13 3q14 0 23 -14t9 -33l-1 -14l-154 -31l94 -96q3 -3 6 -9.5t3 -9.5q0 -14 -15.5 -26t-35.5 -14l-77 135l-62 -117q-9 -16 -23 -16q-12 0 -25 10.5t-20 26.5l103 115l-129 23q-12 2 -18 10
t-6 18t6 22.5t16 20.5z" />
    <glyph glyph-name="plus" unicode="+" horiz-adv-x="501" 
d="M288 108h-75v175h-166v69h166v175h75v-175h166v-69h-166v-175z" />
    <glyph glyph-name="comma" unicode="," horiz-adv-x="251" 
d="M92 -163l-49 26q40 76 40 151q0 44 -14 84q15 10 35.5 17t36.5 7q26 0 37 -13t11 -41q0 -35 -14 -79.5t-37 -84t-46 -67.5z" />
    <glyph glyph-name="hyphen" unicode="-" horiz-adv-x="364" 
d="M47 236v74h269v-74h-269z" />
    <glyph glyph-name="period" unicode="." horiz-adv-x="251" 
d="M125 -7q-35 0 -49.5 15.5t-14.5 52.5t14.5 53.5t49.5 16.5t49.5 -16t14.5 -54q0 -37 -14.5 -52.5t-49.5 -15.5z" />
    <glyph glyph-name="slash" unicode="/" horiz-adv-x="348" 
d="M114 -30h-82l215 780h82z" />
    <glyph glyph-name="zero" unicode="0" horiz-adv-x="641" 
d="M320 70q82 0 120 73.5t38 216.5t-38 216.5t-120 73.5q-83 0 -120.5 -73.5t-37.5 -216.5t37.5 -216.5t120.5 -73.5zM320 -10q-255 0 -255 370t255 370q256 0 256 -370t-256 -370z" />
    <glyph glyph-name="one" unicode="1" horiz-adv-x="463" 
d="M333 0h-96v647q-88 -11 -183 -68q-21 25 -21 62q0 13 8.5 24.5t24.5 18.5q40 17 94 28.5t98 11.5t75 -7v-717z" />
    <glyph glyph-name="two" unicode="2" horiz-adv-x="557" 
d="M499 0h-437l-9 55q202 211 273 315t71 168q0 109 -130 109q-85 0 -181 -56q-19 33 -19 63q0 16 9 27.5t32 19.5q76 29 167 29q110 0 164.5 -48t54.5 -130q0 -80 -64.5 -180t-255.5 -294h325v-78z" />
    <glyph glyph-name="three" unicode="3" horiz-adv-x="564" 
d="M73 122q88 -52 174 -52q80 0 127.5 34.5t47.5 99.5q0 71 -56 106.5t-152 35.5h-40l-5 64h15q68 0 114 16.5t72 47t26 72.5q0 34 -15.5 57.5t-45 35t-73.5 11.5q-83 0 -170 -52q-20 30 -20 58q0 34 40 48q75 26 157 26q55 0 92 -11.5t63 -29.5t44 -50.5t18 -77.5
q0 -43 -21.5 -82t-52 -61.5t-57.5 -31.5q31 -7 69 -27.5t64.5 -61t26.5 -97.5q0 -50 -20.5 -90t-56.5 -66.5t-83 -40t-99 -13.5q-91 0 -168 28q-35 13 -35 46q0 28 20 58z" />
    <glyph glyph-name="four" unicode="4" horiz-adv-x="587" 
d="M458 0h-92v160h-318l-19 50q15 69 51.5 145t86.5 146t108 127.5t114 91.5h69v-481h93v-79h-93v-160zM366 614q-85 -68 -155.5 -172.5t-98.5 -202.5h254v375z" />
    <glyph glyph-name="five" unicode="5" horiz-adv-x="564" 
d="M73 122q88 -52 176 -52q47 0 88.5 16t64 53.5t22.5 87.5q0 28 -9 56t-33.5 51t-60 32.5t-66.5 9.5q-72 0 -146 -24l-27 17l22 351h368v-78h-289l-13 -210q62 15 110 15q49 0 92.5 -14t76.5 -41.5t51 -69.5t18 -96q0 -42 -13 -84.5t-45 -76t-83.5 -54.5t-122.5 -21
q-89 0 -166 28q-35 13 -35 46q0 28 20 58z" />
    <glyph glyph-name="six" unicode="6" horiz-adv-x="607" 
d="M61 330q0 100 24 176.5t66.5 126t96.5 73.5t114 24q42 0 77.5 -7t56.5 -21t21 -36q0 -32 -21 -55q-56 39 -131 39q-43 0 -80 -17t-65 -53t-44 -94t-16 -135q26 43 77.5 72t106.5 29q67 0 115 -28.5t73.5 -76.5t25.5 -116q0 -26 -6 -58t-22 -63t-44.5 -58.5t-72 -44.5
t-93.5 -17q-54 0 -101.5 20.5t-82.5 62.5t-55 107.5t-20 149.5zM464 229q0 50 -18 86.5t-51 52t-70 15.5q-44 0 -81 -22t-63 -58q-17 -24 -17 -51q0 -26 9.5 -59t28.5 -61t49.5 -46t69.5 -18q63 0 103 45t40 116z" />
    <glyph glyph-name="seven" unicode="7" horiz-adv-x="533" 
d="M33 638v82h468l10 -55q-52 -56 -98 -130t-81.5 -160.5t-57.5 -182.5t-27 -192h-100q8 131 45 251t89 216.5t116 170.5h-364z" />
    <glyph glyph-name="eight" unicode="8" horiz-adv-x="617" 
d="M309 730q36 0 75.5 -8t77.5 -31.5t57 -62t19 -81.5t-22.5 -81t-54 -58t-57.5 -28q66 -17 112 -69t46 -120q0 -95 -68 -148.5t-185 -53.5t-185.5 53.5t-68.5 148.5q0 68 46 120t112 69q-56 17 -94 62.5t-38 104.5q0 86 63 134.5t165 48.5zM464 197q0 61 -46 102t-109 41
q-39 0 -76.5 -18t-58.5 -52.5t-21 -72.5q0 -66 42.5 -101t113.5 -35q72 0 113.5 35t41.5 101zM172 542q0 -38 20.5 -69.5t52 -43.5t64.5 -12q32 0 64 12t53 43.5t21 69.5q0 35 -15 61t-46.5 41t-76.5 15q-30 0 -63 -9.5t-53.5 -37t-20.5 -70.5z" />
    <glyph glyph-name="nine" unicode="9" horiz-adv-x="607" 
d="M545 390q0 -114 -33.5 -204.5t-104 -143t-162.5 -52.5q-60 0 -107.5 15t-47.5 48q0 15 5.5 30.5t15.5 25.5q56 -39 130 -39q32 0 61 9.5t53.5 29t43.5 50.5t33 82.5t14 128.5q-12 -20 -37 -44t-65.5 -41t-80.5 -17q-67 0 -115 28.5t-73.5 76.5t-25.5 116q0 26 6 58t22 63
t44.5 58.5t72 44.5t93.5 17q54 0 101.5 -20.5t82.5 -62.5t54.5 -107.5t19.5 -149.5zM143 491q0 -50 17.5 -86.5t50.5 -52t70 -15.5q45 0 82 22t62 58q18 25 18 51t-9.5 59t-28.5 61t-49.5 46t-69.5 18q-63 0 -103 -45t-40 -116z" />
    <glyph glyph-name="colon" unicode=":" horiz-adv-x="225" 
d="M112 382q-31 0 -43 15t-12 49t12 49.5t43 15.5t43.5 -15t12.5 -50q0 -34 -12.5 -49t-43.5 -15zM112 -7q-24 0 -39.5 10.5t-15.5 53.5q0 33 12 48.5t43 15.5t43.5 -14.5t12.5 -49.5t-12.5 -49.5t-43.5 -14.5z" />
    <glyph glyph-name="semicolon" unicode=";" horiz-adv-x="221" 
d="M108 382q-31 0 -43 15t-12 49t12 49.5t43 15.5t43.5 -15t12.5 -50q0 -34 -12.5 -49t-43.5 -15zM75 -163l-49 26q40 76 40 151q0 44 -14 84q15 10 35.5 17t36.5 7q26 0 37 -13t11 -41q0 -35 -14 -79.5t-37 -84t-46 -67.5z" />
    <glyph glyph-name="less" unicode="&#x3c;" horiz-adv-x="449" 
d="M48 275v70l349 179v-81l-270 -133l270 -133v-81z" />
    <glyph glyph-name="equal" unicode="=" horiz-adv-x="502" 
d="M449 375h-392v68h392v-68zM449 192h-392v68h392v-68z" />
    <glyph glyph-name="greater" unicode="&#x3e;" horiz-adv-x="449" 
d="M401 345v-70l-349 -179v81l269 133l-269 133v81z" />
    <glyph glyph-name="question" unicode="?" horiz-adv-x="425" 
d="M178 -7q-31 0 -42.5 14.5t-11.5 49.5q0 33 11.5 48.5t42.5 15.5t43.5 -14.5t12.5 -49.5t-12.5 -49.5t-43.5 -14.5zM35 602q-20 30 -20 63t42 44q72 21 154 21q95 0 146 -45t51 -114q0 -51 -27 -94t-87 -88q-40 -30 -67 -64.5t-27 -79.5l2 -31h-64q-10 42 -10 72
q0 88 91 158q56 42 76 67.5t20 56.5q0 25 -14 44.5t-40 27t-52 7.5q-89 0 -174 -45z" />
    <glyph glyph-name="at" unicode="@" horiz-adv-x="884" 
d="M616 78q-44 0 -70.5 24t-30.5 63q-25 -37 -64.5 -62t-80.5 -25q-61 0 -96 37.5t-35 109.5q0 49 13.5 99.5t49 97t88 69t104.5 22.5q79 0 142 -38l-37 -248l-3 -41q0 -29 10 -42t32 -13q36 0 67.5 36t48 96.5t16.5 115.5q0 113 -73 175t-206 62q-50 0 -110.5 -17
t-119 -61.5t-92 -104.5t-44.5 -116t-11 -102t14.5 -91.5t48.5 -79.5t86.5 -54.5t122.5 -20.5q57 0 123 16l12 -57q-70 -18 -141 -18q-67 0 -128 18.5t-107.5 56t-73 96.5t-26.5 135q0 111 39 197t103.5 144.5t146 88.5t165.5 30q74 0 137.5 -20.5t109 -59t70 -93.5
t24.5 -121q0 -55 -14 -109.5t-42 -98.5t-71 -70t-97 -26zM332 241q0 -46 19 -67.5t50 -21.5q16 0 38.5 11t45.5 43q22 30 28 71l25 165q-19 8 -47 8q-30 0 -58.5 -14t-51 -41t-36 -66.5t-13.5 -87.5z" />
    <glyph glyph-name="A" unicode="A" horiz-adv-x="645" 
d="M139 0h-99q14 217 78.5 412.5t161.5 307.5h86q97 -113 162 -308.5t77 -411.5h-99q-6 92 -18 179h-331q-14 -104 -18 -179zM473 261q-47 229 -150 382q-104 -152 -151 -382h301z" />
    <glyph glyph-name="B" unicode="B" horiz-adv-x="621" 
d="M88 0v720h220q108 0 169 -45.5t61 -132.5q0 -29 -12 -62t-43 -59.5t-71 -38.5q70 -13 117 -62t47 -124q0 -59 -27 -101.5t-82.5 -68.5t-142.5 -26h-236zM183 338v-260h140q74 0 114.5 30.5t40.5 94.5t-44 99.5t-118 35.5h-133zM183 642v-235h112q26 0 55.5 7t51 25.5
t31 41.5t9.5 47q0 61 -36.5 87.5t-107.5 26.5h-115z" />
    <glyph glyph-name="C" unicode="C" horiz-adv-x="564" 
d="M45 361q0 93 21.5 164t60.5 116t93.5 67t119.5 22q74 0 147 -20q42 -11 42 -44q0 -28 -19 -59q-80 44 -167 44q-45 0 -82.5 -17t-64 -52.5t-40.5 -91t-14 -129.5q0 -55 9.5 -108t33 -94t62.5 -65.5t96 -24.5q42 0 89.5 12.5t86.5 33.5q19 -29 19 -58q0 -16 -9.5 -27
t-32.5 -17q-78 -23 -155 -23q-67 0 -121.5 22.5t-93.5 68t-60 116.5t-21 164z" />
    <glyph glyph-name="D" unicode="D" horiz-adv-x="679" 
d="M634 360q0 -95 -22 -164.5t-64 -112.5t-103 -63t-139 -20h-218v720h218q78 0 139 -20t103 -63t64 -112.5t22 -164.5zM183 77h122q86 0 135.5 33t73 94t23.5 156t-23.5 156t-73 94t-135.5 33h-122v-566z" />
    <glyph glyph-name="E" unicode="E" horiz-adv-x="547" 
d="M88 0v720h417v-78h-322v-229h254v-78h-254v-257h329v-78h-424z" />
    <glyph glyph-name="F" unicode="F" horiz-adv-x="534" 
d="M88 0v720h414v-78h-319v-243h251v-78h-251v-321h-95z" />
    <glyph glyph-name="G" unicode="G" horiz-adv-x="643" 
d="M542 600q-94 51 -190 51q-101 0 -155.5 -71t-54.5 -219q0 -292 200 -292q75 0 118 45t43 129q0 79 -19 161h96q18 -79 18 -164q0 -119 -67.5 -184.5t-187.5 -65.5q-69 0 -124.5 22.5t-94 68t-59 116t-20.5 164.5q0 92 21.5 163t61 116t95 67.5t123.5 22.5q105 0 184 -28
q13 -4 22 -12t9 -27q0 -32 -19 -63z" />
    <glyph glyph-name="H" unicode="H" horiz-adv-x="684" 
d="M596 0h-95v335h-318v-335h-95v720h95v-303h318v303h95v-720z" />
    <glyph glyph-name="I" unicode="I" horiz-adv-x="271" 
d="M88 0v720h95v-720h-95z" />
    <glyph glyph-name="J" unicode="J" horiz-adv-x="516" 
d="M346 720h96v-467q0 -263 -239 -263q-69 0 -134 21q-40 12 -40 43q0 32 19 63q79 -44 150 -44q77 0 112.5 42.5t35.5 137.5v467z" />
    <glyph glyph-name="K" unicode="K" horiz-adv-x="617" 
d="M476 720h104q-16 -71 -57 -140.5t-91.5 -118t-92.5 -77.5q100 -61 167.5 -164t84.5 -220h-103q-45 232 -222 342q-48 -23 -83 -34v-308h-95v720h95v-345q109 47 187 137t106 208z" />
    <glyph glyph-name="L" unicode="L" horiz-adv-x="530" 
d="M183 720v-638h322v-82h-417v720h95z" />
    <glyph glyph-name="M" unicode="M" horiz-adv-x="925" 
d="M501 119h-77q-27 129 -80.5 262.5t-118.5 229.5q-58 -281 -58 -611h-96q0 361 83 720h79q36 -41 78 -109.5t83.5 -163.5t66.5 -181q33 119 96.5 247.5t134.5 206.5h79q83 -359 83 -720h-95q0 154 -15 312.5t-45 300.5q-32 -46 -70.5 -121t-73 -176t-54.5 -197z" />
    <glyph glyph-name="N" unicode="N" horiz-adv-x="696" 
d="M608 0h-72q-38 121 -103.5 245t-130 209t-119.5 138v-592h-95v720h66q107 -88 203 -220t156 -264v484h95v-720z" />
    <glyph glyph-name="O" unicode="O" horiz-adv-x="686" 
d="M342 -10q-51 0 -95.5 12.5t-79.5 37.5t-60.5 64t-40.5 91.5t-18 100t-3 65.5q0 94 20.5 164.5t59 115.5t93.5 67t124 22q70 0 125.5 -22t93.5 -67t58.5 -115.5t20.5 -164.5q0 -45 -6.5 -98t-25 -101t-52.5 -87.5t-89.5 -62t-124.5 -22.5zM342 69q98 0 150 72t52 220
q0 290 -202 290q-200 0 -200 -290q0 -292 200 -292z" />
    <glyph glyph-name="P" unicode="P" horiz-adv-x="599" 
d="M572 482q0 -29 -6 -63.5t-22.5 -65t-46 -55.5t-76 -39t-102.5 -14h-136v-245h-95v720h231q86 0 141.5 -29.5t83.5 -81.5t28 -127zM183 642v-319h136q155 0 155 159q0 160 -155 160h-136z" />
    <glyph glyph-name="Q" unicode="Q" horiz-adv-x="686" 
d="M356 -10h-14q-51 0 -95.5 12.5t-79.5 37.5t-60.5 64t-40.5 91.5t-18 100t-3 65.5q0 94 20.5 164.5t59 115.5t93.5 67t124 22q70 0 125.5 -22t93.5 -67t58.5 -115.5t20.5 -164.5q0 -148 -52 -237t-144 -119q66 -88 173 -141q-25 -69 -67 -69q-28 0 -61 32q-73 70 -133 163
zM342 69q98 0 150 72t52 220q0 290 -202 290q-200 0 -200 -290q0 -292 200 -292z" />
    <glyph glyph-name="R" unicode="R" horiz-adv-x="630" 
d="M592 0h-104q-38 169 -138 256q-23 20 -41 27t-38 7h-88v-290h-95v720h228q60 0 107 -11.5t80 -36t50 -64t17 -93.5q0 -31 -10 -62t-33.5 -57.5t-59.5 -46.5t-85 -31q31 -12 71 -50q51 -47 88.5 -119.5t50.5 -148.5zM472 506q0 72 -40 104t-119 32h-130v-275h111
q47 0 89.5 14.5t65.5 47.5t23 77z" />
    <glyph glyph-name="S" unicode="S" horiz-adv-x="571" 
d="M464 602q-85 45 -175 45q-72 0 -105 -30t-33 -80q0 -45 36 -74t118 -48q110 -26 163.5 -76t53.5 -137q0 -94 -70 -153t-190 -59q-45 0 -91.5 8t-81.5 21q-17 6 -28.5 16.5t-11.5 31.5q0 14 5.5 32t14.5 31q100 -57 197 -57q78 0 117.5 31.5t39.5 87.5q0 51 -38 83
t-131 54q-100 24 -150.5 72.5t-50.5 124.5q0 42 14.5 79t43.5 65t74.5 44t104.5 16q80 0 152 -21q42 -11 42 -44t-20 -63z" />
    <glyph glyph-name="T" unicode="T" horiz-adv-x="599" 
d="M584 638h-237v-638h-95v638h-238v82h570v-82z" />
    <glyph glyph-name="U" unicode="U" horiz-adv-x="685" 
d="M75 720h95v-421q0 -118 44 -172t128 -54q173 0 173 226v421h95v-421q0 -79 -18.5 -138.5t-53 -97t-84.5 -55.5t-112 -18t-112 18t-84.5 55.5t-52.5 97t-18 138.5v421z" />
    <glyph glyph-name="V" unicode="V" horiz-adv-x="643" 
d="M38 720h99q12 -197 57.5 -360t127.5 -276q158 220 184 636h99q-7 -133 -39 -275t-86 -257.5t-114 -187.5h-87q-98 115 -162.5 309t-78.5 411z" />
    <glyph glyph-name="W" unicode="W" horiz-adv-x="944" 
d="M43 720h99q13 -241 49 -390.5t97 -245.5q66 99 99.5 226t39.5 338h90q3 -135 19 -234t45 -179.5t74 -150.5q61 96 97 245t49 391h99q-28 -495 -200 -720h-83q-58 88 -93 174t-53 192q-17 -106 -52 -192.5t-92 -173.5h-83q-59 78 -100 185t-66 239.5t-35 295.5z" />
    <glyph glyph-name="X" unicode="X" horiz-adv-x="621" 
d="M55 720h101q8 -90 43.5 -156t110.5 -130q75 64 110.5 130t44.5 156h101q-7 -93 -52 -175t-141 -163q91 -77 145 -170.5t66 -211.5h-103q-9 100 -52.5 181t-118.5 149q-75 -68 -118 -149t-52 -181h-103q8 75 33 141t69.5 126.5t107.5 114.5q-96 81 -141 163t-51 175z" />
    <glyph glyph-name="Y" unicode="Y" horiz-adv-x="610" 
d="M32 720h99q10 -121 52.5 -225t121.5 -180q78 73 120.5 176t53.5 229h99q-11 -137 -69 -263t-156 -211v-246h-95v246q-98 85 -156 211t-70 263z" />
    <glyph glyph-name="Z" unicode="Z" horiz-adv-x="573" 
d="M63 638v82h470l8 -72q-50 -43 -105.5 -99t-108.5 -126t-100.5 -156t-79.5 -185h384v-82h-485l-7 64q54 168 151 318.5t218 255.5h-345z" />
    <glyph glyph-name="bracketleft" unicode="[" horiz-adv-x="307" 
d="M66 758h203v-65h-115v-778h115v-65h-203v908z" />
    <glyph glyph-name="backslash" unicode="\" horiz-adv-x="348" 
d="M317 -30h-83l-215 780h83z" />
    <glyph glyph-name="bracketright" unicode="]" horiz-adv-x="307" 
d="M38 758h203v-908h-203v65h115v778h-115v65z" />
    <glyph glyph-name="asciicircum" unicode="^" horiz-adv-x="548" 
d="M485 305l-48 -19q-84 166 -169 241q-42 -37 -86 -100.5t-82 -140.5l-49 19q85 202 172 307q9 11 21.5 18t23.5 7q24 0 46 -25q81 -93 171 -307z" />
    <glyph glyph-name="underscore" unicode="_" horiz-adv-x="405" 
d="M6 -156v61h405v-61h-405z" />
    <glyph glyph-name="grave" unicode="`" horiz-adv-x="374" 
d="M272 607l-28 -38l-192 117q5 31 20 49.5t34 18.5q16 0 41 -24z" />
    <glyph glyph-name="a" unicode="a" horiz-adv-x="533" 
d="M452 0h-66l-15 79q-31 -41 -79 -65t-96 -24q-33 0 -61 9t-48.5 27t-32 46t-11.5 63q0 54 32 94t96.5 63t165.5 23h25v25q0 100 -97 100q-39 0 -85.5 -11t-87.5 -29q-15 24 -15 51q0 14 7 23.5t25 15.5q31 11 74.5 17.5t80.5 6.5q93 0 140.5 -44t47.5 -146v-324zM221 60
q26 0 60 14t62 49q19 22 19 54v82h-21q-205 0 -205 -116q0 -19 8 -38.5t29 -32t48 -12.5z" />
    <glyph glyph-name="b" unicode="b" 
d="M514 252q0 -88 -23 -144.5t-66 -86t-105 -29.5q-45 0 -87 20.5t-72 56.5l-14 -69h-66v750h90v-309q27 32 69.5 52t83.5 20q62 0 103.5 -29.5t64 -86.5t22.5 -145zM420 252q0 96 -27.5 142.5t-91.5 46.5q-35 0 -65.5 -17.5t-48.5 -45.5q-17 -25 -17 -70v-111q0 -48 21 -77
q42 -56 109 -56q62 0 91 46.5t29 141.5z" />
    <glyph glyph-name="c" unicode="c" horiz-adv-x="478" 
d="M416 406q-69 33 -127 33q-75 0 -108 -48.5t-33 -138.5q0 -91 33 -139t108 -48q57 0 135 37q15 -24 15 -50q0 -15 -6 -24t-25 -16q-60 -21 -129 -21q-48 0 -89 14.5t-72 45.5t-48 82t-17 119q0 51 11.5 99.5t39 84.5t71 56.5t104.5 20.5q72 0 120 -17q13 -4 22 -12t9 -28
q0 -25 -14 -50z" />
    <glyph glyph-name="d" unicode="d" 
d="M53 252q0 88 22.5 145t65 86.5t106.5 29.5q40 0 81 -18.5t68 -48.5v304h90v-750h-65l-16 70q-30 -36 -73.5 -57t-86.5 -21q-64 0 -105.5 29t-64 86t-22.5 145zM148 252q0 -96 27.5 -142t90.5 -46q35 0 65 17.5t49 45.5q17 23 17 70v111q0 45 -17 70q-18 28 -48.5 45.5
t-65.5 17.5q-63 0 -90.5 -46.5t-27.5 -142.5z" />
    <glyph glyph-name="e" unicode="e" horiz-adv-x="532" 
d="M270 214q-58 0 -122 14q5 -83 40.5 -123t115.5 -40q69 0 149 40q14 -26 14 -51q0 -6 -3 -18t-28 -22q-60 -23 -137 -23q-246 0 -246 263q0 84 26 140.5t76 87.5t124 31q96 0 148 -42t52 -112q0 -74 -51.5 -109.5t-157.5 -35.5zM279 445q-65 0 -96 -41.5t-35 -120.5
q60 -9 101 -9q74 0 106 21t32 67q0 39 -28.5 61t-79.5 22z" />
    <glyph glyph-name="f" unicode="f" horiz-adv-x="353" 
d="M401 657q-56 28 -111 28q-48 0 -72.5 -25.5t-24.5 -74.5v-81h149v-68h-149v-436h-91v436h-73v55l73 10v91q0 78 48 122.5t136 44.5q58 0 98 -11q18 -4 24.5 -14t6.5 -25q0 -28 -14 -52z" />
    <glyph glyph-name="g" unicode="g" 
d="M53 252q0 88 23 145t66 86.5t105 29.5q46 0 87.5 -21t71.5 -57l15 69h65v-510q0 -79 -25.5 -131.5t-76 -80t-129.5 -27.5q-32 0 -73.5 6.5t-69.5 16.5q-13 5 -22 13t-9 27q0 31 15 55q32 -16 75 -28t78 -12q70 0 108.5 35.5t38.5 118.5v74q-27 -32 -68.5 -50.5
t-84.5 -18.5q-62 0 -103.5 29t-64 86t-22.5 145zM266 64q35 0 65 17.5t49 45.5q17 23 17 70v111q0 49 -21 76q-42 57 -109 57q-61 0 -90 -47t-29 -141q0 -96 27.5 -142.5t90.5 -46.5z" />
    <glyph glyph-name="h" unicode="h" horiz-adv-x="572" 
d="M491 0h-91v336q0 97 -88 97q-36 0 -69 -16.5t-54 -43.5q-18 -23 -18 -55v-318h-90v750h90v-316q32 37 76.5 57.5t87.5 20.5q80 0 118 -42t38 -117v-353z" />
    <glyph glyph-name="i" unicode="i" horiz-adv-x="252" 
d="M171 0h-90v504h90v-504zM125 611q-26 0 -41 8t-15 47q0 32 11 44t45 12q32 0 45.5 -9.5t13.5 -46.5q0 -32 -12 -43.5t-47 -11.5z" />
    <glyph glyph-name="j" unicode="j" horiz-adv-x="253" 
d="M82 504h90v-414q0 -197 -102 -303q-22 -22 -42 -22q-32 0 -68 45q63 53 92.5 111t29.5 156v427zM126 611q-27 0 -42 8t-15 47q0 32 11 44t46 12q27 0 42.5 -8t15.5 -48q0 -32 -11.5 -43.5t-46.5 -11.5z" />
    <glyph glyph-name="k" unicode="k" horiz-adv-x="528" 
d="M372 504h99q-11 -56 -48 -115.5t-104 -110.5q43 -30 77 -69.5t58.5 -92t32.5 -116.5h-96q-10 76 -43 137t-87 103q-46 -25 -90 -41v-199h-90v750h90v-488q83 38 133.5 99t67.5 143z" />
    <glyph glyph-name="l" unicode="l" horiz-adv-x="252" 
d="M171 0h-90v750h90v-750z" />
    <glyph glyph-name="m" unicode="m" horiz-adv-x="850" 
d="M470 0h-90v336q0 44 -16 66t-35 26.5t-30 4.5q-61 0 -110 -60q-18 -23 -18 -55v-318h-90v504h66l16 -75q31 38 75.5 60.5t83.5 22.5q27 0 56 -8.5t50 -29t31 -47.5q31 39 76.5 62t85.5 23q75 0 111.5 -42t36.5 -117v-353h-91v336q0 97 -80 97q-29 0 -58 -15t-53 -45
q-17 -20 -17 -55v-318z" />
    <glyph glyph-name="n" unicode="n" horiz-adv-x="572" 
d="M491 0h-91v336q0 97 -88 97q-36 0 -69 -16.5t-54 -43.5q-18 -23 -18 -55v-318h-90v504h66l16 -76q32 39 79.5 61.5t92.5 22.5q80 0 118 -42t38 -117v-353z" />
    <glyph glyph-name="o" unicode="o" horiz-adv-x="559" 
d="M279 -9q-75 0 -124.5 31t-75.5 88.5t-26 143.5q0 84 26 140.5t76 87.5t124 31q75 0 125 -30.5t76 -87t26 -141.5q0 -68 -17.5 -119t-48.5 -82.5t-72 -46.5t-89 -15zM279 63q70 0 101 48.5t31 142.5q0 93 -31 140.5t-101 47.5q-69 0 -100 -47.5t-31 -140.5
q0 -94 31 -142.5t100 -48.5z" />
    <glyph glyph-name="p" unicode="p" 
d="M514 252q0 -88 -22.5 -145t-64.5 -86t-106 -29q-41 0 -82 18.5t-68 48.5v-297h-90v742h66l14 -70q31 37 74.5 58t86.5 21q41 0 75.5 -13.5t61 -44t41 -81.5t14.5 -122zM420 253q0 96 -27.5 142t-91.5 46q-35 0 -65.5 -17.5t-48.5 -45.5q-17 -25 -17 -70v-111
q0 -47 17 -70q19 -28 49.5 -45.5t64.5 -17.5q64 0 91.5 46.5t27.5 142.5z" />
    <glyph glyph-name="q" unicode="q" horiz-adv-x="564" 
d="M53 252q0 88 23 145t66 86.5t105 29.5q46 0 87.5 -21t71.5 -57l15 69h65v-742h-90v300q-28 -32 -70 -51t-83 -19q-62 0 -103.5 29t-64 86t-22.5 145zM148 253q0 -96 27.5 -142.5t90.5 -46.5q35 0 65 17.5t49 45.5q17 23 17 70v111q0 49 -21 76q-42 57 -109 57
q-61 0 -90 -46.5t-29 -141.5z" />
    <glyph glyph-name="r" unicode="r" horiz-adv-x="403" 
d="M365 422q-24 4 -51 4q-80 0 -125 -53q-8 -9 -13 -24t-5 -31v-318h-90v504h66l16 -75q31 38 80 60.5t92 22.5q21 0 30 -10.5t9 -31.5q0 -24 -9 -48z" />
    <glyph glyph-name="s" unicode="s" horiz-adv-x="458" 
d="M369 407q-35 18 -74 28.5t-73 10.5q-32 0 -53.5 -12.5t-29 -29t-7.5 -30.5q0 -29 24 -49.5t99 -37.5q82 -19 120 -54.5t38 -94.5q0 -50 -23.5 -82.5t-64.5 -49t-101 -16.5q-80 0 -142 20q-14 5 -25 13.5t-11 28.5q0 12 5.5 27t13.5 24q85 -43 165 -43q47 0 72 19t25 56
q0 25 -15.5 41.5t-41.5 26.5t-70 20q-82 19 -118 52.5t-36 91.5q0 36 20.5 71.5t65.5 55.5t103 20q63 0 118 -17q35 -10 35 -41q0 -13 -5.5 -27t-13.5 -22z" />
    <glyph glyph-name="t" unicode="t" horiz-adv-x="384" 
d="M30 436v55l76 11l20 118h68v-116h153v-68h-153v-281q0 -47 19 -67.5t57 -20.5q30 0 73 21q13 -20 13 -44q0 -15 -6 -24.5t-25 -15.5q-39 -12 -83 -12q-139 0 -139 142v302h-73z" />
    <glyph glyph-name="u" unicode="u" horiz-adv-x="569" 
d="M81 504h90v-335q0 -98 89 -98q36 0 68 16.5t52 43.5q18 23 18 56v317h90v-504h-66l-16 75q-32 -39 -78.5 -61t-91.5 -22q-79 0 -117 42.5t-38 117.5v352z" />
    <glyph glyph-name="v" unicode="v" horiz-adv-x="504" 
d="M39 504h96q8 -145 35 -250.5t82 -188.5q54 83 81.5 188.5t35.5 250.5h95q-17 -321 -176 -504h-72q-158 182 -177 504z" />
    <glyph glyph-name="w" unicode="w" horiz-adv-x="759" 
d="M42 504h96q9 -276 97 -437q24 37 48.5 92t38.5 131.5t16 163.5h80q5 -238 103 -387q90 164 100 437h96q-4 -148 -39.5 -273.5t-111.5 -230.5h-78q-85 124 -110 264q-13 -74 -40.5 -138t-69.5 -126h-77q-139 192 -149 504z" />
    <glyph glyph-name="x" unicode="x" horiz-adv-x="527" 
d="M373 504h96q-4 -56 -32.5 -112t-115.5 -121q67 -48 110 -116t52 -155h-95q-7 70 -38 124.5t-87 102.5q-56 -49 -86.5 -104t-36.5 -123h-96q6 64 33 120t62 92.5t66 58.5q-69 51 -105 105.5t-42 127.5h96q4 -44 17.5 -79t39 -63.5t53.5 -50.5q43 33 72.5 76t36.5 117z" />
    <glyph glyph-name="y" unicode="y" horiz-adv-x="506" 
d="M371 504h95q-3 -53 -13.5 -120.5t-32.5 -139.5t-57 -147t-87.5 -151.5t-115.5 -145.5q-31 -35 -56 -35q-39 0 -64 61q110 78 179 174q-80 90 -124 214.5t-54 289.5h96q7 -147 35 -254t86 -191q102 176 113 445z" />
    <glyph glyph-name="z" unicode="z" horiz-adv-x="454" 
d="M49 430v74h361l5 -67q-42 -32 -96.5 -86.5t-107 -130.5t-82.5 -146h281v-74h-368l-6 56q28 71 75.5 146.5t100 133.5t95.5 94h-258z" />
    <glyph glyph-name="braceleft" unicode="{" horiz-adv-x="343" 
d="M320 726q0 -20 -9 -47l-25 2q-48 0 -75.5 -25.5t-27.5 -68.5q0 -29 10 -85.5t10 -91.5q0 -37 -19 -66t-51 -39q32 -10 51 -39.5t19 -65.5q0 -35 -10 -91.5t-10 -85.5q0 -43 27.5 -68.5t75.5 -25.5l25 2q9 -27 9 -47q0 -15 -7.5 -25.5t-38.5 -10.5q-54 0 -92.5 17.5
t-60.5 50t-22 77.5q0 37 14 102.5t14 102.5q0 32 -17.5 53.5t-51.5 21.5h-24v64h24q34 0 51.5 21.5t17.5 53.5q0 37 -14 102.5t-14 102.5q0 45 22 77.5t60.5 50t92.5 17.5q19 0 32.5 -5.5t13.5 -30.5z" />
    <glyph glyph-name="bar" unicode="|" horiz-adv-x="270" 
d="M180 -200h-90v1008h90v-1008z" />
    <glyph glyph-name="braceright" unicode="}" horiz-adv-x="343" 
d="M23 726q0 15 7 25.5t39 10.5q54 0 92.5 -17.5t60.5 -50t22 -77.5q0 -37 -14 -102.5t-14 -102.5q0 -32 17.5 -53.5t50.5 -21.5h24v-64h-24q-33 0 -50.5 -21.5t-17.5 -53.5q0 -37 14 -102.5t14 -102.5q0 -45 -22 -77.5t-60.5 -50t-92.5 -17.5q-20 0 -33 5.5t-13 30.5t9 47
l25 -2q48 0 75.5 25.5t27.5 68.5q0 29 -10 85.5t-10 91.5q0 37 19 66t50 39q-32 10 -50.5 39t-18.5 66q0 35 10 91.5t10 85.5q0 43 -27.5 68.5t-75.5 25.5l-25 -2q-9 23 -9 47z" />
    <glyph glyph-name="asciitilde" unicode="~" horiz-adv-x="492" 
d="M76 210l-47 6q9 71 43.5 104.5t77.5 33.5q41 0 97.5 -37.5t72 -42.5t25.5 -5q53 0 70 72l47 -6q-5 -44 -21 -73.5t-42.5 -47t-57.5 -17.5q-40 0 -96.5 37.5t-73 42.5t-26.5 5q-53 0 -69 -72z" />
    <glyph glyph-name="exclamdown" unicode="&#xa1;" horiz-adv-x="274" 
d="M138 511q31 0 43 -15t12 -49t-12 -49.5t-43 -15.5t-43.5 15t-12.5 50q0 34 12.5 49t43.5 15zM106 275h65q15 -300 16 -491h-98q1 172 17 491z" />
    <glyph glyph-name="cent" unicode="&#xa2;" horiz-adv-x="495" 
d="M322 0h-92v104q-40 6 -73.5 24.5t-57.5 49.5t-37.5 77.5t-13.5 106.5q0 45 9 88.5t31 78.5t57 58.5t85 31.5v105h92v-103q15 -1 39.5 -5.5t38.5 -9.5q13 -4 22 -12t9 -28q0 -25 -14 -50q-70 33 -133 33q-75 0 -108 -48.5t-33 -138.5q0 -91 33 -139t108 -48q60 0 142 37
q14 -25 14 -50q0 -15 -6 -24t-25 -16q-43 -14 -87 -19v-103z" />
    <glyph glyph-name="sterling" unicode="&#xa3;" horiz-adv-x="522" 
d="M16 323v71h74v97q0 114 52 176.5t155 62.5q72 0 138 -24q31 -12 31 -41q0 -13 -5 -33.5t-11 -30.5q-81 45 -146 45q-57 0 -88 -36t-31 -109v-107h207v-71h-207v-30q0 -81 -15.5 -130t-47.5 -81h350v-82h-456v50q35 25 54.5 80t19.5 130v63h-74z" />
    <glyph glyph-name="currency" unicode="&#xa4;" horiz-adv-x="584" 
d="M292 150q-27 0 -57.5 9t-54.5 24l-82 -81l-58 57l82 80q-15 22 -25.5 53t-10.5 67q0 34 10.5 64t25.5 52l-82 80l58 56l83 -81q24 15 54.5 24t56.5 9t56.5 -9t54.5 -24l83 81l58 -56l-82 -80q15 -22 25.5 -52t10.5 -64q0 -36 -10.5 -67t-25.5 -54l82 -79l-58 -57l-82 80
q-24 -15 -54 -23.5t-58 -8.5zM292 226q51 0 86 33t35 100q0 62 -34 95.5t-87 33.5q-38 0 -65.5 -17.5t-38.5 -39t-14 -39.5t-3 -33q0 -67 35 -100t86 -33z" />
    <glyph glyph-name="yen" unicode="&#xa5;" horiz-adv-x="614" 
d="M530 139h-175v-139h-95v139h-176v61h176v93h-176v61h117q-34 35 -71 90.5t-63 129t-33 146.5h99q8 -83 32 -152t51 -110t49.5 -65t41.5 -40q60 51 97.5 117t54.5 131.5t22 118.5h99q-9 -99 -52.5 -196t-114.5 -170h117v-61h-175v-93h175v-61z" />
    <glyph glyph-name="brokenbar" unicode="&#xa6;" horiz-adv-x="270" 
d="M180 394h-90v414h90v-414zM180 -200h-90v414h90v-414z" />
    <glyph glyph-name="section" unicode="&#xa7;" horiz-adv-x="497" 
d="M87 44q91 -47 156 -47q42 0 69.5 17.5t27.5 49.5q0 58 -126 101q-102 36 -143.5 77.5t-41.5 94.5q0 36 20.5 66.5t50.5 45t56 19.5q-42 20 -66.5 50.5t-24.5 69.5q0 27 11.5 52.5t35 45.5t60 32t82.5 12q64 0 118 -18q35 -11 35 -41q0 -13 -5.5 -26.5t-13.5 -21.5
q-76 39 -147 39q-37 0 -64 -20t-27 -52q0 -57 127 -102q103 -36 144 -77.5t41 -98.5q0 -46 -35.5 -81.5t-91.5 -44.5q41 -20 65.5 -50.5t24.5 -69.5q0 -43 -24.5 -74t-67 -47t-101.5 -16q-70 0 -124 19q-39 15 -39 45q0 13 5 27.5t13 23.5zM380 306q0 20 -11.5 41.5t-43 40
t-82.5 34.5q-18 7 -36 7q-41 0 -68.5 -25t-27.5 -59q0 -38 34 -64.5t102 -49.5q21 -6 41 -6q18 0 39.5 8.5t37 29t15.5 43.5z" />
    <glyph glyph-name="dieresis" unicode="&#xa8;" horiz-adv-x="429" 
d="M115 611q-24 0 -38 8t-14 47q0 32 10.5 44t41.5 12q24 0 38 -8t14 -48q0 -24 -7 -39.5t-45 -15.5zM313 611q-24 0 -38 8t-14 47q0 32 10.5 44t41.5 12q24 0 38 -8t14 -48q0 -24 -7 -39.5t-45 -15.5z" />
    <glyph glyph-name="copyright" unicode="&#xa9;" horiz-adv-x="870" 
d="M435 -43q-36 0 -83 8.5t-97 33t-91 63t-69.5 91t-39 107.5t-10.5 100q0 70 21.5 141.5t71 129t108.5 86.5t106 37.5t83 8.5q97 0 186.5 -44t147 -137t57.5 -222q0 -118 -50.5 -210t-142 -142.5t-198.5 -50.5zM435 17q30 0 70 7t81 28t74.5 53.5t56 77t31 91.5t8.5 86
t-8.5 86t-31 91.5t-56 77t-74.5 53.5t-81 28t-70 7q-65 0 -123 -22.5t-102.5 -66t-69.5 -109t-25 -145.5t25 -145.5t69.5 -109t102.5 -66t123 -22.5zM583 489q-66 30 -120 30q-11 0 -37 -4t-47.5 -21t-35.5 -48.5t-14 -85.5t17 -92t48.5 -52.5t68.5 -14.5q54 0 125 32
q14 -23 14 -46q0 -13 -6.5 -22.5t-24.5 -16.5q-57 -22 -120 -22q-46 0 -85.5 13.5t-68.5 41.5t-45.5 73.5t-16.5 105.5q0 76 25 127t72.5 79t118.5 28q60 0 114 -19q32 -12 32 -39q0 -24 -14 -47z" />
    <glyph glyph-name="ordfeminine" unicode="&#xaa;" horiz-adv-x="395" 
d="M341 359h-50l-15 59q-20 -30 -54 -47.5t-70 -17.5t-65 16t-40.5 41t-11.5 48q0 25 11.5 48.5t36.5 41.5t64.5 29t92.5 11h29v17q0 33 -16 50.5t-56 17.5q-27 0 -60 -7.5t-60 -20.5q-13 20 -13 40q0 23 21 30q52 18 118 18q73 0 105.5 -35.5t32.5 -103.5v-235zM172 410
q25 0 49.5 13.5t38.5 35.5q9 14 9 43v49h-14q-49 0 -81 -11t-48 -30.5t-16 -43.5q0 -28 17 -42t45 -14z" />
    <glyph glyph-name="guillemotleft" unicode="&#xab;" horiz-adv-x="534" 
d="M285 49l-38 -32q-136 110 -202 216v38q68 109 202 216l38 -31q-105 -114 -145 -204q39 -89 145 -203zM498 49l-38 -32q-136 110 -202 216v38q68 109 202 216l38 -31q-105 -114 -145 -204q39 -89 145 -203z" />
    <glyph glyph-name="logicalnot" unicode="&#xac;" horiz-adv-x="542" 
d="M481 92h-75v191h-365v69h440v-260z" />
    <glyph glyph-name="uni00AD" unicode="&#xad;" horiz-adv-x="364" 
d="M47 236v74h269v-74h-269z" />
    <glyph glyph-name="registered" unicode="&#xae;" horiz-adv-x="591" 
d="M423 429h-68q-1 18 -9.5 45t-28 49t-41.5 22h-31v-116h-59v287h123q54 0 83 -22t29 -64q0 -31 -21 -50.5t-53 -25.5q13 -6 29.5 -22.5t30 -45t16.5 -57.5zM359 628q0 48 -59 48h-55v-96h58q56 0 56 48zM296 309q-55 0 -103 18.5t-83.5 53t-55 83.5t-19.5 107t19.5 107
t55 83.5t83.5 53t103 18.5t103 -18.5t83 -53t54.5 -83.5t19.5 -107t-19.5 -107t-54.5 -83.5t-83 -53t-103 -18.5zM296 360q93 0 148.5 55.5t55.5 155.5t-55.5 155.5t-148.5 55.5q-45 0 -83 -14t-65.5 -41t-42 -67t-14.5 -89t14.5 -89t42 -67t65.5 -41t83 -14z" />
    <glyph glyph-name="macron" unicode="&#xaf;" horiz-adv-x="414" 
d="M51 643v67h308v-67h-308z" />
    <glyph glyph-name="degree" unicode="&#xb0;" horiz-adv-x="360" 
d="M180 554q34 0 55 22t21 55q0 34 -21 56t-55 22t-55 -22t-21 -56q0 -33 21 -55t55 -22zM180 494q-62 0 -103.5 39t-41.5 98q0 60 41.5 99t103.5 39t103 -39t41 -99t-41 -98.5t-103 -38.5z" />
    <glyph glyph-name="plusminus" unicode="&#xb1;" horiz-adv-x="501" 
d="M289 205h-76v143h-166v68h166v140h76v-140h165v-68h-165v-143zM454 69h-407v69h407v-69z" />
    <glyph glyph-name="uni00B2" unicode="&#xb2;" horiz-adv-x="335" 
d="M291 449h-256l-5 35q117 122 148.5 166t31.5 76q0 22 -17.5 34.5t-49.5 12.5q-46 0 -96 -26q-11 20 -11 41q0 20 20 26q50 16 102 16q61 0 96.5 -24.5t35.5 -64.5t-34 -90t-136 -142h171v-60z" />
    <glyph glyph-name="uni00B3" unicode="&#xb3;" horiz-adv-x="342" 
d="M41 524q44 -24 98 -24q37 0 59.5 15t22.5 44t-23 45t-75 16h-27l-5 47h19q49 0 76 18.5t27 45.5q0 18 -17.5 31.5t-48.5 13.5q-46 0 -95 -26q-12 18 -12 38q0 19 21 26q48 16 97 16q58 0 93 -24.5t35 -62.5q0 -35 -22.5 -61t-57.5 -35q41 -8 67 -32.5t26 -62.5
q0 -52 -43 -80.5t-106 -28.5q-51 0 -99 16q-21 7 -21 27q0 19 11 38z" />
    <glyph glyph-name="acute" unicode="&#xb4;" horiz-adv-x="374" 
d="M122 569l-29 38l125 123q5 5 16.5 14.5t24.5 9.5q19 0 34.5 -18.5t20.5 -49.5z" />
    <glyph glyph-name="uni00B5" unicode="&#xb5;" horiz-adv-x="577" 
d="M81 -238v742h90v-335q0 -45 21 -72.5t68 -27.5q36 0 68 16.5t52 43.5q18 23 18 58v317h90v-393q0 -32 9.5 -46t30.5 -14l26 1v-49q-36 -8 -58 -8q-66 0 -83 66l-2 21q-24 -40 -65 -65t-85 -25q-62 0 -90 40v-270h-90z" />
    <glyph glyph-name="paragraph" unicode="&#xb6;" horiz-adv-x="575" 
d="M487 -100h-61v758h-69v-758h-61v395h-52q-106 0 -152.5 55t-46.5 161q0 43 10.5 83t38 68t72.5 43t117 15h204v-820z" />
    <glyph glyph-name="periodcentered" unicode="&#xb7;" horiz-adv-x="225" 
d="M116 230q-35 0 -49.5 15.5t-14.5 52.5t14.5 53.5t49.5 16.5t49.5 -16t14.5 -54q0 -37 -14.5 -52.5t-49.5 -15.5z" />
    <glyph glyph-name="cedilla" unicode="&#xb8;" horiz-adv-x="294" 
d="M53 -155q34 -16 66 -16q27 0 44 12.5t17 34.5q0 40 -56 40q-14 0 -34 -3l-11 13l20 88l54 -2l-13 -60l23 1q38 0 64.5 -20t26.5 -57q0 -46 -38 -73.5t-96 -27.5q-32 0 -62 9q-19 6 -19 22q0 20 14 39z" />
    <glyph glyph-name="uni00B9" unicode="&#xb9;" horiz-adv-x="302" 
d="M221 449h-77v326q-25 -2 -55 -14t-54 -29q-5 6 -10 21.5t-5 25.5q0 20 20 28q21 9 55.5 15t61.5 6q32 0 64 -6v-373z" />
    <glyph glyph-name="ordmasculine" unicode="&#xba;" horiz-adv-x="405" 
d="M202 353q-55 0 -93.5 23t-59 64.5t-20.5 103.5q0 61 20.5 102t59 64t93.5 23q56 0 94 -22.5t58.5 -63.5t20.5 -103q0 -61 -20.5 -103t-59 -65t-93.5 -23zM202 412q50 0 72 33.5t22 98.5q0 66 -22 98t-72 32t-72 -32t-22 -98q0 -65 22 -98.5t72 -33.5z" />
    <glyph glyph-name="guillemotright" unicode="&#xbb;" horiz-adv-x="534" 
d="M74 17l-39 32q105 111 145 203q-41 94 -145 204l39 31q134 -108 201 -216v-38q-64 -105 -201 -216zM287 17l-39 32q105 111 145 203q-41 94 -145 204l39 31q134 -108 201 -216v-38q-64 -105 -201 -216z" />
    <glyph glyph-name="onequarter" unicode="&#xbc;" horiz-adv-x="773" 
d="M221 346h-77v326q-25 -2 -55 -14t-54 -29q-5 6 -10 21.5t-5 25.5q0 20 20 28q21 9 55.5 15t61.5 6q32 0 64 -6v-373zM195 0h-73l431 720h74zM688 -2h-73v80h-178l-11 30q19 73 77.5 151.5t120.5 113.5h64v-243h59v-52h-59v-80zM615 314q-43 -34 -79.5 -84.5t-54.5 -99.5
h134v184z" />
    <glyph glyph-name="onehalf" unicode="&#xbd;" horiz-adv-x="781" 
d="M221 346h-77v326q-25 -2 -55 -14t-54 -29q-5 6 -10 21.5t-5 25.5q0 20 20 28q21 9 55.5 15t61.5 6q32 0 64 -6v-373zM195 0h-73l431 720h74zM737 -2h-256l-5 35q117 122 148.5 166t31.5 76q0 22 -17.5 34.5t-49.5 12.5q-46 0 -96 -26q-11 20 -11 41q0 20 20 26
q50 16 102 16q61 0 96.5 -24.5t35.5 -64.5t-34 -90t-136 -142h171v-60z" />
    <glyph glyph-name="threequarters" unicode="&#xbe;" horiz-adv-x="813" 
d="M41 424q44 -24 98 -24q37 0 59.5 15t22.5 44t-23 45t-75 16h-27l-5 47h19q49 0 76 18.5t27 45.5q0 18 -17.5 31.5t-48.5 13.5q-46 0 -95 -26q-12 18 -12 38q0 19 21 26q48 16 97 16q58 0 93 -24.5t35 -62.5q0 -35 -22.5 -61t-57.5 -35q41 -8 67 -32.5t26 -62.5
q0 -52 -43 -80.5t-106 -28.5q-51 0 -99 16q-21 7 -21 27q0 19 11 38zM235 0h-73l431 720h74zM728 -2h-73v80h-178l-11 30q19 73 77.5 151.5t120.5 113.5h64v-243h59v-52h-59v-80zM655 314q-43 -34 -79.5 -84.5t-54.5 -99.5h134v184z" />
    <glyph glyph-name="questiondown" unicode="&#xbf;" horiz-adv-x="425" 
d="M247 512q31 0 42.5 -15t11.5 -49t-11.5 -49.5t-42.5 -15.5t-43.5 15t-12.5 50q0 34 12.5 49t43.5 15zM390 -101q8 -13 13.5 -30.5t5.5 -32.5q0 -17 -9 -28t-32 -17q-74 -20 -154 -20q-60 0 -103 18.5t-68.5 54t-25.5 85.5q0 52 26.5 95t85.5 87q55 41 75.5 76t20.5 72
l-2 30h64q10 -42 10 -72q0 -90 -91 -160q-56 -42 -76 -67.5t-20 -56.5q0 -26 14 -45t39.5 -26.5t52.5 -7.5q89 0 174 45z" />
    <glyph glyph-name="Agrave" unicode="&#xc0;" horiz-adv-x="645" 
d="M139 0h-99q14 217 78.5 412.5t161.5 307.5h86q97 -113 162 -308.5t77 -411.5h-99q-6 92 -18 179h-331q-14 -104 -18 -179zM473 261q-47 229 -150 382q-104 -152 -151 -382h301zM382 800l-22 -41l-210 91q1 30 15.5 50t33.5 20q13 0 34 -15z" />
    <glyph glyph-name="Aacute" unicode="&#xc1;" horiz-adv-x="645" 
d="M139 0h-99q14 217 78.5 412.5t161.5 307.5h86q97 -113 162 -308.5t77 -411.5h-99q-6 92 -18 179h-331q-14 -104 -18 -179zM473 261q-47 229 -150 382q-104 -152 -151 -382h301zM285 759l-22 41l149 105q21 15 34 15q19 0 33.5 -20t15.5 -50z" />
    <glyph glyph-name="Acircumflex" unicode="&#xc2;" horiz-adv-x="645" 
d="M139 0h-99q14 217 78.5 412.5t161.5 307.5h86q97 -113 162 -308.5t77 -411.5h-99q-6 92 -18 179h-331q-14 -104 -18 -179zM473 261q-47 229 -150 382q-104 -152 -151 -382h301zM476 788l-29 -29q-79 64 -124 86q-46 -22 -125 -86l-29 29q56 74 104 114q25 20 49 20
t50 -20q48 -40 104 -114z" />
    <glyph glyph-name="Atilde" unicode="&#xc3;" horiz-adv-x="645" 
d="M139 0h-99q14 217 78.5 412.5t161.5 307.5h86q97 -113 162 -308.5t77 -411.5h-99q-6 92 -18 179h-331q-14 -104 -18 -179zM473 261q-47 229 -150 382q-104 -152 -151 -382h301zM183 794l-46 15q7 27 22.5 54.5t42 43t54.5 15.5q20 0 40.5 -8.5t56 -31t51.5 -22.5
q41 0 66 61l46 -16q-16 -58 -48.5 -87t-72.5 -29q-20 0 -39.5 8.5t-55.5 32t-53 23.5q-41 0 -64 -59z" />
    <glyph glyph-name="Adieresis" unicode="&#xc4;" horiz-adv-x="645" 
d="M139 0h-99q14 217 78.5 412.5t161.5 307.5h86q97 -113 162 -308.5t77 -411.5h-99q-6 92 -18 179h-331q-14 -104 -18 -179zM473 261q-47 229 -150 382q-104 -152 -151 -382h301zM222 793q-24 0 -37.5 8.5t-13.5 47.5q0 32 10 44t41 12q24 0 38.5 -8t14.5 -48
q0 -32 -10.5 -44t-42.5 -12zM420 793q-24 0 -37.5 8.5t-13.5 47.5q0 32 10 44t41 12q24 0 38.5 -8t14.5 -48q0 -32 -10.5 -44t-42.5 -12z" />
    <glyph glyph-name="Aring" unicode="&#xc5;" horiz-adv-x="645" 
d="M139 0h-99q14 217 78.5 412.5t161.5 307.5h86q97 -113 162 -308.5t77 -411.5h-99q-6 92 -18 179h-331q-14 -104 -18 -179zM473 261q-47 229 -150 382q-104 -152 -151 -382h301zM322 741q-25 0 -48 10.5t-39.5 33.5t-16.5 57t18 59t42.5 34t43.5 9q30 0 56 -15.5t36.5 -40
t10.5 -46.5t-10.5 -46t-36.5 -39.5t-56 -15.5zM322 781q24 0 40.5 15.5t16.5 45.5t-16.5 46t-40.5 16t-41 -15.5t-17 -46.5q0 -30 17 -45.5t41 -15.5z" />
    <glyph glyph-name="AE" unicode="&#xc6;" horiz-adv-x="939" 
d="M127 0h-100q20 110 64.5 221t105 208t131 172.5t139.5 118.5h430v-78h-334v-229h266v-78h-266v-257h341v-78h-437v175h-294q-29 -81 -46 -175zM467 257v369q-74 -61 -143.5 -158t-118.5 -211h262z" />
    <glyph glyph-name="Ccedilla" unicode="&#xc7;" horiz-adv-x="564" 
d="M244 -155q34 -16 66 -16q27 0 44 12.5t17 34.5q0 40 -56 40q-14 0 -34 -3l-11 13l15 68q-55 8 -99.5 34.5t-75.5 72t-48 111.5t-17 149q0 93 21.5 164t60.5 116t93.5 67t119.5 22q74 0 147 -20q42 -11 42 -44q0 -28 -19 -59q-80 44 -167 44q-45 0 -82.5 -17t-64 -52.5
t-40.5 -91t-14 -129.5q0 -55 9.5 -108t33 -94t62.5 -65.5t96 -24.5q42 0 89.5 12.5t86.5 33.5q19 -29 19 -58q0 -16 -9.5 -27t-32.5 -17q-78 -23 -157 -23l-8 -38l23 1q38 0 64.5 -20t26.5 -57q0 -46 -38 -73.5t-96 -27.5q-32 0 -62 9q-19 6 -19 22q0 20 14 39z" />
    <glyph glyph-name="Egrave" unicode="&#xc8;" horiz-adv-x="563" 
d="M88 0v720h417v-78h-322v-229h254v-78h-254v-257h329v-78h-424zM358 800l-22 -41l-210 91q1 30 15.5 50t33.5 20q13 0 34 -15z" />
    <glyph glyph-name="Eacute" unicode="&#xc9;" horiz-adv-x="563" 
d="M88 0v720h417v-78h-322v-229h254v-78h-254v-257h329v-78h-424zM257 759l-22 41l149 105q21 15 34 15q19 0 33.5 -20t15.5 -50z" />
    <glyph glyph-name="Ecircumflex" unicode="&#xca;" horiz-adv-x="563" 
d="M88 0v720h417v-78h-322v-229h254v-78h-254v-257h329v-78h-424zM458 788l-29 -29q-79 64 -124 86q-46 -22 -125 -86l-29 29q56 74 104 114q25 20 49 20t50 -20q48 -40 104 -114z" />
    <glyph glyph-name="Edieresis" unicode="&#xcb;" horiz-adv-x="563" 
d="M88 0v720h417v-78h-322v-229h254v-78h-254v-257h329v-78h-424zM202 793q-24 0 -37.5 8.5t-13.5 47.5q0 32 10 44t41 12q24 0 38.5 -8t14.5 -48q0 -32 -10.5 -44t-42.5 -12zM400 793q-24 0 -37.5 8.5t-13.5 47.5q0 32 10 44t41 12q24 0 38.5 -8t14.5 -48q0 -32 -10.5 -44
t-42.5 -12z" />
    <glyph glyph-name="Igrave" unicode="&#xcc;" horiz-adv-x="271" 
d="M88 0v720h95v-720h-95zM210 800l-22 -41l-210 91q1 30 15.5 50t33.5 20q13 0 34 -15z" />
    <glyph glyph-name="Iacute" unicode="&#xcd;" horiz-adv-x="271" 
d="M88 0v720h95v-720h-95zM77 759l-22 41l149 105q21 15 34 15q19 0 33.5 -20t15.5 -50z" />
    <glyph glyph-name="Icircumflex" unicode="&#xce;" horiz-adv-x="271" 
d="M88 0v720h95v-720h-95zM289 788l-29 -29q-79 64 -124 86q-46 -22 -125 -86l-29 29q56 74 104 114q25 20 49 20t50 -20q48 -40 104 -114z" />
    <glyph glyph-name="Idieresis" unicode="&#xcf;" horiz-adv-x="271" 
d="M88 0v720h95v-720h-95zM36 793q-24 0 -37.5 8.5t-13.5 47.5q0 32 10 44t41 12q24 0 38.5 -8t14.5 -48q0 -32 -10.5 -44t-42.5 -12zM234 793q-24 0 -37.5 8.5t-13.5 47.5q0 32 10 44t41 12q24 0 38.5 -8t14.5 -48q0 -32 -10.5 -44t-42.5 -12z" />
    <glyph glyph-name="Eth" unicode="&#xd0;" horiz-adv-x="694" 
d="M19 338v61h84v321h218q78 0 139 -20t103 -63t64 -112.5t22 -164.5t-22 -164.5t-64 -112.5t-103 -63t-139 -20h-218v338h-84zM198 77h122q86 0 135.5 33t73 94t23.5 156t-23.5 156t-73 94t-135.5 33h-122v-244h186v-61h-186v-261z" />
    <glyph glyph-name="Ntilde" unicode="&#xd1;" horiz-adv-x="696" 
d="M608 0h-72q-38 121 -103.5 245t-130 209t-119.5 138v-592h-95v720h66q107 -88 203 -220t156 -264v484h95v-720zM208 794l-46 15q7 27 22.5 54.5t42 43t54.5 15.5q20 0 40.5 -8.5t56 -31t51.5 -22.5q41 0 66 61l46 -16q-16 -58 -48.5 -87t-72.5 -29q-20 0 -39.5 8.5
t-55.5 32t-53 23.5q-41 0 -64 -59z" />
    <glyph glyph-name="Ograve" unicode="&#xd2;" horiz-adv-x="686" 
d="M342 -10q-51 0 -95.5 12.5t-79.5 37.5t-60.5 64t-40.5 91.5t-18 100t-3 65.5q0 94 20.5 164.5t59 115.5t93.5 67t124 22q70 0 125.5 -22t93.5 -67t58.5 -115.5t20.5 -164.5q0 -45 -6.5 -98t-25 -101t-52.5 -87.5t-89.5 -62t-124.5 -22.5zM342 69q98 0 150 72t52 220
q0 290 -202 290q-200 0 -200 -290q0 -292 200 -292zM405 800l-22 -41l-210 91q1 30 15.5 50t33.5 20q13 0 34 -15z" />
    <glyph glyph-name="Oacute" unicode="&#xd3;" horiz-adv-x="686" 
d="M342 -10q-51 0 -95.5 12.5t-79.5 37.5t-60.5 64t-40.5 91.5t-18 100t-3 65.5q0 94 20.5 164.5t59 115.5t93.5 67t124 22q70 0 125.5 -22t93.5 -67t58.5 -115.5t20.5 -164.5q0 -45 -6.5 -98t-25 -101t-52.5 -87.5t-89.5 -62t-124.5 -22.5zM342 69q98 0 150 72t52 220
q0 290 -202 290q-200 0 -200 -290q0 -292 200 -292zM284 759l-22 41l149 105q21 15 34 15q19 0 33.5 -20t15.5 -50z" />
    <glyph glyph-name="Ocircumflex" unicode="&#xd4;" horiz-adv-x="686" 
d="M342 -10q-51 0 -95.5 12.5t-79.5 37.5t-60.5 64t-40.5 91.5t-18 100t-3 65.5q0 94 20.5 164.5t59 115.5t93.5 67t124 22q70 0 125.5 -22t93.5 -67t58.5 -115.5t20.5 -164.5q0 -45 -6.5 -98t-25 -101t-52.5 -87.5t-89.5 -62t-124.5 -22.5zM342 69q98 0 150 72t52 220
q0 290 -202 290q-200 0 -200 -290q0 -292 200 -292zM496 788l-29 -29q-79 64 -124 86q-46 -22 -125 -86l-29 29q56 74 104 114q25 20 49 20t50 -20q48 -40 104 -114z" />
    <glyph glyph-name="Otilde" unicode="&#xd5;" horiz-adv-x="686" 
d="M342 -10q-51 0 -95.5 12.5t-79.5 37.5t-60.5 64t-40.5 91.5t-18 100t-3 65.5q0 94 20.5 164.5t59 115.5t93.5 67t124 22q70 0 125.5 -22t93.5 -67t58.5 -115.5t20.5 -164.5q0 -45 -6.5 -98t-25 -101t-52.5 -87.5t-89.5 -62t-124.5 -22.5zM342 69q98 0 150 72t52 220
q0 290 -202 290q-200 0 -200 -290q0 -292 200 -292zM200 794l-46 15q7 27 22.5 54.5t42 43t54.5 15.5q20 0 40.5 -8.5t56 -31t51.5 -22.5q41 0 66 61l46 -16q-16 -58 -48.5 -87t-72.5 -29q-20 0 -39.5 8.5t-55.5 32t-53 23.5q-41 0 -64 -59z" />
    <glyph glyph-name="Odieresis" unicode="&#xd6;" horiz-adv-x="686" 
d="M342 -10q-51 0 -95.5 12.5t-79.5 37.5t-60.5 64t-40.5 91.5t-18 100t-3 65.5q0 94 20.5 164.5t59 115.5t93.5 67t124 22q70 0 125.5 -22t93.5 -67t58.5 -115.5t20.5 -164.5q0 -45 -6.5 -98t-25 -101t-52.5 -87.5t-89.5 -62t-124.5 -22.5zM342 69q98 0 150 72t52 220
q0 290 -202 290q-200 0 -200 -290q0 -292 200 -292zM243 793q-24 0 -37.5 8.5t-13.5 47.5q0 32 10 44t41 12q24 0 38.5 -8t14.5 -48q0 -32 -10.5 -44t-42.5 -12zM441 793q-24 0 -37.5 8.5t-13.5 47.5q0 32 10 44t41 12q24 0 38.5 -8t14.5 -48q0 -32 -10.5 -44t-42.5 -12z
" />
    <glyph glyph-name="multiply" unicode="&#xd7;" horiz-adv-x="501" 
d="M444 454l-141 -137l141 -136l-51 -51l-142 137l-142 -137l-51 51l141 136l-141 137l51 51l142 -137l142 137z" />
    <glyph glyph-name="Oslash" unicode="&#xd8;" horiz-adv-x="686" 
d="M96 -57l-53 35l75 109q-35 45 -54 114.5t-19 159.5q0 94 20.5 164.5t59 115.5t93.5 67t124 22q110 0 181 -53l68 99l53 -35l-75 -109q71 -93 71 -271q0 -45 -6.5 -98t-25 -101t-52.5 -87.5t-89.5 -62t-124.5 -22.5q-108 0 -178 52zM142 361q0 -120 32 -192l299 434
q-48 48 -131 48q-200 0 -200 -290zM342 69q98 0 150 72t52 220q0 118 -31 189l-299 -434q48 -47 128 -47z" />
    <glyph glyph-name="Ugrave" unicode="&#xd9;" horiz-adv-x="685" 
d="M75 720h95v-421q0 -118 44 -172t128 -54q173 0 173 226v421h95v-421q0 -79 -18.5 -138.5t-53 -97t-84.5 -55.5t-112 -18t-112 18t-84.5 55.5t-52.5 97t-18 138.5v421zM388 800l-22 -41l-210 91q1 30 15.5 50t33.5 20q13 0 34 -15z" />
    <glyph glyph-name="Uacute" unicode="&#xda;" horiz-adv-x="685" 
d="M75 720h95v-421q0 -118 44 -172t128 -54q173 0 173 226v421h95v-421q0 -79 -18.5 -138.5t-53 -97t-84.5 -55.5t-112 -18t-112 18t-84.5 55.5t-52.5 97t-18 138.5v421zM311 759l-22 41l149 105q21 15 34 15q19 0 33.5 -20t15.5 -50z" />
    <glyph glyph-name="Ucircumflex" unicode="&#xdb;" horiz-adv-x="685" 
d="M75 720h95v-421q0 -118 44 -172t128 -54q173 0 173 226v421h95v-421q0 -79 -18.5 -138.5t-53 -97t-84.5 -55.5t-112 -18t-112 18t-84.5 55.5t-52.5 97t-18 138.5v421zM496 788l-29 -29q-79 64 -124 86q-46 -22 -125 -86l-29 29q56 74 104 114q25 20 49 20t50 -20
q48 -40 104 -114z" />
    <glyph glyph-name="Udieresis" unicode="&#xdc;" horiz-adv-x="685" 
d="M75 720h95v-421q0 -118 44 -172t128 -54q173 0 173 226v421h95v-421q0 -79 -18.5 -138.5t-53 -97t-84.5 -55.5t-112 -18t-112 18t-84.5 55.5t-52.5 97t-18 138.5v421zM242 793q-24 0 -37.5 8.5t-13.5 47.5q0 32 10 44t41 12q24 0 38.5 -8t14.5 -48q0 -32 -10.5 -44
t-42.5 -12zM440 793q-24 0 -37.5 8.5t-13.5 47.5q0 32 10 44t41 12q24 0 38.5 -8t14.5 -48q0 -32 -10.5 -44t-42.5 -12z" />
    <glyph glyph-name="Yacute" unicode="&#xdd;" horiz-adv-x="610" 
d="M32 720h99q10 -121 52.5 -225t121.5 -180q78 73 120.5 176t53.5 229h99q-11 -137 -69 -263t-156 -211v-246h-95v246q-98 85 -156 211t-70 263zM279 759l-22 41l149 105q21 15 34 15q19 0 33.5 -20t15.5 -50z" />
    <glyph glyph-name="Thorn" unicode="&#xde;" horiz-adv-x="616" 
d="M582 360q0 -60 -18.5 -105.5t-52.5 -74.5t-80.5 -43t-103.5 -14h-142v-123h-95v720h95v-122h142q56 0 103 -14t81 -43t52.5 -75t18.5 -106zM327 516h-142v-312h142q155 0 155 156t-155 156z" />
    <glyph glyph-name="germandbls" unicode="&#xdf;" horiz-adv-x="623" 
d="M265 100q73 -36 135 -36q49 0 75 22t26 62q0 31 -20 57t-75 63q-58 37 -81.5 67t-23.5 72q0 15 7 37t43.5 62t46.5 60.5t10 41.5q0 33 -32.5 55t-89.5 22q-55 0 -85 -26t-30 -74v-585h-90v592q0 79 54 123t159 44q91 0 149.5 -40t58.5 -97q0 -51 -48.5 -103.5t-55 -70
t-6.5 -29.5q0 -22 11.5 -40.5t78.5 -65.5q61 -43 86 -80.5t25 -89.5q0 -68 -48 -110.5t-136 -42.5q-65 0 -126 18q-20 6 -28 15.5t-8 26.5q0 12 5 27t13 23z" />
    <glyph glyph-name="agrave" unicode="&#xe0;" horiz-adv-x="533" 
d="M452 0h-66l-15 79q-31 -41 -79 -65t-96 -24q-33 0 -61 9t-48.5 27t-32 46t-11.5 63q0 54 32 94t96.5 63t165.5 23h25v25q0 100 -97 100q-39 0 -85.5 -11t-87.5 -29q-15 24 -15 51q0 14 7 23.5t25 15.5q31 11 74.5 17.5t80.5 6.5q93 0 140.5 -44t47.5 -146v-324zM221 60
q26 0 60 14t62 49q19 22 19 54v82h-21q-205 0 -205 -116q0 -19 8 -38.5t29 -32t48 -12.5zM313 607l-28 -38l-192 117q5 31 20 49.5t34 18.5q16 0 41 -24z" />
    <glyph glyph-name="aacute" unicode="&#xe1;" horiz-adv-x="533" 
d="M452 0h-66l-15 79q-31 -41 -79 -65t-96 -24q-33 0 -61 9t-48.5 27t-32 46t-11.5 63q0 54 32 94t96.5 63t165.5 23h25v25q0 100 -97 100q-39 0 -85.5 -11t-87.5 -29q-15 24 -15 51q0 14 7 23.5t25 15.5q31 11 74.5 17.5t80.5 6.5q93 0 140.5 -44t47.5 -146v-324zM221 60
q26 0 60 14t62 49q19 22 19 54v82h-21q-205 0 -205 -116q0 -19 8 -38.5t29 -32t48 -12.5zM219 569l-29 38l125 123q5 5 16.5 14.5t24.5 9.5q19 0 34.5 -18.5t20.5 -49.5z" />
    <glyph glyph-name="acircumflex" unicode="&#xe2;" horiz-adv-x="533" 
d="M452 0h-66l-15 79q-31 -41 -79 -65t-96 -24q-33 0 -61 9t-48.5 27t-32 46t-11.5 63q0 54 32 94t96.5 63t165.5 23h25v25q0 100 -97 100q-39 0 -85.5 -11t-87.5 -29q-15 24 -15 51q0 14 7 23.5t25 15.5q31 11 74.5 17.5t80.5 6.5q93 0 140.5 -44t47.5 -146v-324zM221 60
q26 0 60 14t62 49q19 22 19 54v82h-21q-205 0 -205 -116q0 -19 8 -38.5t29 -32t48 -12.5zM399 604l-32 -25q-66 61 -116 87q-47 -24 -117 -87l-31 25q54 80 98 120q24 21 49 21q26 0 50 -21q40 -35 99 -120z" />
    <glyph glyph-name="atilde" unicode="&#xe3;" horiz-adv-x="533" 
d="M452 0h-66l-15 79q-31 -41 -79 -65t-96 -24q-33 0 -61 9t-48.5 27t-32 46t-11.5 63q0 54 32 94t96.5 63t165.5 23h25v25q0 100 -97 100q-39 0 -85.5 -11t-87.5 -29q-15 24 -15 51q0 14 7 23.5t25 15.5q31 11 74.5 17.5t80.5 6.5q93 0 140.5 -44t47.5 -146v-324zM221 60
q26 0 60 14t62 49q19 22 19 54v82h-21q-205 0 -205 -116q0 -19 8 -38.5t29 -32t48 -12.5zM115 601l-46 15q14 56 47 84.5t72 28.5q20 0 40.5 -8.5t56 -31t51.5 -22.5q41 0 66 61l46 -16q-8 -28 -24 -56t-42 -43.5t-55 -15.5q-20 0 -39.5 8.5t-55.5 31.5t-53 23
q-41 0 -64 -59z" />
    <glyph glyph-name="adieresis" unicode="&#xe4;" horiz-adv-x="533" 
d="M452 0h-66l-15 79q-31 -41 -79 -65t-96 -24q-33 0 -61 9t-48.5 27t-32 46t-11.5 63q0 54 32 94t96.5 63t165.5 23h25v25q0 100 -97 100q-39 0 -85.5 -11t-87.5 -29q-15 24 -15 51q0 14 7 23.5t25 15.5q31 11 74.5 17.5t80.5 6.5q93 0 140.5 -44t47.5 -146v-324zM221 60
q26 0 60 14t62 49q19 22 19 54v82h-21q-205 0 -205 -116q0 -19 8 -38.5t29 -32t48 -12.5zM149 611q-24 0 -38 8t-14 47q0 32 10.5 44t41.5 12q24 0 38 -8t14 -48q0 -24 -7 -39.5t-45 -15.5zM347 611q-24 0 -38 8t-14 47q0 32 10.5 44t41.5 12q24 0 38 -8t14 -48
q0 -24 -7 -39.5t-45 -15.5z" />
    <glyph glyph-name="aring" unicode="&#xe5;" horiz-adv-x="533" 
d="M452 0h-66l-15 79q-31 -41 -79 -65t-96 -24q-33 0 -61 9t-48.5 27t-32 46t-11.5 63q0 54 32 94t96.5 63t165.5 23h25v25q0 100 -97 100q-39 0 -85.5 -11t-87.5 -29q-15 24 -15 51q0 14 7 23.5t25 15.5q31 11 74.5 17.5t80.5 6.5q93 0 140.5 -44t47.5 -146v-324zM221 60
q26 0 60 14t62 49q19 22 19 54v82h-21q-205 0 -205 -116q0 -19 8 -38.5t29 -32t48 -12.5zM252 568q-30 0 -56 15.5t-36.5 39.5t-10.5 46t10.5 46.5t36.5 40t56 15.5q25 0 48 -11t39.5 -33.5t16.5 -57.5q0 -23 -10.5 -46.5t-36.5 -39t-57 -15.5zM252 608q24 0 41 15.5
t17 45.5q0 31 -17 46.5t-41 15.5t-40.5 -16t-16.5 -46t16.5 -45.5t40.5 -15.5z" />
    <glyph glyph-name="ae" unicode="&#xe6;" horiz-adv-x="835" 
d="M264 514q117 0 153 -82q28 41 73.5 61t102.5 20q91 0 140 -41t49 -108q0 -68 -55 -101.5t-171 -33.5q-46 0 -103 6q2 -50 16 -88t46 -60t94 -22q70 0 149 40q14 -26 14 -51q0 -6 -3 -18t-28 -22q-27 -10 -63.5 -16.5t-69.5 -6.5q-149 0 -204 104q-30 -51 -82.5 -78
t-115.5 -27q-76 0 -119.5 36t-43.5 106q0 49 28 85.5t86.5 57.5t151.5 21l53 -2v46q0 100 -97 100q-39 0 -85.5 -11t-87.5 -29q-15 24 -15 51q0 14 7 23.5t25 15.5q31 11 74.5 17.5t80.5 6.5zM221 60q32 0 66.5 16t56.5 46q18 20 18 55v65l-44 1q-182 0 -182 -103
q0 -37 24 -58.5t61 -21.5zM584 445q-64 0 -95 -40.5t-35 -117.5q62 -4 91 -4q78 1 112 22t34 61q0 37 -27.5 58t-79.5 21z" />
    <glyph glyph-name="ccedilla" unicode="&#xe7;" horiz-adv-x="481" 
d="M179 -155q34 -16 66 -16q27 0 44 12.5t17 34.5q0 40 -56 40q-14 0 -34 -3l-11 13l16 71q-57 11 -94 44.5t-55.5 85.5t-18.5 125q0 51 11.5 99.5t39 84.5t71 56.5t104.5 20.5q72 0 120 -17q13 -4 22 -12t9 -28q0 -25 -14 -50q-69 33 -127 33q-75 0 -108 -48.5t-33 -138.5
q0 -91 33 -139t108 -48q57 0 135 37q15 -24 15 -50q0 -15 -6 -24t-25 -16q-60 -21 -129 -21h-5l-8 -39l23 1q38 0 64.5 -20t26.5 -57q0 -46 -38 -73.5t-96 -27.5q-32 0 -62 9q-19 6 -19 22q0 20 14 39z" />
    <glyph glyph-name="egrave" unicode="&#xe8;" horiz-adv-x="532" 
d="M270 214q-58 0 -122 14q5 -83 40.5 -123t115.5 -40q69 0 149 40q14 -26 14 -51q0 -6 -3 -18t-28 -22q-60 -23 -137 -23q-246 0 -246 263q0 84 26 140.5t76 87.5t124 31q96 0 148 -42t52 -112q0 -74 -51.5 -109.5t-157.5 -35.5zM279 445q-65 0 -96 -41.5t-35 -120.5
q60 -9 101 -9q74 0 106 21t32 67q0 39 -28.5 61t-79.5 22zM341 607l-28 -38l-192 117q5 31 20 49.5t34 18.5q16 0 41 -24z" />
    <glyph glyph-name="eacute" unicode="&#xe9;" horiz-adv-x="532" 
d="M270 214q-58 0 -122 14q5 -83 40.5 -123t115.5 -40q69 0 149 40q14 -26 14 -51q0 -6 -3 -18t-28 -22q-60 -23 -137 -23q-246 0 -246 263q0 84 26 140.5t76 87.5t124 31q96 0 148 -42t52 -112q0 -74 -51.5 -109.5t-157.5 -35.5zM279 445q-65 0 -96 -41.5t-35 -120.5
q60 -9 101 -9q74 0 106 21t32 67q0 39 -28.5 61t-79.5 22zM248 569l-29 38l125 123q5 5 16.5 14.5t24.5 9.5q19 0 34.5 -18.5t20.5 -49.5z" />
    <glyph glyph-name="ecircumflex" unicode="&#xea;" horiz-adv-x="532" 
d="M270 214q-58 0 -122 14q5 -83 40.5 -123t115.5 -40q69 0 149 40q14 -26 14 -51q0 -6 -3 -18t-28 -22q-60 -23 -137 -23q-246 0 -246 263q0 84 26 140.5t76 87.5t124 31q96 0 148 -42t52 -112q0 -74 -51.5 -109.5t-157.5 -35.5zM279 445q-65 0 -96 -41.5t-35 -120.5
q60 -9 101 -9q74 0 106 21t32 67q0 39 -28.5 61t-79.5 22zM430 604l-32 -25q-66 61 -116 87q-47 -24 -117 -87l-31 25q54 80 98 120q24 21 49 21q26 0 50 -21q40 -35 99 -120z" />
    <glyph glyph-name="edieresis" unicode="&#xeb;" horiz-adv-x="532" 
d="M270 214q-58 0 -122 14q5 -83 40.5 -123t115.5 -40q69 0 149 40q14 -26 14 -51q0 -6 -3 -18t-28 -22q-60 -23 -137 -23q-246 0 -246 263q0 84 26 140.5t76 87.5t124 31q96 0 148 -42t52 -112q0 -74 -51.5 -109.5t-157.5 -35.5zM279 445q-65 0 -96 -41.5t-35 -120.5
q60 -9 101 -9q74 0 106 21t32 67q0 39 -28.5 61t-79.5 22zM176 611q-24 0 -38 8t-14 47q0 32 10.5 44t41.5 12q24 0 38 -8t14 -48q0 -24 -7 -39.5t-45 -15.5zM374 611q-24 0 -38 8t-14 47q0 32 10.5 44t41.5 12q24 0 38 -8t14 -48q0 -24 -7 -39.5t-45 -15.5z" />
    <glyph glyph-name="igrave" unicode="&#xec;" horiz-adv-x="252" 
d="M171 0h-90v504h90v-504zM184 607l-28 -38l-192 117q5 31 20 49.5t34 18.5q16 0 41 -24z" />
    <glyph glyph-name="iacute" unicode="&#xed;" horiz-adv-x="252" 
d="M171 0h-90v504h90v-504zM97 569l-29 38l125 123q5 5 16.5 14.5t24.5 9.5q19 0 34.5 -18.5t20.5 -49.5z" />
    <glyph glyph-name="icircumflex" unicode="&#xee;" horiz-adv-x="252" 
d="M171 0h-90v504h90v-504zM274 604l-31 -25q-70 63 -117 87q-49 -26 -117 -87l-31 25q59 85 99 120q24 21 49 21t49 -21q44 -39 99 -120z" />
    <glyph glyph-name="idieresis" unicode="&#xef;" horiz-adv-x="252" 
d="M55 611q-19 0 -32.5 8.5t-13.5 46.5q0 31 10 43.5t36 12.5q27 0 37 -12t10 -44q0 -31 -10 -43t-37 -12zM196 611q-20 0 -33 8.5t-13 46.5q0 31 10 43.5t36 12.5t36.5 -12.5t10.5 -43.5q0 -23 -7.5 -39t-39.5 -16zM171 0h-90v504h90v-504z" />
    <glyph glyph-name="eth" unicode="&#xf0;" horiz-adv-x="554" 
d="M273 -9q-73 0 -121 30t-73.5 85.5t-25.5 139.5q0 83 22.5 138.5t65 85t103.5 29.5q25 0 54.5 -8t56 -27.5t43.5 -41.5q-17 99 -121 181l-166 -64l-17 42l138 54q-58 38 -151 77l53 48q101 -44 169 -90l130 51l16 -43l-102 -40q79 -65 119 -152t40 -207q0 -99 -26 -161.5
t-76.5 -94.5t-130.5 -32zM273 63q74 0 106 49.5t32 150.5q0 78 -42 125.5t-102 47.5q-64 0 -91.5 -47.5t-27.5 -138.5q0 -187 125 -187z" />
    <glyph glyph-name="ntilde" unicode="&#xf1;" horiz-adv-x="572" 
d="M491 0h-91v336q0 97 -88 97q-36 0 -69 -16.5t-54 -43.5q-18 -23 -18 -55v-318h-90v504h66l16 -76q32 39 79.5 61.5t92.5 22.5q80 0 118 -42t38 -117v-353zM137 601l-46 15q14 56 47 84.5t72 28.5q20 0 40.5 -8.5t56 -31t51.5 -22.5q41 0 66 61l46 -16q-8 -28 -24 -56
t-42 -43.5t-55 -15.5q-20 0 -39.5 8.5t-55.5 31.5t-53 23q-41 0 -64 -59z" />
    <glyph glyph-name="ograve" unicode="&#xf2;" horiz-adv-x="559" 
d="M279 -9q-75 0 -124.5 31t-75.5 88.5t-26 143.5q0 84 26 140.5t76 87.5t124 31q75 0 125 -30.5t76 -87t26 -141.5q0 -68 -17.5 -119t-48.5 -82.5t-72 -46.5t-89 -15zM279 63q70 0 101 48.5t31 142.5q0 93 -31 140.5t-101 47.5q-69 0 -100 -47.5t-31 -140.5
q0 -94 31 -142.5t100 -48.5zM335 607l-28 -38l-192 117q5 31 20 49.5t34 18.5q16 0 41 -24z" />
    <glyph glyph-name="oacute" unicode="&#xf3;" horiz-adv-x="559" 
d="M279 -9q-75 0 -124.5 31t-75.5 88.5t-26 143.5q0 84 26 140.5t76 87.5t124 31q75 0 125 -30.5t76 -87t26 -141.5q0 -68 -17.5 -119t-48.5 -82.5t-72 -46.5t-89 -15zM279 63q70 0 101 48.5t31 142.5q0 93 -31 140.5t-101 47.5q-69 0 -100 -47.5t-31 -140.5
q0 -94 31 -142.5t100 -48.5zM243 569l-29 38l125 123q5 5 16.5 14.5t24.5 9.5q19 0 34.5 -18.5t20.5 -49.5z" />
    <glyph glyph-name="ocircumflex" unicode="&#xf4;" horiz-adv-x="559" 
d="M279 -9q-75 0 -124.5 31t-75.5 88.5t-26 143.5q0 84 26 140.5t76 87.5t124 31q75 0 125 -30.5t76 -87t26 -141.5q0 -68 -17.5 -119t-48.5 -82.5t-72 -46.5t-89 -15zM279 63q70 0 101 48.5t31 142.5q0 93 -31 140.5t-101 47.5q-69 0 -100 -47.5t-31 -140.5
q0 -94 31 -142.5t100 -48.5zM428 604l-32 -25q-66 61 -116 87q-47 -24 -117 -87l-31 25q54 80 98 120q24 21 49 21q26 0 50 -21q40 -35 99 -120z" />
    <glyph glyph-name="otilde" unicode="&#xf5;" horiz-adv-x="559" 
d="M279 -9q-75 0 -124.5 31t-75.5 88.5t-26 143.5q0 84 26 140.5t76 87.5t124 31q75 0 125 -30.5t76 -87t26 -141.5q0 -68 -17.5 -119t-48.5 -82.5t-72 -46.5t-89 -15zM279 63q70 0 101 48.5t31 142.5q0 93 -31 140.5t-101 47.5q-69 0 -100 -47.5t-31 -140.5
q0 -94 31 -142.5t100 -48.5zM138 601l-46 15q14 56 47 84.5t72 28.5q20 0 40.5 -8.5t56 -31t51.5 -22.5q41 0 66 61l46 -16q-8 -28 -24 -56t-42 -43.5t-55 -15.5q-20 0 -39.5 8.5t-55.5 31.5t-53 23q-41 0 -64 -59z" />
    <glyph glyph-name="odieresis" unicode="&#xf6;" horiz-adv-x="559" 
d="M279 -9q-75 0 -124.5 31t-75.5 88.5t-26 143.5q0 84 26 140.5t76 87.5t124 31q75 0 125 -30.5t76 -87t26 -141.5q0 -68 -17.5 -119t-48.5 -82.5t-72 -46.5t-89 -15zM279 63q70 0 101 48.5t31 142.5q0 93 -31 140.5t-101 47.5q-69 0 -100 -47.5t-31 -140.5
q0 -94 31 -142.5t100 -48.5zM180 611q-24 0 -38 8t-14 47q0 32 10.5 44t41.5 12q24 0 38 -8t14 -48q0 -24 -7 -39.5t-45 -15.5zM378 611q-24 0 -38 8t-14 47q0 32 10.5 44t41.5 12q24 0 38 -8t14 -48q0 -24 -7 -39.5t-45 -15.5z" />
    <glyph glyph-name="divide" unicode="&#xf7;" horiz-adv-x="501" 
d="M454 283h-407v69h407v-69zM251 96q-27 0 -37 12t-10 41t10 41.5t37 12.5t37.5 -12.5t10.5 -41.5t-10.5 -41t-37.5 -12zM251 431q-27 0 -37 12t-10 41q0 28 10 41t37 13t37.5 -12.5t10.5 -41.5t-10.5 -41t-37.5 -12z" />
    <glyph glyph-name="oslash" unicode="&#xf8;" horiz-adv-x="561" 
d="M98 -54l-39 26l56 82q-61 67 -61 200q0 67 17 117t47.5 81.5t72 46t89.5 14.5q35 0 69.5 -8.5t59.5 -24.5l54 78l39 -26l-57 -82q61 -66 61 -196q0 -68 -17.5 -119t-48 -82.5t-71.5 -46.5t-89 -15q-35 0 -69 8.5t-59 24.5zM146 251q0 -78 19 -126l199 289q-31 28 -84 28
q-70 0 -102 -49t-32 -142zM280 63q135 0 135 195q0 75 -19 121l-199 -289q31 -27 83 -27z" />
    <glyph glyph-name="ugrave" unicode="&#xf9;" horiz-adv-x="569" 
d="M81 504h90v-335q0 -98 89 -98q36 0 68 16.5t52 43.5q18 23 18 56v317h90v-504h-66l-16 75q-32 -39 -78.5 -61t-91.5 -22q-79 0 -117 42.5t-38 117.5v352zM329 607l-28 -38l-192 117q5 31 20 49.5t34 18.5q16 0 41 -24z" />
    <glyph glyph-name="uacute" unicode="&#xfa;" horiz-adv-x="569" 
d="M81 504h90v-335q0 -98 89 -98q36 0 68 16.5t52 43.5q18 23 18 56v317h90v-504h-66l-16 75q-32 -39 -78.5 -61t-91.5 -22q-79 0 -117 42.5t-38 117.5v352zM265 569l-29 38l125 123q5 5 16.5 14.5t24.5 9.5q19 0 34.5 -18.5t20.5 -49.5z" />
    <glyph glyph-name="ucircumflex" unicode="&#xfb;" horiz-adv-x="569" 
d="M81 504h90v-335q0 -98 89 -98q36 0 68 16.5t52 43.5q18 23 18 56v317h90v-504h-66l-16 75q-32 -39 -78.5 -61t-91.5 -22q-79 0 -117 42.5t-38 117.5v352zM433 604l-32 -25q-66 61 -116 87q-47 -24 -117 -87l-31 25q54 80 98 120q24 21 49 21q26 0 50 -21q40 -35 99 -120z
" />
    <glyph glyph-name="udieresis" unicode="&#xfc;" horiz-adv-x="569" 
d="M81 504h90v-335q0 -98 89 -98q36 0 68 16.5t52 43.5q18 23 18 56v317h90v-504h-66l-16 75q-32 -39 -78.5 -61t-91.5 -22q-79 0 -117 42.5t-38 117.5v352zM187 611q-24 0 -38 8t-14 47q0 32 10.5 44t41.5 12q24 0 38 -8t14 -48q0 -24 -7 -39.5t-45 -15.5zM385 611
q-24 0 -38 8t-14 47q0 32 10.5 44t41.5 12q24 0 38 -8t14 -48q0 -24 -7 -39.5t-45 -15.5z" />
    <glyph glyph-name="yacute" unicode="&#xfd;" horiz-adv-x="506" 
d="M371 504h95q-8 -135 -45 -255.5t-100.5 -230t-160.5 -218.5q-31 -35 -56 -35q-39 0 -64 61q110 78 179 174q-80 90 -124 214.5t-54 289.5h96q7 -147 35 -254t86 -191q102 176 113 445zM238 569l-29 38l125 123q5 5 16.5 14.5t24.5 9.5q19 0 34.5 -18.5t20.5 -49.5z" />
    <glyph glyph-name="thorn" unicode="&#xfe;" 
d="M514 252q0 -88 -22.5 -145t-64.5 -86t-106 -29q-41 0 -82 18.5t-68 48.5v-297h-90v988h90v-309q27 32 69.5 52t83.5 20q62 0 103.5 -29.5t64 -86.5t22.5 -145zM420 253q0 96 -27.5 142t-91.5 46q-35 0 -65.5 -17.5t-48.5 -45.5q-17 -25 -17 -70v-111q0 -47 17 -70
q18 -28 48.5 -45.5t65.5 -17.5q64 0 91.5 46.5t27.5 142.5z" />
    <glyph glyph-name="ydieresis" unicode="&#xff;" horiz-adv-x="506" 
d="M371 504h95q-3 -53 -13.5 -120.5t-32.5 -139.5t-57 -147t-87.5 -151.5t-115.5 -145.5q-31 -35 -56 -35q-39 0 -64 61q110 78 179 174q-80 90 -124 214.5t-54 289.5h96q7 -147 35 -254t86 -191q102 176 113 445zM155 611q-24 0 -38 8t-14 47q0 32 10.5 44t41.5 12
q24 0 38 -8t14 -48q0 -24 -7 -39.5t-45 -15.5zM353 611q-24 0 -38 8t-14 47q0 32 10.5 44t41.5 12q24 0 38 -8t14 -48q0 -24 -7 -39.5t-45 -15.5z" />
    <glyph glyph-name="Amacron" unicode="&#x100;" horiz-adv-x="645" 
d="M139 0h-99q14 217 78.5 412.5t161.5 307.5h86q97 -113 162 -308.5t77 -411.5h-99q-6 92 -18 179h-331q-14 -104 -18 -179zM473 261q-47 229 -150 382q-104 -152 -151 -382h301zM170 815v66h308v-66h-308z" />
    <glyph glyph-name="amacron" unicode="&#x101;" horiz-adv-x="533" 
d="M452 0h-66l-15 79q-31 -41 -79 -65t-96 -24q-33 0 -61 9t-48.5 27t-32 46t-11.5 63q0 54 32 94t96.5 63t165.5 23h25v25q0 100 -97 100q-39 0 -85.5 -11t-87.5 -29q-15 24 -15 51q0 14 7 23.5t25 15.5q31 11 74.5 17.5t80.5 6.5q93 0 140.5 -44t47.5 -146v-324zM221 60
q26 0 60 14t62 49q19 22 19 54v82h-21q-205 0 -205 -116q0 -19 8 -38.5t29 -32t48 -12.5zM101 643v67h308v-67h-308z" />
    <glyph glyph-name="Abreve" unicode="&#x102;" horiz-adv-x="645" 
d="M139 0h-99q14 217 78.5 412.5t161.5 307.5h86q97 -113 162 -308.5t77 -411.5h-99q-6 92 -18 179h-331q-14 -104 -18 -179zM473 261q-47 229 -150 382q-104 -152 -151 -382h301zM460 930l37 -33q-20 -29 -50 -55t-63.5 -37.5t-61.5 -11.5q-42 0 -78.5 18.5t-59.5 42.5
t-36 43l36 33q63 -65 138 -65q31 0 67.5 14.5t70.5 50.5z" />
    <glyph glyph-name="abreve" unicode="&#x103;" horiz-adv-x="533" 
d="M452 0h-66l-15 79q-31 -41 -79 -65t-96 -24q-33 0 -61 9t-48.5 27t-32 46t-11.5 63q0 54 32 94t96.5 63t165.5 23h25v25q0 100 -97 100q-39 0 -85.5 -11t-87.5 -29q-15 24 -15 51q0 14 7 23.5t25 15.5q31 11 74.5 17.5t80.5 6.5q93 0 140.5 -44t47.5 -146v-324zM221 60
q26 0 60 14t62 49q19 22 19 54v82h-21q-205 0 -205 -116q0 -19 8 -38.5t29 -32t48 -12.5zM392 749l36 -31q-20 -35 -49.5 -65t-62 -44t-62.5 -14q-50 0 -95 31t-80 92l37 31q27 -36 62 -59t76 -23q40 0 75.5 23t62.5 59z" />
    <glyph glyph-name="Aogonek" unicode="&#x104;" horiz-adv-x="645" 
d="M602 -167q12 -15 12 -39q0 -22 -18 -28q-24 -8 -55 -8q-51 0 -80 25.5t-29 70.5q0 39 25.5 77t70.5 69h-22q-6 92 -18 179h-331q-14 -104 -18 -179h-99q14 217 78.5 412.5t161.5 307.5h86q97 -113 162 -308.5t77 -411.5q-101 -68 -101 -132q0 -22 13 -34t34 -12
q24 0 51 11zM473 261q-47 229 -150 382q-104 -152 -151 -382h301z" />
    <glyph glyph-name="aogonek" unicode="&#x105;" horiz-adv-x="533" 
d="M449 -167q12 -15 12 -39q0 -22 -18 -28q-24 -8 -55 -8q-51 0 -80 25.5t-29 70.5q0 41 28 80.5t77 71.5l-13 73q-31 -41 -79 -65t-96 -24q-33 0 -61 9t-48.5 27t-32 46t-11.5 63q0 54 32 94t96.5 63t165.5 23h25v25q0 100 -97 100q-39 0 -85.5 -11t-87.5 -29
q-15 24 -15 51q0 14 7 23.5t25 15.5q31 11 74.5 17.5t80.5 6.5q93 0 140.5 -44t47.5 -146v-324q-101 -68 -101 -132q0 -22 13 -34t34 -12q24 0 51 11zM221 60q26 0 60 14t62 49q19 22 19 54v82h-21q-205 0 -205 -116q0 -19 8 -38.5t29 -32t48 -12.5z" />
    <glyph glyph-name="Cacute" unicode="&#x106;" horiz-adv-x="564" 
d="M45 361q0 93 21.5 164t60.5 116t93.5 67t119.5 22q74 0 147 -20q42 -11 42 -44q0 -28 -19 -59q-80 44 -167 44q-45 0 -82.5 -17t-64 -52.5t-40.5 -91t-14 -129.5q0 -55 9.5 -108t33 -94t62.5 -65.5t96 -24.5q42 0 89.5 12.5t86.5 33.5q19 -29 19 -58q0 -16 -9.5 -27
t-32.5 -17q-78 -23 -155 -23q-67 0 -121.5 22.5t-93.5 68t-60 116.5t-21 164zM270 759l-22 41l149 105q21 15 34 15q19 0 33.5 -20t15.5 -50z" />
    <glyph glyph-name="cacute" unicode="&#x107;" horiz-adv-x="481" 
d="M416 406q-69 33 -127 33q-75 0 -108 -48.5t-33 -138.5q0 -91 33 -139t108 -48q57 0 135 37q15 -24 15 -50q0 -15 -6 -24t-25 -16q-60 -21 -129 -21q-48 0 -89 14.5t-72 45.5t-48 82t-17 119q0 51 11.5 99.5t39 84.5t71 56.5t104.5 20.5q72 0 120 -17q13 -4 22 -12t9 -28
q0 -25 -14 -50zM231 569l-29 38l125 123q5 5 16.5 14.5t24.5 9.5q19 0 34.5 -18.5t20.5 -49.5z" />
    <glyph glyph-name="Ccircumflex" unicode="&#x108;" horiz-adv-x="564" 
d="M45 361q0 93 21.5 164t60.5 116t93.5 67t119.5 22q74 0 147 -20q42 -11 42 -44q0 -28 -19 -59q-80 44 -167 44q-45 0 -82.5 -17t-64 -52.5t-40.5 -91t-14 -129.5q0 -55 9.5 -108t33 -94t62.5 -65.5t96 -24.5q42 0 89.5 12.5t86.5 33.5q19 -29 19 -58q0 -16 -9.5 -27
t-32.5 -17q-78 -23 -155 -23q-67 0 -121.5 22.5t-93.5 68t-60 116.5t-21 164zM484 788l-29 -29q-79 64 -124 86q-46 -22 -125 -86l-29 29q56 74 104 114q25 20 49 20t50 -20q48 -40 104 -114z" />
    <glyph glyph-name="ccircumflex" unicode="&#x109;" horiz-adv-x="483" 
d="M416 406q-69 33 -127 33q-75 0 -108 -48.5t-33 -138.5q0 -91 33 -139t108 -48q57 0 135 37q15 -24 15 -50q0 -15 -6 -24t-25 -16q-60 -21 -129 -21q-48 0 -89 14.5t-72 45.5t-48 82t-17 119q0 51 11.5 99.5t39 84.5t71 56.5t104.5 20.5q72 0 120 -17q13 -4 22 -12t9 -28
q0 -25 -14 -50zM419 604l-32 -25q-66 61 -116 87q-47 -24 -117 -87l-31 25q54 80 98 120q24 21 49 21q26 0 50 -21q40 -35 99 -120z" />
    <glyph glyph-name="Cdotaccent" unicode="&#x10a;" horiz-adv-x="564" 
d="M45 361q0 93 21.5 164t60.5 116t93.5 67t119.5 22q74 0 147 -20q42 -11 42 -44q0 -28 -19 -59q-80 44 -167 44q-45 0 -82.5 -17t-64 -52.5t-40.5 -91t-14 -129.5q0 -55 9.5 -108t33 -94t62.5 -65.5t96 -24.5q42 0 89.5 12.5t86.5 33.5q19 -29 19 -58q0 -16 -9.5 -27
t-32.5 -17q-78 -23 -155 -23q-67 0 -121.5 22.5t-93.5 68t-60 116.5t-21 164zM326 793q-27 0 -42 8.5t-15 47.5q0 32 11 44t46 12q26 0 42 -8t16 -48q0 -32 -11.5 -44t-46.5 -12z" />
    <glyph glyph-name="cdotaccent" unicode="&#x10b;" horiz-adv-x="481" 
d="M416 406q-69 33 -127 33q-75 0 -108 -48.5t-33 -138.5q0 -91 33 -139t108 -48q57 0 135 37q15 -24 15 -50q0 -15 -6 -24t-25 -16q-60 -21 -129 -21q-48 0 -89 14.5t-72 45.5t-48 82t-17 119q0 51 11.5 99.5t39 84.5t71 56.5t104.5 20.5q72 0 120 -17q13 -4 22 -12t9 -28
q0 -25 -14 -50zM263 611q-27 0 -42 8t-15 47q0 32 11 44t46 12q26 0 42 -8t16 -48q0 -32 -11.5 -43.5t-46.5 -11.5z" />
    <glyph glyph-name="Ccaron" unicode="&#x10c;" horiz-adv-x="564" 
d="M45 361q0 93 21.5 164t60.5 116t93.5 67t119.5 22q74 0 147 -20q42 -11 42 -44q0 -28 -19 -59q-80 44 -167 44q-45 0 -82.5 -17t-64 -52.5t-40.5 -91t-14 -129.5q0 -55 9.5 -108t33 -94t62.5 -65.5t96 -24.5q42 0 89.5 12.5t86.5 33.5q19 -29 19 -58q0 -16 -9.5 -27
t-32.5 -17q-78 -23 -155 -23q-67 0 -121.5 22.5t-93.5 68t-60 116.5t-21 164zM176 899l29 28q75 -62 125 -85q50 23 124 85l29 -28q-25 -33 -53 -64.5t-51 -49.5q-24 -20 -50 -20t-49 20q-12 10 -38.5 36t-65.5 78z" />
    <glyph glyph-name="ccaron" unicode="&#x10d;" horiz-adv-x="481" 
d="M416 406q-69 33 -127 33q-75 0 -108 -48.5t-33 -138.5q0 -91 33 -139t108 -48q57 0 135 37q15 -24 15 -50q0 -15 -6 -24t-25 -16q-60 -21 -129 -21q-48 0 -89 14.5t-72 45.5t-48 82t-17 119q0 51 11.5 99.5t39 84.5t71 56.5t104.5 20.5q72 0 120 -17q13 -4 22 -12t9 -28
q0 -25 -14 -50zM112 723l31 25q65 -60 117 -88q55 31 116 88l32 -25q-58 -85 -99 -120q-24 -21 -50 -21q-25 0 -49 21q-22 19 -48.5 52t-49.5 68z" />
    <glyph glyph-name="Dcaron" unicode="&#x10e;" horiz-adv-x="679" 
d="M634 360q0 -95 -22 -164.5t-64 -112.5t-103 -63t-139 -20h-218v720h218q78 0 139 -20t103 -63t64 -112.5t22 -164.5zM183 77h122q86 0 135.5 33t73 94t23.5 156t-23.5 156t-73 94t-135.5 33h-122v-566zM175 899l29 28q75 -62 125 -85q50 23 124 85l29 -28
q-25 -33 -53 -64.5t-51 -49.5q-24 -20 -50 -20t-49 20q-12 10 -38.5 36t-65.5 78z" />
    <glyph glyph-name="dcaron" unicode="&#x10f;" horiz-adv-x="619" 
d="M53 252q0 88 22.5 145t65 86.5t106.5 29.5q40 0 81 -18.5t68 -48.5v304h90v-750h-65l-16 70q-30 -36 -73.5 -57t-86.5 -21q-64 0 -105.5 29t-64 86t-22.5 145zM148 252q0 -96 27.5 -142t90.5 -46q35 0 65 17.5t49 45.5q17 23 17 70v111q0 45 -17 70q-18 28 -48.5 45.5
t-65.5 17.5q-63 0 -90.5 -46.5t-27.5 -142.5zM589 554l-48 6v192q22 11 50 11q16 0 25.5 -7t9.5 -18l-2 -12z" />
    <glyph glyph-name="Dcroat" unicode="&#x110;" horiz-adv-x="694" 
d="M19 338v61h84v321h218q78 0 139 -20t103 -63t64 -112.5t22 -164.5t-22 -164.5t-64 -112.5t-103 -63t-139 -20h-218v338h-84zM198 77h122q86 0 135.5 33t73 94t23.5 156t-23.5 156t-73 94t-135.5 33h-122v-244h186v-61h-186v-261z" />
    <glyph glyph-name="dcroat" unicode="&#x111;" 
d="M228 613v46h168v91h90v-91h88v-46h-88v-613h-65l-16 70q-30 -36 -73.5 -57t-86.5 -21q-64 0 -105.5 29t-64 86t-22.5 145t22.5 145t65 86.5t106.5 29.5q40 0 81 -18.5t68 -48.5v167h-168zM148 252q0 -96 27.5 -142t90.5 -46q35 0 65 17.5t49 45.5q17 23 17 70v111
q0 45 -17 70q-18 28 -48.5 45.5t-65.5 17.5q-63 0 -90.5 -46.5t-27.5 -142.5z" />
    <glyph glyph-name="Emacron" unicode="&#x112;" horiz-adv-x="563" 
d="M88 0v720h417v-78h-322v-229h254v-78h-254v-257h329v-78h-424zM146 815v66h308v-66h-308z" />
    <glyph glyph-name="emacron" unicode="&#x113;" horiz-adv-x="532" 
d="M270 214q-58 0 -122 14q5 -83 40.5 -123t115.5 -40q69 0 149 40q14 -26 14 -51q0 -6 -3 -18t-28 -22q-60 -23 -137 -23q-246 0 -246 263q0 84 26 140.5t76 87.5t124 31q96 0 148 -42t52 -112q0 -74 -51.5 -109.5t-157.5 -35.5zM279 445q-65 0 -96 -41.5t-35 -120.5
q60 -9 101 -9q74 0 106 21t32 67q0 39 -28.5 61t-79.5 22zM121 643v67h308v-67h-308z" />
    <glyph glyph-name="Ebreve" unicode="&#x114;" horiz-adv-x="563" 
d="M88 0v720h417v-78h-322v-229h254v-78h-254v-257h329v-78h-424zM435 930l37 -33q-20 -29 -50 -55t-63.5 -37.5t-61.5 -11.5q-42 0 -78.5 18.5t-59.5 42.5t-36 43l36 33q63 -65 138 -65q31 0 67.5 14.5t70.5 50.5z" />
    <glyph glyph-name="ebreve" unicode="&#x115;" horiz-adv-x="532" 
d="M270 214q-58 0 -122 14q5 -83 40.5 -123t115.5 -40q69 0 149 40q14 -26 14 -51q0 -6 -3 -18t-28 -22q-60 -23 -137 -23q-246 0 -246 263q0 84 26 140.5t76 87.5t124 31q96 0 148 -42t52 -112q0 -74 -51.5 -109.5t-157.5 -35.5zM279 445q-65 0 -96 -41.5t-35 -120.5
q60 -9 101 -9q74 0 106 21t32 67q0 39 -28.5 61t-79.5 22zM417 749l36 -31q-20 -35 -49.5 -65t-62 -44t-62.5 -14q-50 0 -95 31t-80 92l37 31q27 -36 62 -59t76 -23q40 0 75.5 23t62.5 59z" />
    <glyph glyph-name="Edotaccent" unicode="&#x116;" horiz-adv-x="563" 
d="M88 0v720h417v-78h-322v-229h254v-78h-254v-257h329v-78h-424zM302 793q-27 0 -42 8.5t-15 47.5q0 32 11 44t46 12q26 0 42 -8t16 -48q0 -32 -11.5 -44t-46.5 -12z" />
    <glyph glyph-name="edotaccent" unicode="&#x117;" horiz-adv-x="532" 
d="M270 214q-58 0 -122 14q5 -83 40.5 -123t115.5 -40q69 0 149 40q14 -26 14 -51q0 -6 -3 -18t-28 -22q-60 -23 -137 -23q-246 0 -246 263q0 84 26 140.5t76 87.5t124 31q96 0 148 -42t52 -112q0 -74 -51.5 -109.5t-157.5 -35.5zM279 445q-65 0 -96 -41.5t-35 -120.5
q60 -9 101 -9q74 0 106 21t32 67q0 39 -28.5 61t-79.5 22zM274 611q-27 0 -42 8t-15 47q0 32 11 44t46 12q26 0 42 -8t16 -48q0 -32 -11.5 -43.5t-46.5 -11.5z" />
    <glyph glyph-name="Eogonek" unicode="&#x118;" horiz-adv-x="563" 
d="M88 0v720h417v-78h-322v-229h254v-78h-254v-257h329v-78q-101 -68 -101 -132q0 -22 13 -34t34 -12q24 0 51 11q12 -15 12 -39q0 -22 -18 -28q-24 -8 -55 -8q-51 0 -80 25.5t-29 70.5q0 39 25.5 77t70.5 69h-347z" />
    <glyph glyph-name="eogonek" unicode="&#x119;" horiz-adv-x="532" 
d="M270 214q-58 0 -122 14q5 -83 40.5 -123t115.5 -40q69 0 149 40q14 -26 14 -51q0 -8 -2.5 -16.5t-26.5 -22.5q-56 -36 -85 -74t-29 -72q0 -23 13 -35t33 -12q24 0 52 11q11 -16 11 -39q0 -22 -18 -28q-22 -8 -55 -8q-51 0 -80 25.5t-29 70.5q0 37 26 74.5t68 64.5l-46 -2
q-246 0 -246 263q0 84 26 140.5t76 87.5t124 31q96 0 148 -42t52 -112q0 -74 -51.5 -109.5t-157.5 -35.5zM279 445q-65 0 -96 -41.5t-35 -120.5q60 -9 101 -9q74 0 106 21t32 67q0 39 -28.5 61t-79.5 22z" />
    <glyph glyph-name="Ecaron" unicode="&#x11a;" horiz-adv-x="563" 
d="M88 0v720h417v-78h-322v-229h254v-78h-254v-257h329v-78h-424zM151 899l29 28q75 -62 125 -85q50 23 124 85l29 -28q-25 -33 -53 -64.5t-51 -49.5q-24 -20 -50 -20t-49 20q-12 10 -38.5 36t-65.5 78z" />
    <glyph glyph-name="ecaron" unicode="&#x11b;" horiz-adv-x="532" 
d="M270 214q-58 0 -122 14q5 -83 40.5 -123t115.5 -40q69 0 149 40q14 -26 14 -51q0 -6 -3 -18t-28 -22q-60 -23 -137 -23q-246 0 -246 263q0 84 26 140.5t76 87.5t124 31q96 0 148 -42t52 -112q0 -74 -51.5 -109.5t-157.5 -35.5zM279 445q-65 0 -96 -41.5t-35 -120.5
q60 -9 101 -9q74 0 106 21t32 67q0 39 -28.5 61t-79.5 22zM125 723l31 25q65 -60 117 -88q55 31 116 88l32 -25q-58 -85 -99 -120q-24 -21 -50 -21q-25 0 -49 21q-22 19 -48.5 52t-49.5 68z" />
    <glyph glyph-name="Gcircumflex" unicode="&#x11c;" horiz-adv-x="646" 
d="M547 600q-94 51 -190 51q-101 0 -155.5 -71t-54.5 -219q0 -292 200 -292q75 0 118 45t43 129q0 79 -19 161h96q18 -79 18 -164q0 -119 -67.5 -184.5t-187.5 -65.5q-69 0 -124.5 22.5t-94 68t-59 116t-20.5 164.5q0 92 21.5 163t61 116t95 67.5t123.5 22.5q105 0 184 -28
q13 -4 22 -12t9 -27q0 -32 -19 -63zM505 788l-29 -29q-79 64 -124 86q-46 -22 -125 -86l-29 29q56 74 104 114q25 20 49 20t50 -20q48 -40 104 -114z" />
    <glyph glyph-name="gcircumflex" unicode="&#x11d;" 
d="M53 252q0 88 23 145t66 86.5t105 29.5q46 0 87.5 -21t71.5 -57l15 69h65v-510q0 -79 -25.5 -131.5t-76 -80t-129.5 -27.5q-32 0 -73.5 6.5t-69.5 16.5q-13 5 -22 13t-9 27q0 31 15 55q32 -16 75 -28t78 -12q70 0 108.5 35.5t38.5 118.5v74q-27 -32 -68.5 -50.5
t-84.5 -18.5q-62 0 -103.5 29t-64 86t-22.5 145zM266 64q35 0 65 17.5t49 45.5q17 23 17 70v111q0 49 -21 76q-42 57 -109 57q-61 0 -90 -47t-29 -141q0 -96 27.5 -142.5t90.5 -46.5zM428 604l-32 -25q-66 61 -116 87q-47 -24 -117 -87l-31 25q54 80 98 120q24 21 49 21
q26 0 50 -21q40 -35 99 -120z" />
    <glyph glyph-name="Gbreve" unicode="&#x11e;" horiz-adv-x="646" 
d="M547 600q-94 51 -190 51q-101 0 -155.5 -71t-54.5 -219q0 -292 200 -292q75 0 118 45t43 129q0 79 -19 161h96q18 -79 18 -164q0 -119 -67.5 -184.5t-187.5 -65.5q-69 0 -124.5 22.5t-94 68t-59 116t-20.5 164.5q0 92 21.5 163t61 116t95 67.5t123.5 22.5q105 0 184 -28
q13 -4 22 -12t9 -27q0 -32 -19 -63zM467 930l37 -33q-20 -29 -50 -55t-63.5 -37.5t-61.5 -11.5q-42 0 -78.5 18.5t-59.5 42.5t-36 43l36 33q63 -65 138 -65q31 0 67.5 14.5t70.5 50.5z" />
    <glyph glyph-name="gbreve" unicode="&#x11f;" 
d="M53 252q0 88 23 145t66 86.5t105 29.5q46 0 87.5 -21t71.5 -57l15 69h65v-510q0 -79 -25.5 -131.5t-76 -80t-129.5 -27.5q-32 0 -73.5 6.5t-69.5 16.5q-13 5 -22 13t-9 27q0 31 15 55q32 -16 75 -28t78 -12q70 0 108.5 35.5t38.5 118.5v74q-27 -32 -68.5 -50.5
t-84.5 -18.5q-62 0 -103.5 29t-64 86t-22.5 145zM266 64q35 0 65 17.5t49 45.5q17 23 17 70v111q0 49 -21 76q-42 57 -109 57q-61 0 -90 -47t-29 -141q0 -96 27.5 -142.5t90.5 -46.5zM417 749l36 -31q-20 -35 -49.5 -65t-62 -44t-62.5 -14q-50 0 -95 31t-80 92l37 31
q27 -36 62 -59t76 -23q40 0 75.5 23t62.5 59z" />
    <glyph glyph-name="Gdotaccent" unicode="&#x120;" horiz-adv-x="646" 
d="M547 600q-94 51 -190 51q-101 0 -155.5 -71t-54.5 -219q0 -292 200 -292q75 0 118 45t43 129q0 79 -19 161h96q18 -79 18 -164q0 -119 -67.5 -184.5t-187.5 -65.5q-69 0 -124.5 22.5t-94 68t-59 116t-20.5 164.5q0 92 21.5 163t61 116t95 67.5t123.5 22.5q105 0 184 -28
q13 -4 22 -12t9 -27q0 -32 -19 -63zM337 793q-27 0 -42 8.5t-15 47.5q0 32 11 44t46 12q26 0 42 -8t16 -48q0 -32 -11.5 -44t-46.5 -12z" />
    <glyph glyph-name="gdotaccent" unicode="&#x121;" 
d="M53 252q0 88 23 145t66 86.5t105 29.5q46 0 87.5 -21t71.5 -57l15 69h65v-510q0 -79 -25.5 -131.5t-76 -80t-129.5 -27.5q-32 0 -73.5 6.5t-69.5 16.5q-13 5 -22 13t-9 27q0 31 15 55q32 -16 75 -28t78 -12q70 0 108.5 35.5t38.5 118.5v74q-27 -32 -68.5 -50.5
t-84.5 -18.5q-62 0 -103.5 29t-64 86t-22.5 145zM266 64q35 0 65 17.5t49 45.5q17 23 17 70v111q0 49 -21 76q-42 57 -109 57q-61 0 -90 -47t-29 -141q0 -96 27.5 -142.5t90.5 -46.5zM278 611q-27 0 -42 8t-15 47q0 32 11 44t46 12q26 0 42 -8t16 -48q0 -32 -11.5 -43.5
t-46.5 -11.5z" />
    <glyph glyph-name="Gcommaaccent" unicode="&#x122;" horiz-adv-x="646" 
d="M547 600q-94 51 -190 51q-101 0 -155.5 -71t-54.5 -219q0 -292 200 -292q75 0 118 45t43 129q0 79 -19 161h96q18 -79 18 -164q0 -119 -67.5 -184.5t-187.5 -65.5q-69 0 -124.5 22.5t-94 68t-59 116t-20.5 164.5q0 92 21.5 163t61 116t95 67.5t123.5 22.5q105 0 184 -28
q13 -4 22 -12t9 -27q0 -32 -19 -63zM330 -266l-40 22q17 27 26 59.5t9 60.5q0 32 -10 62q23 11 54 11q39 0 39 -39q0 -37 -19.5 -84.5t-58.5 -91.5z" />
    <glyph glyph-name="gcommaaccent" unicode="&#x123;" 
d="M53 252q0 88 23 145t66 86.5t105 29.5q46 0 87.5 -21t71.5 -57l15 69h65v-510q0 -79 -25.5 -131.5t-76 -80t-129.5 -27.5q-32 0 -73.5 6.5t-69.5 16.5q-13 5 -22 13t-9 27q0 31 15 55q32 -16 75 -28t78 -12q70 0 108.5 35.5t38.5 118.5v74q-27 -32 -68.5 -50.5
t-84.5 -18.5q-62 0 -103.5 29t-64 86t-22.5 145zM266 64q35 0 65 17.5t49 45.5q17 23 17 70v111q0 49 -21 76q-42 57 -109 57q-61 0 -90 -47t-29 -141q0 -96 27.5 -142.5t90.5 -46.5zM305 791l40 -22q-17 -27 -26 -59.5t-9 -60.5q0 -32 10 -62q-23 -11 -54 -11q-39 0 -39 39
q0 37 19.5 84.5t58.5 91.5z" />
    <glyph glyph-name="Hcircumflex" unicode="&#x124;" horiz-adv-x="684" 
d="M596 0h-95v335h-318v-335h-95v720h95v-303h318v303h95v-720zM496 788l-29 -29q-79 64 -124 86q-46 -22 -125 -86l-29 29q56 74 104 114q25 20 49 20t50 -20q48 -40 104 -114z" />
    <glyph glyph-name="hcircumflex" unicode="&#x125;" horiz-adv-x="572" 
d="M491 0h-91v336q0 97 -88 97q-36 0 -69 -16.5t-54 -43.5q-18 -23 -18 -55v-318h-90v750h90v-316q32 37 76.5 57.5t87.5 20.5q80 0 118 -42t38 -117v-353zM283 788l-29 -29q-79 64 -124 86q-46 -22 -125 -86l-29 29q56 74 104 114q25 20 49 20t50 -20q48 -40 104 -114z" />
    <glyph glyph-name="Hbar" unicode="&#x126;" horiz-adv-x="684" 
d="M25 550v64h63v106h95v-106h318v106h95v-106h63v-64h-63v-550h-95v335h-318v-335h-95v550h-63zM183 417h318v133h-318v-133z" />
    <glyph glyph-name="hbar" unicode="&#x127;" horiz-adv-x="572" 
d="M6 613v46h75v91h90v-91h182v-46h-182v-179q32 37 76.5 57.5t87.5 20.5q80 0 118 -42t38 -117v-353h-91v336q0 97 -88 97q-36 0 -69 -16.5t-54 -43.5q-18 -23 -18 -55v-318h-90v613h-75z" />
    <glyph glyph-name="Itilde" unicode="&#x128;" horiz-adv-x="271" 
d="M88 0v720h95v-720h-95zM-6 794l-46 15q7 27 22.5 54.5t42 43t54.5 15.5q20 0 40.5 -8.5t56 -31t51.5 -22.5q41 0 66 61l46 -16q-16 -58 -48.5 -87t-72.5 -29q-20 0 -39.5 8.5t-55.5 32t-53 23.5q-41 0 -64 -59z" />
    <glyph glyph-name="itilde" unicode="&#x129;" horiz-adv-x="252" 
d="M7 601l-46 15q12 56 40.5 84.5t62.5 28.5q19 0 37.5 -8.5t49.5 -31t45 -22.5q13 0 27 15t25 46l46 -16q-7 -28 -20.5 -56t-36 -43.5t-47.5 -15.5q-18 0 -36.5 8.5t-49.5 31.5t-46 23q-31 0 -51 -59zM171 0h-90v504h90v-504z" />
    <glyph glyph-name="Imacron" unicode="&#x12a;" horiz-adv-x="271" 
d="M-2 815v66h275v-66h-275zM88 0v720h95v-720h-95z" />
    <glyph glyph-name="imacron" unicode="&#x12b;" horiz-adv-x="252" 
d="M17 643v67h218v-67h-218zM171 0h-90v504h90v-504z" />
    <glyph glyph-name="Ibreve" unicode="&#x12c;" horiz-adv-x="271" 
d="M88 0v720h95v-720h-95zM273 930l37 -33q-20 -29 -50 -55t-63.5 -37.5t-61.5 -11.5q-42 0 -78.5 18.5t-59.5 42.5t-36 43l36 33q63 -65 138 -65q31 0 67.5 14.5t70.5 50.5z" />
    <glyph glyph-name="ibreve" unicode="&#x12d;" horiz-adv-x="252" 
d="M241 740l36 -29q-17 -32 -42.5 -60.5t-54 -42t-54.5 -13.5q-36 0 -68 20.5t-51.5 47.5t-30.5 48l36 29q50 -73 114 -73q63 0 115 73zM171 0h-90v504h90v-504z" />
    <glyph glyph-name="Iogonek" unicode="&#x12e;" horiz-adv-x="271" 
d="M88 0v720h95v-720q-101 -68 -101 -132q0 -22 13 -34t34 -12q24 0 51 11q12 -15 12 -39q0 -22 -18 -28q-24 -8 -55 -8q-51 0 -80 25.5t-29 70.5q0 39 25.5 77t70.5 69h-18z" />
    <glyph glyph-name="iogonek" unicode="&#x12f;" horiz-adv-x="252" 
d="M171 0q-88 -68 -88 -132q0 -22 13 -34t34 -12q24 0 51 11q12 -15 12 -39q0 -22 -18 -28q-24 -8 -55 -8q-51 0 -80 25.5t-29 70.5q0 79 91 146h-21v504h90v-504zM125 611q-26 0 -41 8t-15 47q0 32 11 44t45 12q32 0 45.5 -9.5t13.5 -46.5q0 -32 -12 -43.5t-47 -11.5z" />
    <glyph glyph-name="Idotaccent" unicode="&#x130;" horiz-adv-x="271" 
d="M88 0v720h95v-720h-95zM135 793q-27 0 -42 8.5t-15 47.5q0 32 11 44t46 12q26 0 42 -8t16 -48q0 -32 -11.5 -44t-46.5 -12z" />
    <glyph glyph-name="dotlessi" unicode="&#x131;" horiz-adv-x="252" 
d="M171 0h-90v504h90v-504z" />
    <glyph glyph-name="IJ" unicode="&#x132;" horiz-adv-x="571" 
d="M400 720h97v-467q0 -134 -66 -198.5t-188 -64.5q-73 0 -138 21q-40 12 -40 43q0 15 5.5 32t12.5 27q80 -40 156 -40q86 0 123.5 42t37.5 138v467zM88 220v500h95v-500h-95z" />
    <glyph glyph-name="ij" unicode="&#x133;" horiz-adv-x="502" 
d="M171 0h-90v504h90v-504zM125 611q-26 0 -41 8t-15 47q0 32 11 44t45 12q32 0 45.5 -9.5t13.5 -46.5q0 -32 -12 -43.5t-47 -11.5zM331 504h90v-414q0 -200 -102 -303q-22 -22 -42 -22q-32 0 -68 45q63 53 92.5 111t29.5 156v427zM375 611q-27 0 -42 8t-15 47q0 32 11 44
t46 12q27 0 42.5 -8t15.5 -48q0 -32 -11.5 -43.5t-46.5 -11.5z" />
    <glyph glyph-name="Jcircumflex" unicode="&#x134;" horiz-adv-x="516" 
d="M346 720h96v-467q0 -263 -239 -263q-69 0 -134 21q-40 12 -40 43q0 32 19 63q79 -44 150 -44q77 0 112.5 42.5t35.5 137.5v467zM543 788l-29 -29q-79 64 -124 86q-46 -22 -125 -86l-29 29q56 74 104 114q25 20 49 20t50 -20q48 -40 104 -114z" />
    <glyph glyph-name="jcircumflex" unicode="&#x135;" horiz-adv-x="250" 
d="M79 504h90v-414q0 -194 -106 -303q-22 -22 -42 -22q-28 0 -64 45q63 53 92.5 111t29.5 156v427zM270 604l-31 -25q-70 63 -117 87q-50 -26 -116 -87l-32 25q59 85 99 120q24 21 49 21t49 -21q44 -39 99 -120z" />
    <glyph glyph-name="Kcommaaccent" unicode="&#x136;" horiz-adv-x="617" 
d="M476 720h104q-16 -71 -57 -140.5t-91.5 -118t-92.5 -77.5q100 -61 167.5 -164t84.5 -220h-103q-45 232 -222 342q-48 -23 -83 -34v-308h-95v720h95v-345q109 47 187 137t106 208zM310 -266l-40 22q17 27 26 59.5t9 60.5q0 32 -10 62q23 11 54 11q39 0 39 -39
q0 -37 -19.5 -84.5t-58.5 -91.5z" />
    <glyph glyph-name="kcommaaccent" unicode="&#x137;" horiz-adv-x="523" 
d="M369 504h101q-15 -60 -58 -116t-103 -99q70 -49 118 -127t57 -162h-96q-3 36 -18.5 82t-48.5 92.5t-74 76.5q-13 -8 -37 -18.5t-39 -15.5v-217h-90v750h90v-470q75 36 128 94t70 130zM254 -266l-40 22q17 27 26 59.5t9 60.5q0 32 -10 62q23 11 54 11q39 0 39 -39
q0 -37 -19.5 -84.5t-58.5 -91.5z" />
    <glyph glyph-name="Lacute" unicode="&#x139;" horiz-adv-x="530" 
d="M183 720v-638h322v-82h-417v720h95zM77 759l-22 41l149 105q21 15 34 15q19 0 33.5 -20t15.5 -50z" />
    <glyph glyph-name="lacute" unicode="&#x13a;" horiz-adv-x="252" 
d="M171 0h-90v750h90v-750zM77 783l-22 41l149 105q21 15 34 15q19 0 33.5 -20t15.5 -50z" />
    <glyph glyph-name="Lcommaaccent" unicode="&#x13b;" horiz-adv-x="530" 
d="M183 720v-638h322v-82h-417v720h95zM280 -266l-40 22q17 27 26 59.5t9 60.5q0 32 -10 62q23 11 54 11q39 0 39 -39q0 -37 -19.5 -84.5t-58.5 -91.5z" />
    <glyph glyph-name="lcommaaccent" unicode="&#x13c;" horiz-adv-x="252" 
d="M171 0h-90v750h90v-750zM98 -266l-40 22q17 27 26 59.5t9 60.5q0 32 -10 62q23 11 54 11q39 0 39 -39q0 -37 -19.5 -84.5t-58.5 -91.5z" />
    <glyph glyph-name="Lcaron" unicode="&#x13d;" horiz-adv-x="530" 
d="M183 720v-638h322v-82h-417v720h95zM348 552l-48 6v192q22 11 50 11q16 0 25.5 -7t9.5 -18l-2 -12z" />
    <glyph glyph-name="lcaron" unicode="&#x13e;" horiz-adv-x="304" 
d="M171 0h-90v750h90v-750zM274 552l-48 6v192q22 11 50 11q16 0 25.5 -7t9.5 -18l-2 -12z" />
    <glyph glyph-name="Ldot" unicode="&#x13f;" horiz-adv-x="539" 
d="M408 343q-32 0 -44.5 14.5t-12.5 48.5q0 35 12.5 50t44.5 15t45.5 -14.5t13.5 -50.5q0 -34 -13.5 -48.5t-45.5 -14.5zM183 720v-638h322v-82h-417v720h95z" />
    <glyph glyph-name="ldot" unicode="&#x140;" horiz-adv-x="353" 
d="M298 322q-26 0 -37 11t-11 37t11 38t37 12t37.5 -11.5t11.5 -38.5q0 -26 -12 -37t-37 -11zM168 0h-90v750h90v-750z" />
    <glyph glyph-name="Lslash" unicode="&#x141;" horiz-adv-x="536" 
d="M189 720v-341l230 111l21 -50l-251 -121v-237h322v-82h-417v279l-85 -40l-21 49l106 51v381h95z" />
    <glyph glyph-name="lslash" unicode="&#x142;" horiz-adv-x="290" 
d="M190 0h-90v286l-86 -79v71l86 78v394h90v-335l85 80v-71l-85 -78v-346z" />
    <glyph glyph-name="Nacute" unicode="&#x143;" horiz-adv-x="696" 
d="M608 0h-72q-38 121 -103.5 245t-130 209t-119.5 138v-592h-95v720h66q107 -88 203 -220t156 -264v484h95v-720zM334 759l-22 41l149 105q21 15 34 15q19 0 33.5 -20t15.5 -50z" />
    <glyph glyph-name="nacute" unicode="&#x144;" horiz-adv-x="572" 
d="M491 0h-91v336q0 97 -88 97q-36 0 -69 -16.5t-54 -43.5q-18 -23 -18 -55v-318h-90v504h66l16 -76q32 39 79.5 61.5t92.5 22.5q80 0 118 -42t38 -117v-353zM254 569l-29 38l125 123q5 5 16.5 14.5t24.5 9.5q19 0 34.5 -18.5t20.5 -49.5z" />
    <glyph glyph-name="Ncommaaccent" unicode="&#x145;" horiz-adv-x="696" 
d="M608 0h-72q-38 121 -103.5 245t-130 209t-119.5 138v-592h-95v720h66q107 -88 203 -220t156 -264v484h95v-720zM338 -266l-40 22q17 27 26 59.5t9 60.5q0 32 -10 62q23 11 54 11q39 0 39 -39q0 -37 -19.5 -84.5t-58.5 -91.5z" />
    <glyph glyph-name="ncommaaccent" unicode="&#x146;" horiz-adv-x="572" 
d="M491 0h-91v336q0 97 -88 97q-36 0 -69 -16.5t-54 -43.5q-18 -23 -18 -55v-318h-90v504h66l16 -76q32 39 79.5 61.5t92.5 22.5q80 0 118 -42t38 -117v-353zM263 -266l-40 22q17 27 26 59.5t9 60.5q0 32 -10 62q23 11 54 11q39 0 39 -39q0 -37 -19.5 -84.5t-58.5 -91.5z
" />
    <glyph glyph-name="Ncaron" unicode="&#x147;" horiz-adv-x="696" 
d="M608 0h-72q-38 121 -103.5 245t-130 209t-119.5 138v-592h-95v720h66q107 -88 203 -220t156 -264v484h95v-720zM203 899l29 28q75 -62 125 -85q50 23 124 85l29 -28q-25 -33 -53 -64.5t-51 -49.5q-24 -20 -50 -20t-49 20q-12 10 -38.5 36t-65.5 78z" />
    <glyph glyph-name="ncaron" unicode="&#x148;" horiz-adv-x="572" 
d="M491 0h-91v336q0 97 -88 97q-36 0 -69 -16.5t-54 -43.5q-18 -23 -18 -55v-318h-90v504h66l16 -76q32 39 79.5 61.5t92.5 22.5q80 0 118 -42t38 -117v-353zM137 723l31 25q65 -60 117 -88q55 31 116 88l32 -25q-58 -85 -99 -120q-24 -21 -50 -21q-25 0 -49 21
q-22 19 -48.5 52t-49.5 68z" />
    <glyph glyph-name="Eng" unicode="&#x14a;" horiz-adv-x="690" 
d="M507 720h95v-622q0 -107 -26.5 -183.5t-79.5 -127.5q-19 -22 -42 -22q-28 0 -64 45q34 28 62 63.5t42.5 76t14.5 75.5q0 23 -9.5 58.5t-42.5 105.5q-37 79 -88.5 162.5t-100.5 142.5t-85 93v-587h-95v720h70q106 -88 199.5 -222t149.5 -266v488z" />
    <glyph glyph-name="eng" unicode="&#x14b;" horiz-adv-x="572" 
d="M400 77v259q0 97 -88 97q-36 0 -69 -16.5t-54 -43.5q-18 -23 -18 -55v-318h-90v504h66l16 -76q32 39 79.5 61.5t92.5 22.5q80 0 118 -42t38 -117v-263q0 -194 -106 -303q-22 -22 -42 -22q-28 0 -64 45q63 53 92 111t29 156z" />
    <glyph glyph-name="Omacron" unicode="&#x14c;" horiz-adv-x="686" 
d="M342 -10q-51 0 -95.5 12.5t-79.5 37.5t-60.5 64t-40.5 91.5t-18 100t-3 65.5q0 94 20.5 164.5t59 115.5t93.5 67t124 22q70 0 125.5 -22t93.5 -67t58.5 -115.5t20.5 -164.5q0 -45 -6.5 -98t-25 -101t-52.5 -87.5t-89.5 -62t-124.5 -22.5zM342 69q98 0 150 72t52 220
q0 290 -202 290q-200 0 -200 -290q0 -292 200 -292zM189 815v66h308v-66h-308z" />
    <glyph glyph-name="omacron" unicode="&#x14d;" horiz-adv-x="559" 
d="M279 -9q-75 0 -124.5 31t-75.5 88.5t-26 143.5q0 84 26 140.5t76 87.5t124 31q75 0 125 -30.5t76 -87t26 -141.5q0 -68 -17.5 -119t-48.5 -82.5t-72 -46.5t-89 -15zM279 63q70 0 101 48.5t31 142.5q0 93 -31 140.5t-101 47.5q-69 0 -100 -47.5t-31 -140.5
q0 -94 31 -142.5t100 -48.5zM125 643v67h308v-67h-308z" />
    <glyph glyph-name="Obreve" unicode="&#x14e;" horiz-adv-x="686" 
d="M342 -10q-51 0 -95.5 12.5t-79.5 37.5t-60.5 64t-40.5 91.5t-18 100t-3 65.5q0 94 20.5 164.5t59 115.5t93.5 67t124 22q70 0 125.5 -22t93.5 -67t58.5 -115.5t20.5 -164.5q0 -45 -6.5 -98t-25 -101t-52.5 -87.5t-89.5 -62t-124.5 -22.5zM342 69q98 0 150 72t52 220
q0 290 -202 290q-200 0 -200 -290q0 -292 200 -292zM481 930l37 -33q-20 -29 -50 -55t-63.5 -37.5t-61.5 -11.5q-42 0 -78.5 18.5t-59.5 42.5t-36 43l36 33q63 -65 138 -65q31 0 67.5 14.5t70.5 50.5z" />
    <glyph glyph-name="obreve" unicode="&#x14f;" horiz-adv-x="559" 
d="M279 -9q-75 0 -124.5 31t-75.5 88.5t-26 143.5q0 84 26 140.5t76 87.5t124 31q75 0 125 -30.5t76 -87t26 -141.5q0 -68 -17.5 -119t-48.5 -82.5t-72 -46.5t-89 -15zM279 63q70 0 101 48.5t31 142.5q0 93 -31 140.5t-101 47.5q-69 0 -100 -47.5t-31 -140.5
q0 -94 31 -142.5t100 -48.5zM418 749l36 -31q-20 -35 -49.5 -65t-62 -44t-62.5 -14q-50 0 -95 31t-80 92l37 31q27 -36 62 -59t76 -23q40 0 75.5 23t62.5 59z" />
    <glyph glyph-name="Ohungarumlaut" unicode="&#x150;" horiz-adv-x="686" 
d="M342 -10q-51 0 -95.5 12.5t-79.5 37.5t-60.5 64t-40.5 91.5t-18 100t-3 65.5q0 94 20.5 164.5t59 115.5t93.5 67t124 22q70 0 125.5 -22t93.5 -67t58.5 -115.5t20.5 -164.5q0 -45 -6.5 -98t-25 -101t-52.5 -87.5t-89.5 -62t-124.5 -22.5zM342 69q98 0 150 72t52 220
q0 290 -202 290q-200 0 -200 -290q0 -292 200 -292zM417 767l-46 20l56 121q12 26 33 26q15 0 31.5 -12t24.5 -28zM275 771l-48 16l36 119q9 32 34 32q15 0 29.5 -7.5t25.5 -19.5z" />
    <glyph glyph-name="ohungarumlaut" unicode="&#x151;" horiz-adv-x="559" 
d="M279 -9q-75 0 -124.5 31t-75.5 88.5t-26 143.5q0 84 26 140.5t76 87.5t124 31q75 0 125 -30.5t76 -87t26 -141.5q0 -68 -17.5 -119t-48.5 -82.5t-72 -46.5t-89 -15zM279 63q70 0 101 48.5t31 142.5q0 93 -31 140.5t-101 47.5q-69 0 -100 -47.5t-31 -140.5
q0 -94 31 -142.5t100 -48.5zM204 568l-45 18l52 152q6 16 13.5 23.5t20.5 7.5q16 0 32 -9.5t25 -23.5zM351 566l-42 25l66 147q5 12 12 19t21 7q15 0 31.5 -11.5t24.5 -27.5z" />
    <glyph glyph-name="OE" unicode="&#x152;" horiz-adv-x="944" 
d="M45 361q0 95 23 166t65.5 115.5t103 66t134.5 21.5q58 0 114 -10h417v-78h-322v-229h254v-78h-254v-257h329v-78h-424q-48 -10 -114 -10q-74 0 -134.5 22t-103 67t-65.5 116t-23 166zM378 73q60 0 107 11v552q-49 11 -107 11q-115 0 -174 -68.5t-59 -217.5
q0 -148 59 -218t174 -70z" />
    <glyph glyph-name="oe" unicode="&#x153;" horiz-adv-x="886" 
d="M276 -9q-72 0 -121.5 31t-75.5 88.5t-26 143.5q0 84 26.5 140.5t76 87.5t121.5 31q57 0 104.5 -24.5t75.5 -71.5q28 49 75.5 72.5t109.5 23.5q91 0 141 -42t50 -110q0 -77 -52 -110.5t-163 -33.5q-50 0 -116 11q5 -83 40.5 -123t115.5 -40q70 0 149 40q14 -26 14 -51
q0 -6 -3 -18t-27 -22q-29 -11 -63.5 -17t-70.5 -6q-68 0 -119.5 23.5t-80.5 73.5q-29 -48 -76.5 -72.5t-104.5 -24.5zM279 63q70 0 101 48.5t31 142.5q0 93 -31 140.5t-101 47.5q-69 0 -100 -47.5t-31 -140.5q0 -94 31 -142.5t100 -48.5zM634 445q-66 0 -97 -42t-35 -122
q62 -9 105 -9q73 0 103.5 22.5t30.5 67.5q0 39 -28 61t-79 22z" />
    <glyph glyph-name="Racute" unicode="&#x154;" horiz-adv-x="630" 
d="M592 0h-104q-38 169 -138 256q-23 20 -41 27t-38 7h-88v-290h-95v720h228q60 0 107 -11.5t80 -36t50 -64t17 -93.5q0 -31 -10 -62t-33.5 -57.5t-59.5 -46.5t-85 -31q31 -12 71 -50q51 -47 88.5 -119.5t50.5 -148.5zM472 506q0 72 -40 104t-119 32h-130v-275h111
q47 0 89.5 14.5t65.5 47.5t23 77zM275 759l-22 41l149 105q21 15 34 15q19 0 33.5 -20t15.5 -50z" />
    <glyph glyph-name="racute" unicode="&#x155;" horiz-adv-x="403" 
d="M365 422q-24 4 -51 4q-80 0 -125 -53q-8 -9 -13 -24t-5 -31v-318h-90v504h66l16 -75q31 38 80 60.5t92 22.5q21 0 30 -10.5t9 -31.5q0 -24 -9 -48zM193 569l-29 38l125 123q5 5 16.5 14.5t24.5 9.5q19 0 34.5 -18.5t20.5 -49.5z" />
    <glyph glyph-name="Rcommaaccent" unicode="&#x156;" horiz-adv-x="630" 
d="M592 0h-104q-38 169 -138 256q-23 20 -41 27t-38 7h-88v-290h-95v720h228q60 0 107 -11.5t80 -36t50 -64t17 -93.5q0 -31 -10 -62t-33.5 -57.5t-59.5 -46.5t-85 -31q31 -12 71 -50q51 -47 88.5 -119.5t50.5 -148.5zM472 506q0 72 -40 104t-119 32h-130v-275h111
q47 0 89.5 14.5t65.5 47.5t23 77zM308 -266l-40 22q17 27 26 59.5t9 60.5q0 32 -10 62q23 11 54 11q39 0 39 -39q0 -37 -19.5 -84.5t-58.5 -91.5z" />
    <glyph glyph-name="rcommaaccent" unicode="&#x157;" horiz-adv-x="403" 
d="M365 422q-24 4 -51 4q-80 0 -125 -53q-8 -9 -13 -24t-5 -31v-318h-90v504h66l16 -75q31 38 80 60.5t92 22.5q21 0 30 -10.5t9 -31.5q0 -24 -9 -48zM99 -266l-40 22q17 27 26 59.5t9 60.5q0 32 -10 62q23 11 54 11q39 0 39 -39q0 -37 -19.5 -84.5t-58.5 -91.5z" />
    <glyph glyph-name="Rcaron" unicode="&#x158;" horiz-adv-x="630" 
d="M592 0h-104q-38 169 -138 256q-23 20 -41 27t-38 7h-88v-290h-95v720h228q60 0 107 -11.5t80 -36t50 -64t17 -93.5q0 -31 -10 -62t-33.5 -57.5t-59.5 -46.5t-85 -31q31 -12 71 -50q51 -47 88.5 -119.5t50.5 -148.5zM472 506q0 72 -40 104t-119 32h-130v-275h111
q47 0 89.5 14.5t65.5 47.5t23 77zM159 899l29 28q75 -62 125 -85q50 23 124 85l29 -28q-25 -33 -53 -64.5t-51 -49.5q-24 -20 -50 -20t-49 20q-12 10 -38.5 36t-65.5 78z" />
    <glyph glyph-name="rcaron" unicode="&#x159;" horiz-adv-x="403" 
d="M365 422q-24 4 -51 4q-80 0 -125 -53q-8 -9 -13 -24t-5 -31v-318h-90v504h66l16 -75q31 38 80 60.5t92 22.5q21 0 30 -10.5t9 -31.5q0 -24 -9 -48zM74 723l31 25q65 -60 117 -88q55 31 116 88l32 -25q-58 -85 -99 -120q-24 -21 -50 -21q-25 0 -49 21q-22 19 -48.5 52
t-49.5 68z" />
    <glyph glyph-name="Sacute" unicode="&#x15a;" horiz-adv-x="571" 
d="M464 602q-85 45 -175 45q-72 0 -105 -30t-33 -80q0 -45 36 -74t118 -48q110 -26 163.5 -76t53.5 -137q0 -94 -70 -153t-190 -59q-45 0 -91.5 8t-81.5 21q-17 6 -28.5 16.5t-11.5 31.5q0 14 5.5 32t14.5 31q100 -57 197 -57q78 0 117.5 31.5t39.5 87.5q0 51 -38 83
t-131 54q-100 24 -150.5 72.5t-50.5 124.5q0 42 14.5 79t43.5 65t74.5 44t104.5 16q80 0 152 -21q42 -11 42 -44t-20 -63zM228 759l-22 41l149 105q21 15 34 15q19 0 33.5 -20t15.5 -50z" />
    <glyph glyph-name="sacute" unicode="&#x15b;" horiz-adv-x="462" 
d="M373 407q-35 18 -74 28.5t-73 10.5q-32 0 -53.5 -12.5t-29 -29t-7.5 -30.5q0 -29 24 -49.5t99 -37.5q82 -19 120 -54.5t38 -94.5q0 -50 -23.5 -82.5t-64.5 -49t-101 -16.5q-80 0 -142 20q-14 5 -25 13.5t-11 28.5q0 12 5.5 27t13.5 24q85 -43 165 -43q47 0 72 19t25 56
q0 25 -15.5 41.5t-41.5 26.5t-70 20q-82 19 -118 52.5t-36 91.5q0 36 20.5 71.5t65.5 55.5t103 20q63 0 118 -17q35 -10 35 -41q0 -13 -5.5 -27t-13.5 -22zM188 569l-29 38l125 123q5 5 16.5 14.5t24.5 9.5q19 0 34.5 -18.5t20.5 -49.5z" />
    <glyph glyph-name="Scircumflex" unicode="&#x15c;" horiz-adv-x="571" 
d="M464 602q-85 45 -175 45q-72 0 -105 -30t-33 -80q0 -45 36 -74t118 -48q110 -26 163.5 -76t53.5 -137q0 -94 -70 -153t-190 -59q-45 0 -91.5 8t-81.5 21q-17 6 -28.5 16.5t-11.5 31.5q0 14 5.5 32t14.5 31q100 -57 197 -57q78 0 117.5 31.5t39.5 87.5q0 51 -38 83
t-131 54q-100 24 -150.5 72.5t-50.5 124.5q0 42 14.5 79t43.5 65t74.5 44t104.5 16q80 0 152 -21q42 -11 42 -44t-20 -63zM440 788l-29 -29q-79 64 -124 86q-46 -22 -125 -86l-29 29q56 74 104 114q25 20 49 20t50 -20q48 -40 104 -114z" />
    <glyph glyph-name="scircumflex" unicode="&#x15d;" horiz-adv-x="462" 
d="M373 407q-35 18 -74 28.5t-73 10.5q-32 0 -53.5 -12.5t-29 -29t-7.5 -30.5q0 -29 24 -49.5t99 -37.5q82 -19 120 -54.5t38 -94.5q0 -50 -23.5 -82.5t-64.5 -49t-101 -16.5q-80 0 -142 20q-14 5 -25 13.5t-11 28.5q0 12 5.5 27t13.5 24q85 -43 165 -43q47 0 72 19t25 56
q0 25 -15.5 41.5t-41.5 26.5t-70 20q-82 19 -118 52.5t-36 91.5q0 36 20.5 71.5t65.5 55.5t103 20q63 0 118 -17q35 -10 35 -41q0 -13 -5.5 -27t-13.5 -22zM381 604l-32 -25q-66 61 -116 87q-47 -24 -117 -87l-31 25q54 80 98 120q24 21 49 21q26 0 50 -21q40 -35 99 -120z
" />
    <glyph glyph-name="Scedilla" unicode="&#x15e;" horiz-adv-x="571" 
d="M202 -155q34 -16 66 -16q27 0 44 12.5t17 34.5q0 40 -56 40q-14 0 -34 -3l-11 13l14 64q-83 3 -153 29q-17 6 -28.5 16.5t-11.5 31.5q0 14 5.5 32t14.5 31q100 -57 197 -57q78 0 117.5 31.5t39.5 87.5q0 51 -38 83t-131 54q-100 24 -150.5 72.5t-50.5 124.5q0 42 14.5 79
t43.5 65t74.5 44t104.5 16q80 0 152 -21q42 -11 42 -44t-20 -63q-85 45 -175 45q-72 0 -105 -30t-33 -80q0 -45 36 -74t118 -48q110 -26 163.5 -76t53.5 -137q0 -86 -60.5 -144t-164.5 -66l-8 -40l23 1q38 0 64.5 -20t26.5 -57q0 -46 -38 -73.5t-96 -27.5q-32 0 -62 9
q-19 6 -19 22q0 20 14 39z" />
    <glyph glyph-name="scedilla" unicode="&#x15f;" horiz-adv-x="462" 
d="M147 -155q34 -16 66 -16q27 0 44 12.5t17 34.5q0 40 -56 40q-14 0 -34 -3l-11 13l15 65q-58 4 -102 19q-14 5 -25 13.5t-11 28.5q0 12 5.5 27t13.5 24q85 -43 165 -43q47 0 72 19t25 56q0 25 -15.5 41.5t-41.5 26.5t-70 20q-82 19 -118 52.5t-36 91.5q0 36 20.5 71.5
t65.5 55.5t103 20q63 0 118 -17q35 -10 35 -41q0 -13 -5.5 -27t-13.5 -22q-35 18 -74 28.5t-73 10.5q-32 0 -53.5 -12.5t-29 -29t-7.5 -30.5q0 -29 24 -49.5t99 -37.5q82 -19 120 -54.5t38 -94.5q0 -65 -43.5 -104.5t-131.5 -43.5l-8 -38l23 1q38 0 64.5 -20t26.5 -57
q0 -46 -38 -73.5t-96 -27.5q-32 0 -62 9q-19 6 -19 22q0 20 14 39z" />
    <glyph glyph-name="Scaron" unicode="&#x160;" horiz-adv-x="571" 
d="M464 602q-85 45 -175 45q-72 0 -105 -30t-33 -80q0 -45 36 -74t118 -48q110 -26 163.5 -76t53.5 -137q0 -94 -70 -153t-190 -59q-45 0 -91.5 8t-81.5 21q-17 6 -28.5 16.5t-11.5 31.5q0 14 5.5 32t14.5 31q100 -57 197 -57q78 0 117.5 31.5t39.5 87.5q0 51 -38 83
t-131 54q-100 24 -150.5 72.5t-50.5 124.5q0 42 14.5 79t43.5 65t74.5 44t104.5 16q80 0 152 -21q42 -11 42 -44t-20 -63zM124 899l29 28q75 -62 125 -85q50 23 124 85l29 -28q-25 -33 -53 -64.5t-51 -49.5q-24 -20 -50 -20t-49 20q-12 10 -38.5 36t-65.5 78z" />
    <glyph glyph-name="scaron" unicode="&#x161;" horiz-adv-x="462" 
d="M373 407q-35 18 -74 28.5t-73 10.5q-32 0 -53.5 -12.5t-29 -29t-7.5 -30.5q0 -29 24 -49.5t99 -37.5q82 -19 120 -54.5t38 -94.5q0 -50 -23.5 -82.5t-64.5 -49t-101 -16.5q-80 0 -142 20q-14 5 -25 13.5t-11 28.5q0 12 5.5 27t13.5 24q85 -43 165 -43q47 0 72 19t25 56
q0 25 -15.5 41.5t-41.5 26.5t-70 20q-82 19 -118 52.5t-36 91.5q0 36 20.5 71.5t65.5 55.5t103 20q63 0 118 -17q35 -10 35 -41q0 -13 -5.5 -27t-13.5 -22zM80 723l31 25q65 -60 117 -88q55 31 116 88l32 -25q-58 -85 -99 -120q-24 -21 -50 -21q-25 0 -49 21
q-22 19 -48.5 52t-49.5 68z" />
    <glyph glyph-name="Tcommaaccent" unicode="&#x162;" horiz-adv-x="599" 
d="M584 638h-237v-638h-28l-13 -48l23 1q25 0 45.5 -11t29 -29.5t8.5 -36.5q0 -46 -38 -73.5t-95 -27.5q-31 0 -63 9q-19 6 -19 22q0 20 14 39q35 -16 66 -16q27 0 44 12.5t17 34.5q0 40 -49 40q-14 0 -31 -3l-11 13l20 74h-15v638h-238v82h570v-82z" />
    <glyph glyph-name="tcommaaccent" unicode="&#x163;" horiz-adv-x="386" 
d="M142 -155q34 -16 66 -16q27 0 44 12.5t17 34.5q0 40 -56 40q-14 0 -34 -3l-11 13l17 74q-80 25 -80 134v302h-73v55l76 11l20 118h68v-116h153v-68h-153v-281q0 -47 19 -67.5t57 -20.5q30 0 73 21q13 -20 13 -44q0 -15 -6 -24.5t-25 -15.5q-39 -12 -83 -12h-7l-8 -40
l23 1q38 0 64.5 -20t26.5 -57q0 -46 -38 -73.5t-96 -27.5q-32 0 -62 9q-19 6 -19 22q0 20 14 39z" />
    <glyph glyph-name="Tcaron" unicode="&#x164;" horiz-adv-x="599" 
d="M584 638h-237v-638h-95v638h-238v82h570v-82zM152 939l31 25q65 -60 117 -88q55 31 116 88l32 -25q-58 -85 -99 -120q-24 -21 -50 -21q-25 0 -49 21q-22 19 -48.5 52t-49.5 68z" />
    <glyph glyph-name="tcaron" unicode="&#x165;" horiz-adv-x="386" 
d="M32 436v55l76 11l20 118h68v-116h153v-68h-153v-281q0 -47 19 -67.5t57 -20.5q30 0 73 21q13 -20 13 -44q0 -15 -6 -24.5t-25 -15.5q-39 -12 -83 -12q-139 0 -139 142v302h-73zM323 579l-48 6v192q22 11 50 11q16 0 25.5 -7t9.5 -18l-2 -12z" />
    <glyph glyph-name="Tbar" unicode="&#x166;" horiz-adv-x="599" 
d="M584 638h-237v-260h191v-64h-191v-314h-95v314h-191v64h191v260h-238v82h570v-82z" />
    <glyph glyph-name="tbar" unicode="&#x167;" horiz-adv-x="397" 
d="M37 436v55l76 11l20 118h68v-116h153v-68h-153v-130h153v-57h-153v-94q0 -47 19 -67.5t57 -20.5q30 0 73 21q13 -20 13 -44q0 -15 -6 -24.5t-25 -15.5q-39 -12 -83 -12q-139 0 -139 142v115h-73v57h73v130h-73z" />
    <glyph glyph-name="Utilde" unicode="&#x168;" horiz-adv-x="685" 
d="M75 720h95v-421q0 -118 44 -172t128 -54q173 0 173 226v421h95v-421q0 -79 -18.5 -138.5t-53 -97t-84.5 -55.5t-112 -18t-112 18t-84.5 55.5t-52.5 97t-18 138.5v421zM204 794l-46 15q7 27 22.5 54.5t42 43t54.5 15.5q20 0 40.5 -8.5t56 -31t51.5 -22.5q41 0 66 61
l46 -16q-16 -58 -48.5 -87t-72.5 -29q-20 0 -39.5 8.5t-55.5 32t-53 23.5q-41 0 -64 -59z" />
    <glyph glyph-name="utilde" unicode="&#x169;" horiz-adv-x="569" 
d="M81 504h90v-335q0 -98 89 -98q36 0 68 16.5t52 43.5q18 23 18 56v317h90v-504h-66l-16 75q-32 -39 -78.5 -61t-91.5 -22q-79 0 -117 42.5t-38 117.5v352zM145 601l-46 15q14 56 47 84.5t72 28.5q20 0 40.5 -8.5t56 -31t51.5 -22.5q41 0 66 61l46 -16q-8 -28 -24 -56
t-42 -43.5t-55 -15.5q-20 0 -39.5 8.5t-55.5 31.5t-53 23q-41 0 -64 -59z" />
    <glyph glyph-name="Umacron" unicode="&#x16a;" horiz-adv-x="685" 
d="M75 720h95v-421q0 -118 44 -172t128 -54q173 0 173 226v421h95v-421q0 -79 -18.5 -138.5t-53 -97t-84.5 -55.5t-112 -18t-112 18t-84.5 55.5t-52.5 97t-18 138.5v421zM189 815v66h308v-66h-308z" />
    <glyph glyph-name="umacron" unicode="&#x16b;" horiz-adv-x="569" 
d="M81 504h90v-335q0 -98 89 -98q36 0 68 16.5t52 43.5q18 23 18 56v317h90v-504h-66l-16 75q-32 -39 -78.5 -61t-91.5 -22q-79 0 -117 42.5t-38 117.5v352zM134 643v67h308v-67h-308z" />
    <glyph glyph-name="Ubreve" unicode="&#x16c;" horiz-adv-x="685" 
d="M75 720h95v-421q0 -118 44 -172t128 -54q173 0 173 226v421h95v-421q0 -79 -18.5 -138.5t-53 -97t-84.5 -55.5t-112 -18t-112 18t-84.5 55.5t-52.5 97t-18 138.5v421zM479 930l37 -33q-20 -29 -50 -55t-63.5 -37.5t-61.5 -11.5q-42 0 -78.5 18.5t-59.5 42.5t-36 43l36 33
q63 -65 138 -65q31 0 67.5 14.5t70.5 50.5z" />
    <glyph glyph-name="ubreve" unicode="&#x16d;" horiz-adv-x="569" 
d="M81 504h90v-335q0 -98 89 -98q36 0 68 16.5t52 43.5q18 23 18 56v317h90v-504h-66l-16 75q-32 -39 -78.5 -61t-91.5 -22q-79 0 -117 42.5t-38 117.5v352zM423 749l36 -31q-20 -35 -49.5 -65t-62 -44t-62.5 -14q-50 0 -95 31t-80 92l37 31q27 -36 62 -59t76 -23
q40 0 75.5 23t62.5 59z" />
    <glyph glyph-name="Uring" unicode="&#x16e;" horiz-adv-x="685" 
d="M75 720h95v-421q0 -118 44 -172t128 -54q173 0 173 226v421h95v-421q0 -79 -18.5 -138.5t-53 -97t-84.5 -55.5t-112 -18t-112 18t-84.5 55.5t-52.5 97t-18 138.5v421zM332 741q-25 0 -48 10.5t-39.5 33.5t-16.5 57t18 59t42.5 34t43.5 9q30 0 56 -15.5t36.5 -40
t10.5 -46.5t-10.5 -46t-36.5 -39.5t-56 -15.5zM332 781q24 0 40.5 15.5t16.5 45.5t-16.5 46t-40.5 16t-41 -15.5t-17 -46.5q0 -30 17 -45.5t41 -15.5z" />
    <glyph glyph-name="uring" unicode="&#x16f;" horiz-adv-x="569" 
d="M81 504h90v-335q0 -98 89 -98q36 0 68 16.5t52 43.5q18 23 18 56v317h90v-504h-66l-16 75q-32 -39 -78.5 -61t-91.5 -22q-79 0 -117 42.5t-38 117.5v352zM284 568q-30 0 -56 15.5t-36.5 39.5t-10.5 46t10.5 46.5t36.5 40t56 15.5q25 0 48 -11t39.5 -33.5t16.5 -57.5
q0 -23 -10.5 -46.5t-36.5 -39t-57 -15.5zM284 608q24 0 41 15.5t17 45.5q0 31 -17 46.5t-41 15.5t-40.5 -16t-16.5 -46t16.5 -45.5t40.5 -15.5z" />
    <glyph glyph-name="Uhungarumlaut" unicode="&#x170;" horiz-adv-x="685" 
d="M75 720h95v-421q0 -118 44 -172t128 -54q173 0 173 226v421h95v-421q0 -79 -18.5 -138.5t-53 -97t-84.5 -55.5t-112 -18t-112 18t-84.5 55.5t-52.5 97t-18 138.5v421zM421 767l-46 20l56 121q12 26 33 26q15 0 31.5 -12t24.5 -28zM279 771l-48 16l36 119q9 32 34 32
q15 0 29.5 -7.5t25.5 -19.5z" />
    <glyph glyph-name="uhungarumlaut" unicode="&#x171;" horiz-adv-x="569" 
d="M81 504h90v-335q0 -98 89 -98q36 0 68 16.5t52 43.5q18 23 18 56v317h90v-504h-66l-16 75q-32 -39 -78.5 -61t-91.5 -22q-79 0 -117 42.5t-38 117.5v352zM214 568l-45 18l52 152q6 16 13.5 23.5t20.5 7.5q16 0 32 -9.5t25 -23.5zM361 566l-42 25l66 147q5 12 12 19t21 7
q15 0 31.5 -11.5t24.5 -27.5z" />
    <glyph glyph-name="Uogonek" unicode="&#x172;" horiz-adv-x="685" 
d="M75 720h95v-421q0 -118 44 -172t128 -54q173 0 173 226v421h95v-421q0 -133 -49.5 -207t-141.5 -94q-98 -62 -98 -129q0 -23 13 -35t34 -12q23 0 51 11q12 -17 12 -39t-19 -28q-22 -8 -55 -8q-51 0 -80 25.5t-29 70.5q0 36 24.5 72t65.5 64q-263 3 -263 309v421z" />
    <glyph glyph-name="uogonek" unicode="&#x173;" horiz-adv-x="569" 
d="M485 -167q12 -15 12 -39q0 -22 -18 -28q-24 -8 -55 -8q-51 0 -80 25.5t-29 70.5q0 41 28 80.5t77 71.5l-14 69q-32 -39 -78.5 -61t-91.5 -22q-79 0 -117 42.5t-38 117.5v352h90v-335q0 -98 89 -98q36 0 68 16.5t52 43.5q18 23 18 56v317h90v-504q-101 -68 -101 -132
q0 -22 13 -34t34 -12q24 0 51 11z" />
    <glyph glyph-name="Wcircumflex" unicode="&#x174;" horiz-adv-x="944" 
d="M43 720h99q13 -241 49 -390.5t97 -245.5q66 99 99.5 226t39.5 338h90q3 -135 19 -234t45 -179.5t74 -150.5q61 96 97 245t49 391h99q-28 -495 -200 -720h-83q-58 88 -93 174t-53 192q-17 -106 -52 -192.5t-92 -173.5h-83q-59 78 -100 185t-66 239.5t-35 295.5zM625 788
l-29 -29q-79 64 -124 86q-46 -22 -125 -86l-29 29q56 74 104 114q25 20 49 20t50 -20q48 -40 104 -114z" />
    <glyph glyph-name="wcircumflex" unicode="&#x175;" horiz-adv-x="754" 
d="M39 504h96q9 -276 97 -437q24 37 48.5 92t38.5 131.5t16 163.5h80q5 -238 103 -387q90 164 100 437h96q-4 -148 -39.5 -273.5t-111.5 -230.5h-78q-85 124 -110 264q-13 -74 -40.5 -138t-69.5 -126h-77q-139 192 -149 504zM524 604l-32 -25q-66 61 -116 87
q-47 -24 -117 -87l-31 25q54 80 98 120q24 21 49 21q26 0 50 -21q40 -35 99 -120z" />
    <glyph glyph-name="Ycircumflex" unicode="&#x176;" horiz-adv-x="610" 
d="M32 720h99q10 -121 52.5 -225t121.5 -180q78 73 120.5 176t53.5 229h99q-11 -137 -69 -263t-156 -211v-246h-95v246q-98 85 -156 211t-70 263zM459 788l-29 -29q-79 64 -124 86q-46 -22 -125 -86l-29 29q56 74 104 114q25 20 49 20t50 -20q48 -40 104 -114z" />
    <glyph glyph-name="ycircumflex" unicode="&#x177;" horiz-adv-x="506" 
d="M371 504h95q-8 -135 -45 -255.5t-100.5 -230t-160.5 -218.5q-31 -35 -56 -35q-39 0 -64 61q110 78 179 174q-80 90 -124 214.5t-54 289.5h96q7 -147 35 -254t86 -191q102 176 113 445zM400 604l-32 -25q-66 61 -116 87q-47 -24 -117 -87l-31 25q54 80 98 120q24 21 49 21
q26 0 50 -21q40 -35 99 -120z" />
    <glyph glyph-name="Ydieresis" unicode="&#x178;" horiz-adv-x="610" 
d="M32 720h99q10 -121 52.5 -225t121.5 -180q78 73 120.5 176t53.5 229h99q-11 -137 -69 -263t-156 -211v-246h-95v246q-98 85 -156 211t-70 263zM205 793q-24 0 -37.5 8.5t-13.5 47.5q0 32 10 44t41 12q24 0 38.5 -8t14.5 -48q0 -32 -10.5 -44t-42.5 -12zM403 793
q-24 0 -37.5 8.5t-13.5 47.5q0 32 10 44t41 12q24 0 38.5 -8t14.5 -48q0 -32 -10.5 -44t-42.5 -12z" />
    <glyph glyph-name="Zacute" unicode="&#x179;" horiz-adv-x="573" 
d="M63 638v82h470l8 -72q-50 -43 -105.5 -99t-108.5 -126t-100.5 -156t-79.5 -185h384v-82h-485l-7 64q54 168 151 318.5t218 255.5h-345zM257 759l-22 41l149 105q21 15 34 15q19 0 33.5 -20t15.5 -50z" />
    <glyph glyph-name="zacute" unicode="&#x17a;" horiz-adv-x="454" 
d="M49 430v74h361l5 -67q-42 -32 -96.5 -86.5t-107 -130.5t-82.5 -146h281v-74h-368l-6 56q28 71 75.5 146.5t100 133.5t95.5 94h-258zM193 569l-29 38l125 123q5 5 16.5 14.5t24.5 9.5q19 0 34.5 -18.5t20.5 -49.5z" />
    <glyph glyph-name="Zdotaccent" unicode="&#x17b;" horiz-adv-x="573" 
d="M63 638v82h470l8 -72q-50 -43 -105.5 -99t-108.5 -126t-100.5 -156t-79.5 -185h384v-82h-485l-7 64q54 168 151 318.5t218 255.5h-345zM296 793q-27 0 -42 8.5t-15 47.5q0 32 11 44t46 12q26 0 42 -8t16 -48q0 -32 -11.5 -44t-46.5 -12z" />
    <glyph glyph-name="zdotaccent" unicode="&#x17c;" horiz-adv-x="454" 
d="M49 430v74h361l5 -67q-42 -32 -96.5 -86.5t-107 -130.5t-82.5 -146h281v-74h-368l-6 56q28 71 75.5 146.5t100 133.5t95.5 94h-258zM230 611q-27 0 -42 8t-15 47q0 32 11 44t46 12q26 0 42 -8t16 -48q0 -32 -11.5 -43.5t-46.5 -11.5z" />
    <glyph glyph-name="Zcaron" unicode="&#x17d;" horiz-adv-x="573" 
d="M63 638v82h470l8 -72q-50 -43 -105.5 -99t-108.5 -126t-100.5 -156t-79.5 -185h384v-82h-485l-7 64q54 168 151 318.5t218 255.5h-345zM148 899l29 28q75 -62 125 -85q50 23 124 85l29 -28q-25 -33 -53 -64.5t-51 -49.5q-24 -20 -50 -20t-49 20q-12 10 -38.5 36t-65.5 78
z" />
    <glyph glyph-name="zcaron" unicode="&#x17e;" horiz-adv-x="444" 
d="M101 430v74h361l5 -67q-42 -32 -96.5 -86.5t-107 -130.5t-82.5 -146h281v-74h-368l-6 56q28 71 75.5 146.5t100 133.5t95.5 94h-258zM134 723l31 25q65 -60 117 -88q55 31 116 88l32 -25q-58 -85 -99 -120q-24 -21 -50 -21q-25 0 -49 21q-22 19 -48.5 52t-49.5 68z" />
    <glyph glyph-name="longs" unicode="&#x17f;" horiz-adv-x="265" 
d="M380 657q-56 28 -112 28q-48 0 -72.5 -26t-24.5 -74v-585h-90v592q0 78 48 122.5t136 44.5q58 0 98 -11q18 -4 24.5 -14t6.5 -25q0 -28 -14 -52z" />
    <glyph glyph-name="florin" unicode="&#x192;" horiz-adv-x="445" 
d="M420 630q-19 12 -43.5 18.5t-44.5 6.5q-36 0 -56.5 -26t-26.5 -81l-12 -99h136v-68h-144l-38 -324q-10 -86 -55.5 -133.5t-116.5 -47.5q-34 0 -65 10q-13 4 -18 11t-5 18q0 10 5.5 25.5t13.5 26.5q38 -19 69 -19q21 0 40 15t29 41.5t13 53.5l38 323h-84v55l91 11l13 106
q11 86 55.5 131t122.5 45q46 0 83 -10q25 -7 25 -32q0 -12 -7.5 -28.5t-17.5 -28.5z" />
    <glyph glyph-name="Scommaaccent" unicode="&#x218;" horiz-adv-x="571" 
d="M464 602q-85 45 -175 45q-72 0 -105 -30t-33 -80q0 -45 36 -74t118 -48q110 -26 163.5 -76t53.5 -137q0 -94 -70 -153t-190 -59q-45 0 -91.5 8t-81.5 21q-17 6 -28.5 16.5t-11.5 31.5q0 14 5.5 32t14.5 31q100 -57 197 -57q78 0 117.5 31.5t39.5 87.5q0 51 -38 83
t-131 54q-100 24 -150.5 72.5t-50.5 124.5q0 42 14.5 79t43.5 65t74.5 44t104.5 16q80 0 152 -21q42 -11 42 -44t-20 -63zM270 -266l-40 22q17 27 26 59.5t9 60.5q0 32 -10 62q23 11 54 11q39 0 39 -39q0 -37 -19.5 -84.5t-58.5 -91.5z" />
    <glyph glyph-name="scommaaccent" unicode="&#x219;" horiz-adv-x="462" 
d="M373 407q-35 18 -74 28.5t-73 10.5q-32 0 -53.5 -12.5t-29 -29t-7.5 -30.5q0 -29 24 -49.5t99 -37.5q82 -19 120 -54.5t38 -94.5q0 -50 -23.5 -82.5t-64.5 -49t-101 -16.5q-80 0 -142 20q-14 5 -25 13.5t-11 28.5q0 12 5.5 27t13.5 24q85 -43 165 -43q47 0 72 19t25 56
q0 25 -15.5 41.5t-41.5 26.5t-70 20q-82 19 -118 52.5t-36 91.5q0 36 20.5 71.5t65.5 55.5t103 20q63 0 118 -17q35 -10 35 -41q0 -13 -5.5 -27t-13.5 -22zM211 -266l-40 22q17 27 26 59.5t9 60.5q0 32 -10 62q23 11 54 11q39 0 39 -39q0 -37 -19.5 -84.5t-58.5 -91.5z" />
    <glyph glyph-name="uni021A" unicode="&#x21a;" horiz-adv-x="599" 
d="M584 638h-237v-638h-95v638h-238v82h570v-82zM269 -266l-40 22q17 27 26 59.5t9 60.5q0 32 -10 62q23 11 54 11q39 0 39 -39q0 -37 -19.5 -84.5t-58.5 -91.5z" />
    <glyph glyph-name="uni021B" unicode="&#x21b;" horiz-adv-x="386" 
d="M32 436v55l76 11l20 118h68v-116h153v-68h-153v-281q0 -47 19 -67.5t57 -20.5q30 0 73 21q13 -20 13 -44q0 -15 -6 -24.5t-25 -15.5q-39 -12 -83 -12q-139 0 -139 142v302h-73zM203 -266l-40 22q17 27 26 59.5t9 60.5q0 32 -10 62q23 11 54 11q39 0 39 -39
q0 -37 -19.5 -84.5t-58.5 -91.5z" />
    <glyph glyph-name="uni0237" unicode="&#x237;" horiz-adv-x="250" 
d="M79 504h90v-414q0 -203 -106 -303q-19 -22 -42 -22q-28 0 -64 45q63 53 92.5 111t29.5 156v427z" />
    <glyph glyph-name="circumflex" unicode="&#x2c6;" horiz-adv-x="444" 
d="M370 604l-32 -25q-66 61 -116 87q-47 -24 -117 -87l-31 25q54 80 98 120q24 21 49 21q26 0 50 -21q40 -35 99 -120z" />
    <glyph glyph-name="caron" unicode="&#x2c7;" horiz-adv-x="444" 
d="M74 723l31 25q65 -60 117 -88q55 31 116 88l32 -25q-58 -85 -99 -120q-24 -21 -50 -21q-25 0 -49 21q-22 19 -48.5 52t-49.5 68z" />
    <glyph glyph-name="breve" unicode="&#x2d8;" horiz-adv-x="432" 
d="M354 749l36 -31q-20 -35 -49.5 -65t-62 -44t-62.5 -14q-50 0 -95 31t-80 92l37 31q27 -36 62 -59t76 -23q40 0 75.5 23t62.5 59z" />
    <glyph glyph-name="dotaccent" unicode="&#x2d9;" horiz-adv-x="252" 
d="M126 611q-27 0 -42 8t-15 47q0 32 11 44t46 12q26 0 42 -8t16 -48q0 -32 -11.5 -43.5t-46.5 -11.5z" />
    <glyph glyph-name="ring" unicode="&#x2da;" horiz-adv-x="276" 
d="M155 568q-30 0 -56 15.5t-36.5 39.5t-10.5 46t10.5 46.5t36.5 40t56 15.5q25 0 48 -11t39.5 -33.5t16.5 -57.5q0 -23 -10.5 -46.5t-36.5 -39t-57 -15.5zM155 608q24 0 41 15.5t17 45.5q0 31 -17 46.5t-41 15.5t-40.5 -16t-16.5 -46t16.5 -45.5t40.5 -15.5z" />
    <glyph glyph-name="ogonek" unicode="&#x2db;" horiz-adv-x="299" 
d="M221 -167q12 -15 12 -39q0 -22 -18 -28q-24 -8 -55 -8q-51 0 -80 25.5t-29 70.5q0 43 31 84t85 75l57 -13q-101 -68 -101 -132q0 -22 13 -34t34 -12q24 0 51 11z" />
    <glyph glyph-name="tilde" unicode="&#x2dc;" horiz-adv-x="387" 
d="M50 601l-46 15q14 56 47 84.5t72 28.5q20 0 40.5 -8.5t56 -31t51.5 -22.5q41 0 66 61l46 -16q-8 -28 -24 -56t-42 -43.5t-55 -15.5q-20 0 -39.5 8.5t-55.5 31.5t-53 23q-41 0 -64 -59z" />
    <glyph glyph-name="hungarumlaut" unicode="&#x2dd;" horiz-adv-x="445" 
d="M119 568l-45 18l52 152q6 16 13.5 23.5t20.5 7.5q16 0 32 -9.5t25 -23.5zM266 566l-42 25l66 147q5 12 12 19t21 7q15 0 31.5 -11.5t24.5 -27.5z" />
    <glyph glyph-name="pi" unicode="&#x3c0;" horiz-adv-x="583" 
d="M209 0h-91v438h-92v66h531v-66h-90v-332q0 -55 44 -55l33 1v-49q-36 -8 -59 -8q-33 0 -59 13.5t-37.5 37t-11.5 50.5v342h-168v-438z" />
    <glyph glyph-name="Wgrave" unicode="&#x1e80;" horiz-adv-x="944" 
d="M43 720h99q13 -241 49 -390.5t97 -245.5q66 99 99.5 226t39.5 338h90q3 -135 19 -234t45 -179.5t74 -150.5q61 96 97 245t49 391h99q-28 -495 -200 -720h-83q-58 88 -93 174t-53 192q-17 -106 -52 -192.5t-92 -173.5h-83q-59 78 -100 185t-66 239.5t-35 295.5zM520 800
l-22 -41l-210 91q1 30 15.5 50t33.5 20q13 0 34 -15z" />
    <glyph glyph-name="wgrave" unicode="&#x1e81;" horiz-adv-x="754" 
d="M39 504h96q9 -276 97 -437q24 37 48.5 92t38.5 131.5t16 163.5h80q5 -238 103 -387q90 164 100 437h96q-4 -148 -39.5 -273.5t-111.5 -230.5h-78q-85 124 -110 264q-13 -74 -40.5 -138t-69.5 -126h-77q-139 192 -149 504zM425 607l-28 -38l-192 117q5 31 20 49.5t34 18.5
q16 0 41 -24z" />
    <glyph glyph-name="Wacute" unicode="&#x1e82;" horiz-adv-x="944" 
d="M43 720h99q13 -241 49 -390.5t97 -245.5q66 99 99.5 226t39.5 338h90q3 -135 19 -234t45 -179.5t74 -150.5q61 96 97 245t49 391h99q-28 -495 -200 -720h-83q-58 88 -93 174t-53 192q-17 -106 -52 -192.5t-92 -173.5h-83q-59 78 -100 185t-66 239.5t-35 295.5zM429 759
l-22 41l149 105q21 15 34 15q19 0 33.5 -20t15.5 -50z" />
    <glyph glyph-name="wacute" unicode="&#x1e83;" horiz-adv-x="754" 
d="M39 504h96q9 -276 97 -437q24 37 48.5 92t38.5 131.5t16 163.5h80q5 -238 103 -387q90 164 100 437h96q-4 -148 -39.5 -273.5t-111.5 -230.5h-78q-85 124 -110 264q-13 -74 -40.5 -138t-69.5 -126h-77q-139 192 -149 504zM348 569l-29 38l125 123q5 5 16.5 14.5t24.5 9.5
q19 0 34.5 -18.5t20.5 -49.5z" />
    <glyph glyph-name="Wdieresis" unicode="&#x1e84;" horiz-adv-x="944" 
d="M43 720h99q13 -241 49 -390.5t97 -245.5q66 99 99.5 226t39.5 338h90q3 -135 19 -234t45 -179.5t74 -150.5q61 96 97 245t49 391h99q-28 -495 -200 -720h-83q-58 88 -93 174t-53 192q-17 -106 -52 -192.5t-92 -173.5h-83q-59 78 -100 185t-66 239.5t-35 295.5zM372 793
q-24 0 -37.5 8.5t-13.5 47.5q0 32 10 44t41 12q24 0 38.5 -8t14.5 -48q0 -32 -10.5 -44t-42.5 -12zM570 793q-24 0 -37.5 8.5t-13.5 47.5q0 32 10 44t41 12q24 0 38.5 -8t14.5 -48q0 -32 -10.5 -44t-42.5 -12z" />
    <glyph glyph-name="wdieresis" unicode="&#x1e85;" horiz-adv-x="754" 
d="M39 504h96q9 -276 97 -437q24 37 48.5 92t38.5 131.5t16 163.5h80q5 -238 103 -387q90 164 100 437h96q-4 -148 -39.5 -273.5t-111.5 -230.5h-78q-85 124 -110 264q-13 -74 -40.5 -138t-69.5 -126h-77q-139 192 -149 504zM277 611q-24 0 -38 8t-14 47q0 32 10.5 44
t41.5 12q24 0 38 -8t14 -48q0 -24 -7 -39.5t-45 -15.5zM475 611q-24 0 -38 8t-14 47q0 32 10.5 44t41.5 12q24 0 38 -8t14 -48q0 -24 -7 -39.5t-45 -15.5z" />
    <glyph glyph-name="uni1E9E" unicode="&#x1e9e;" horiz-adv-x="723" 
d="M625 609l-151 -172q83 -38 127 -71t66.5 -73.5t22.5 -94.5q0 -44 -16.5 -82.5t-48 -66.5t-77 -43.5t-99.5 -15.5q-94 0 -166 26q-17 6 -28.5 16t-11.5 32q0 14 5.5 32t14.5 31q98 -53 179 -53q71 0 110.5 34t39.5 92q0 32 -15 61t-61 61t-164 82l161 187q-51 60 -160 60
q-87 0 -135 -46t-48 -126v-479h-95v482q0 114 75.5 181t205.5 67q89 0 157.5 -31.5t111.5 -89.5z" />
    <glyph glyph-name="Ygrave" unicode="&#x1ef2;" horiz-adv-x="610" 
d="M32 720h99q10 -121 52.5 -225t121.5 -180q78 73 120.5 176t53.5 229h99q-11 -137 -69 -263t-156 -211v-246h-95v246q-98 85 -156 211t-70 263zM350 800l-22 -41l-210 91q1 30 15.5 50t33.5 20q13 0 34 -15z" />
    <glyph glyph-name="ygrave" unicode="&#x1ef3;" horiz-adv-x="506" 
d="M371 504h95q-8 -135 -45 -255.5t-100.5 -230t-160.5 -218.5q-31 -35 -56 -35q-39 0 -64 61q110 78 179 174q-80 90 -124 214.5t-54 289.5h96q7 -147 35 -254t86 -191q102 176 113 445zM293 607l-28 -38l-192 117q5 31 20 49.5t34 18.5q16 0 41 -24z" />
    <glyph glyph-name="uni2009" unicode="&#x2009;" horiz-adv-x="44" 
 />
    <glyph glyph-name="endash" unicode="&#x2013;" horiz-adv-x="531" 
d="M47 236v73h436v-73h-436z" />
    <glyph glyph-name="emdash" unicode="&#x2014;" horiz-adv-x="1049" 
d="M47 236v73h954v-73h-954z" />
    <glyph glyph-name="quoteleft" unicode="&#x2018;" horiz-adv-x="196" 
d="M118 742l41 -25q-42 -85 -42 -158q0 -36 11 -72q-32 -14 -64 -14q-17 0 -29.5 9.5t-12.5 41.5q0 93 96 218z" />
    <glyph glyph-name="quoteright" unicode="&#x2019;" horiz-adv-x="196" 
d="M68 470l-41 25q42 86 42 158q0 36 -11 72q32 14 64 14q17 0 29.5 -9.5t12.5 -41.5q0 -93 -96 -218z" />
    <glyph glyph-name="quotesinglbase" unicode="&#x201a;" horiz-adv-x="196" 
d="M68 -148l-41 25q42 86 42 158q0 36 -11 72q32 14 64 14q17 0 29.5 -9.5t12.5 -41.5q0 -93 -96 -218z" />
    <glyph glyph-name="quotedblleft" unicode="&#x201c;" horiz-adv-x="345" 
d="M271 742l37 -22q-42 -85 -42 -158q0 -36 11 -72q-32 -14 -61 -14q-22 0 -31 12t-9 36q0 92 95 218zM117 742l37 -22q-42 -85 -42 -158q0 -36 11 -72q-32 -14 -61 -14q-22 0 -31 12t-9 36q0 92 95 218z" />
    <glyph glyph-name="quotedblright" unicode="&#x201d;" horiz-adv-x="345" 
d="M64 473l-37 22q42 86 42 158q0 36 -11 72q32 14 61 14q22 0 31 -12t9 -36q0 -92 -95 -218zM218 473l-37 22q42 86 42 158q0 36 -11 72q32 14 61 14q22 0 31 -12t9 -36q0 -92 -95 -218z" />
    <glyph glyph-name="quotedblbase" unicode="&#x201e;" horiz-adv-x="345" 
d="M64 -145l-37 22q42 86 42 158q0 36 -11 72q32 14 61 14q22 0 31 -12t9 -36q0 -92 -95 -218zM218 -145l-37 22q42 86 42 158q0 36 -11 72q32 14 61 14q22 0 31 -12t9 -36q0 -92 -95 -218z" />
    <glyph glyph-name="dagger" unicode="&#x2020;" horiz-adv-x="374" 
d="M26 447v70h116v203h89v-203h116v-70h-116q-2 -150 -11 -557h-66q-10 276 -11 557h-117z" />
    <glyph glyph-name="daggerdbl" unicode="&#x2021;" horiz-adv-x="374" 
d="M26 447v70h116v203h89v-203h116v-70h-116l-5 -284h121v-70h-122l-5 -203h-66l-6 203h-122v70h121l-4 284h-117z" />
    <glyph glyph-name="bullet" unicode="&#x2022;" horiz-adv-x="347" 
d="M173 240q-45 0 -65.5 21.5t-20.5 70.5t20.5 70.5t65.5 21.5q46 0 66.5 -21.5t20.5 -70.5t-20.5 -70.5t-66.5 -21.5z" />
    <glyph glyph-name="ellipsis" unicode="&#x2026;" horiz-adv-x="649" 
d="M112 -7q-24 0 -39.5 10.5t-15.5 53.5q0 33 12 48.5t43 15.5t43.5 -14.5t12.5 -49.5t-12.5 -49.5t-43.5 -14.5zM324 -7q-24 0 -39.5 10.5t-15.5 53.5q0 33 12 48.5t43 15.5t43.5 -14.5t12.5 -49.5t-12.5 -49.5t-43.5 -14.5zM536 -7q-23 0 -39 10.5t-16 53.5q0 33 12 48.5
t43 15.5t43.5 -14.5t12.5 -49.5t-12.5 -49.5t-43.5 -14.5z" />
    <glyph glyph-name="perthousand" unicode="&#x2030;" horiz-adv-x="1129" 
d="M185 422q40 0 66 34t26 90q0 27 -8.5 56.5t-31 48.5t-52.5 19q-19 0 -40.5 -11t-36.5 -41t-15 -72q0 -56 26 -90t66 -34zM185 363q-52 0 -89 24.5t-56.5 64.5t-19.5 94q0 86 47 135t118 49q34 0 60 -10.5t47.5 -29t39 -54.5t17.5 -90q0 -32 -8.5 -64.5t-28.5 -58.5
t-52 -43t-75 -17zM592 49q40 0 66 34t26 90q0 57 -26 91t-66 34t-66 -34t-26 -91q0 -56 26 -90t66 -34zM592 -10q-71 0 -118 49t-47 134q0 86 47 135t118 49q34 0 60 -10.5t47.5 -29t39 -54.5t17.5 -90q0 -53 -19 -93t-56 -65t-89 -25zM178 0h-76l498 720h78zM952 49
q40 0 66 34t26 90q0 57 -26 91t-66 34t-66 -34t-26 -91q0 -56 26 -90t66 -34zM952 -10q-52 0 -89 25t-56 65t-19 93q0 32 8.5 64.5t28.5 59t52 43.5t75 17q52 0 89 -25t56.5 -65t19.5 -94q0 -53 -21.5 -97t-61 -65t-82.5 -21z" />
    <glyph glyph-name="guilsinglleft" unicode="&#x2039;" horiz-adv-x="320" 
d="M285 49l-38 -32q-136 110 -202 216v38q68 109 202 216l38 -31q-105 -114 -145 -204q39 -89 145 -203z" />
    <glyph glyph-name="guilsinglright" unicode="&#x203a;" horiz-adv-x="320" 
d="M74 17l-39 32q105 111 145 203q-41 94 -145 204l39 31q134 -108 201 -216v-38q-64 -105 -201 -216z" />
    <glyph glyph-name="fraction" unicode="&#x2044;" horiz-adv-x="145" 
d="M-107 0h-73l431 720h74z" />
    <glyph glyph-name="uni2070" unicode="&#x2070;" horiz-adv-x="386" 
d="M193 501q44 0 63 34t19 101q0 68 -19 102.5t-63 34.5t-63 -34.5t-19 -102.5q0 -67 19 -101t63 -34zM193 446q-53 0 -87 22t-51.5 63.5t-17.5 104.5q0 51 10 83.5t26.5 55t46 37.5t73.5 15q25 0 51.5 -7t49.5 -26t39 -57t16 -101t-17.5 -104.5t-51.5 -63.5t-87 -22z" />
    <glyph glyph-name="uni2074" unicode="&#x2074;" horiz-adv-x="360" 
d="M275 449h-73v80h-178l-11 30q19 73 77.5 151.5t120.5 113.5h64v-243h59v-52h-59v-80zM202 765q-43 -34 -79.5 -84.5t-54.5 -99.5h134v184z" />
    <glyph glyph-name="uni2075" unicode="&#x2075;" horiz-adv-x="342" 
d="M48 523q45 -24 97 -24q39 0 62.5 17.5t23.5 54.5q0 32 -23 49t-58 17q-39 0 -76 -10l-23 18l12 181h221v-55h-165l-7 -98q38 9 67 9q57 0 94 -29t37 -82q0 -46 -25.5 -76t-62.5 -40.5t-67 -10.5q-53 0 -98 15q-21 7 -21 27q0 18 12 37z" />
    <glyph glyph-name="uni2076" unicode="&#x2076;" horiz-adv-x="365" 
d="M37 621q0 39 10 77.5t33 67.5t57 46t76 17q43 0 72 -10q18 -6 18 -24t-12 -37q-32 19 -76 19q-22 0 -47 -10t-42 -42t-17 -87q14 20 43.5 33.5t60.5 13.5q52 0 88.5 -29t36.5 -85q0 -43 -23.5 -73.5t-59 -42t-65.5 -11.5q-67 0 -110 45t-43 132zM267 568q0 37 -20 55
t-52 18q-22 0 -43 -10.5t-31 -24.5q-10 -13 -10 -25q0 -21 11 -44t30.5 -33.5t38.5 -10.5q34 0 55 21t21 54z" />
    <glyph glyph-name="uni2077" unicode="&#x2077;" horiz-adv-x="294" 
d="M10 764v60h269l8 -34q-38 -39 -70.5 -102t-47 -127t-15.5 -112h-74q3 83 38 167t88 148h-196z" />
    <glyph glyph-name="uni2078" unicode="&#x2078;" horiz-adv-x="389" 
d="M195 830q61 0 100.5 -25.5t39.5 -70.5q0 -31 -20 -54.5t-49 -32.5q24 -7 44.5 -23.5t29 -36t8.5 -36.5q0 -52 -41.5 -80t-111.5 -28q-71 0 -112.5 28t-41.5 80q0 17 8.5 36.5t29 36t44.5 23.5q-29 9 -49 32.5t-20 54.5q0 45 39.5 70.5t101.5 25.5zM274 552
q0 30 -23.5 50.5t-55.5 20.5q-33 0 -57 -20.5t-24 -50.5t22.5 -47t58.5 -17t57.5 17t21.5 47zM124 731q0 -26 19 -44t52 -18q32 0 51 18t19 44t-19 40.5t-51 14.5q-33 0 -52 -14.5t-19 -40.5z" />
    <glyph glyph-name="uni2079" unicode="&#x2079;" horiz-adv-x="369" 
d="M332 652q0 -64 -22.5 -110t-63 -72t-94.5 -26q-43 0 -72 10q-17 6 -17 24q0 20 11 36q33 -18 77 -18q21 0 47 10t44 42t18 87q-14 -20 -43 -33.5t-60 -13.5q-38 0 -67 15t-44 39.5t-15 60.5q0 42 23.5 72.5t59 42t65.5 11.5q49 0 83 -22.5t52 -61t18 -93.5zM102 704
q0 -36 20 -54t52 -18q21 0 42.5 9.5t31.5 24.5q10 13 10 26q0 21 -11 43.5t-30.5 33t-38.5 10.5q-34 0 -55 -21t-21 -54z" />
    <glyph glyph-name="uni2080" unicode="&#x2080;" horiz-adv-x="386" 
d="M193 -53q44 0 63 34t19 101q0 68 -19 102.5t-63 34.5t-63 -34.5t-19 -102.5q0 -67 19 -101t63 -34zM193 -108q-53 0 -87 22t-51.5 63.5t-17.5 104.5q0 51 10 83.5t26.5 55t46 37.5t73.5 15q25 0 51.5 -7t49.5 -26t39 -57t16 -101t-17.5 -104.5t-51.5 -63.5t-87 -22z" />
    <glyph glyph-name="uni2081" unicode="&#x2081;" horiz-adv-x="302" 
d="M221 -106h-77v326q-25 -2 -55 -14t-54 -29q-5 6 -10 21.5t-5 25.5q0 20 20 28q21 9 55.5 15t61.5 6q32 0 64 -6v-373z" />
    <glyph glyph-name="uni2082" unicode="&#x2082;" horiz-adv-x="335" 
d="M291 -105h-256l-5 35q117 122 148.5 166t31.5 76q0 22 -17.5 34.5t-49.5 12.5q-46 0 -96 -26q-11 20 -11 41q0 20 20 26q50 16 102 16q61 0 96.5 -24.5t35.5 -64.5t-34 -90t-136 -142h171v-60z" />
    <glyph glyph-name="uni2083" unicode="&#x2083;" horiz-adv-x="342" 
d="M41 -30q44 -24 98 -24q37 0 59.5 15t22.5 44t-23 45t-75 16h-27l-5 47h19q49 0 76 18.5t27 45.5q0 18 -17.5 31.5t-48.5 13.5q-46 0 -95 -26q-12 18 -12 38q0 19 21 26q48 16 97 16q58 0 93 -24.5t35 -62.5q0 -35 -22.5 -61t-57.5 -35q41 -8 67 -32.5t26 -62.5
q0 -52 -43 -80.5t-106 -28.5q-51 0 -99 16q-21 7 -21 27q0 19 11 38z" />
    <glyph glyph-name="uni2084" unicode="&#x2084;" horiz-adv-x="360" 
d="M275 -105h-73v80h-178l-11 30q19 73 77.5 151.5t120.5 113.5h64v-243h59v-52h-59v-80zM202 211q-43 -34 -79.5 -84.5t-54.5 -99.5h134v184z" />
    <glyph glyph-name="uni2085" unicode="&#x2085;" horiz-adv-x="342" 
d="M48 -31q45 -24 97 -24q39 0 62.5 17.5t23.5 54.5q0 32 -23 49t-58 17q-39 0 -76 -10l-23 18l12 181h221v-55h-165l-7 -98q38 9 67 9q57 0 94 -29t37 -82q0 -46 -25.5 -76t-62.5 -40.5t-67 -10.5q-53 0 -98 15q-21 7 -21 27q0 18 12 37z" />
    <glyph glyph-name="uni2086" unicode="&#x2086;" horiz-adv-x="365" 
d="M37 67q0 39 10 77.5t33 67.5t57 46t76 17q43 0 72 -10q18 -6 18 -24t-12 -37q-32 19 -76 19q-22 0 -47 -10t-42 -42t-17 -87q14 20 43.5 33.5t60.5 13.5q52 0 88.5 -29t36.5 -85q0 -43 -23.5 -73.5t-59 -42t-65.5 -11.5q-67 0 -110 45t-43 132zM267 14q0 37 -20 55
t-52 18q-22 0 -43 -10.5t-31 -24.5q-10 -13 -10 -25q0 -21 11 -44t30.5 -33.5t38.5 -10.5q34 0 55 21t21 54z" />
    <glyph glyph-name="uni2087" unicode="&#x2087;" horiz-adv-x="294" 
d="M10 210v60h269l8 -34q-38 -39 -70.5 -102t-47 -127t-15.5 -112h-74q3 83 38 167t88 148h-196z" />
    <glyph glyph-name="uni2088" unicode="&#x2088;" horiz-adv-x="389" 
d="M195 276q61 0 100.5 -25.5t39.5 -70.5q0 -31 -20 -54.5t-49 -32.5q24 -7 44.5 -23.5t29 -36t8.5 -36.5q0 -52 -41.5 -80t-111.5 -28q-71 0 -112.5 28t-41.5 80q0 17 8.5 36.5t29 36t44.5 23.5q-29 9 -49 32.5t-20 54.5q0 45 39.5 70.5t101.5 25.5zM274 -2
q0 30 -23.5 50.5t-55.5 20.5q-33 0 -57 -20.5t-24 -50.5t22.5 -47t58.5 -17t57.5 17t21.5 47zM124 177q0 -26 19 -44t52 -18q32 0 51 18t19 44t-19 40.5t-51 14.5q-33 0 -52 -14.5t-19 -40.5z" />
    <glyph glyph-name="uni2089" unicode="&#x2089;" horiz-adv-x="369" 
d="M332 98q0 -64 -22.5 -110t-63 -72t-94.5 -26q-43 0 -72 10q-17 6 -17 24q0 20 11 36q33 -18 77 -18q21 0 47 10t44 42t18 87q-14 -20 -43 -33.5t-60 -13.5q-38 0 -67 15t-44 39.5t-15 60.5q0 42 23.5 72.5t59 42t65.5 11.5q49 0 83 -22.5t52 -61t18 -93.5zM102 150
q0 -36 20 -54t52 -18q21 0 42.5 9.5t31.5 24.5q10 13 10 26q0 21 -11 43.5t-30.5 33t-38.5 10.5q-34 0 -55 -21t-21 -54z" />
    <glyph glyph-name="Euro" unicode="&#x20ac;" horiz-adv-x="580" 
d="M513 603q-79 43 -162 43q-148 0 -178 -181h275l-14 -61h-267l-2 -43l2 -49h246l-15 -61h-224q31 -177 177 -177q41 0 87 12.5t84 33.5q20 -30 20 -63q0 -16 -9.5 -27t-32.5 -17q-79 -23 -156 -23q-110 0 -178.5 64t-88.5 197h-71v61h65l-1 49l1 43h-65v61h70
q19 135 89 200t181 65q77 0 145 -20q42 -12 42 -44q0 -33 -20 -63z" />
    <glyph glyph-name="trademark" unicode="&#x2122;" horiz-adv-x="776" 
d="M555 438h-43q-11 56 -33.5 114t-54.5 105q-12 -65 -20 -148t-8 -149h-70q0 88 11 185.5t32 178.5h63q29 -36 57 -88.5t44 -96.5q16 45 44 97.5t58 87.5h63q15 -60 29 -156t14 -208h-70q0 72 -8 153t-20 143q-32 -46 -55 -104t-33 -114zM305 668h-101v-308h-70v308h-101
v56h272v-56z" />
    <glyph glyph-name="uni2126" unicode="&#x2126;" horiz-adv-x="703" 
d="M67 0v82h120q-43 40 -75 97.5t-45 116t-13 111.5q0 153 79.5 238t218.5 85q68 0 123.5 -21.5t94 -63t59 -102t20.5 -136.5q0 -100 -37 -185t-97 -140h121v-82h-218v71q43 32 75 88t45.5 114t13.5 109q0 133 -52 201t-148 68q-97 0 -149 -68t-52 -201q0 -51 13.5 -109
t45.5 -114t75 -88v-71h-218z" />
    <glyph glyph-name="onethird" unicode="&#x2153;" horiz-adv-x="788" 
d="M221 346h-77v326q-25 -2 -55 -14t-54 -29q-5 6 -10 21.5t-5 25.5q0 20 20 28q21 9 55.5 15t61.5 6q32 0 64 -6v-373zM195 0h-73l431 720h74zM487 73q44 -24 98 -24q37 0 59.5 15t22.5 44t-23 45t-75 16h-27l-5 47h19q49 0 76 18.5t27 45.5q0 18 -17.5 31.5t-48.5 13.5
q-46 0 -95 -26q-12 18 -12 38q0 19 21 26q48 16 97 16q58 0 93 -24.5t35 -62.5q0 -35 -22.5 -61t-57.5 -35q41 -8 67 -32.5t26 -62.5q0 -52 -43 -80.5t-106 -28.5q-51 0 -99 16q-21 7 -21 27q0 19 11 38z" />
    <glyph glyph-name="twothirds" unicode="&#x2154;" horiz-adv-x="821" 
d="M291 349h-256l-5 35q117 122 148.5 166t31.5 76q0 22 -17.5 34.5t-49.5 12.5q-46 0 -96 -26q-11 20 -11 41q0 20 20 26q50 16 102 16q61 0 96.5 -24.5t35.5 -64.5t-34 -90t-136 -142h171v-60zM228 0h-73l431 720h74zM520 73q44 -24 98 -24q37 0 59.5 15t22.5 44t-23 45
t-75 16h-27l-5 47h19q49 0 76 18.5t27 45.5q0 18 -17.5 31.5t-48.5 13.5q-46 0 -95 -26q-12 18 -12 38q0 19 21 26q48 16 97 16q58 0 93 -24.5t35 -62.5q0 -35 -22.5 -61t-57.5 -35q41 -8 67 -32.5t26 -62.5q0 -52 -43 -80.5t-106 -28.5q-51 0 -99 16q-21 7 -21 27
q0 19 11 38z" />
    <glyph glyph-name="oneeighth" unicode="&#x215b;" horiz-adv-x="835" 
d="M221 346h-77v326q-25 -2 -55 -14t-54 -29q-5 6 -10 21.5t-5 25.5q0 20 20 28q21 9 55.5 15t61.5 6q32 0 64 -6v-373zM195 0h-73l431 720h74zM641 379q61 0 100.5 -25.5t39.5 -70.5q0 -31 -20 -54.5t-49 -32.5q24 -7 44.5 -23.5t29 -36t8.5 -36.5q0 -52 -41.5 -80
t-111.5 -28q-71 0 -112.5 28t-41.5 80q0 17 8.5 36.5t29 36t44.5 23.5q-29 9 -49 32.5t-20 54.5q0 45 39.5 70.5t101.5 25.5zM720 101q0 30 -23.5 50.5t-55.5 20.5q-33 0 -57 -20.5t-24 -50.5t22.5 -47t58.5 -17t57.5 17t21.5 47zM570 280q0 -26 19 -44t52 -18q32 0 51 18
t19 44t-19 40.5t-51 14.5q-33 0 -52 -14.5t-19 -40.5z" />
    <glyph glyph-name="threeeighths" unicode="&#x215c;" horiz-adv-x="875" 
d="M41 424q44 -24 98 -24q37 0 59.5 15t22.5 44t-23 45t-75 16h-27l-5 47h19q49 0 76 18.5t27 45.5q0 18 -17.5 31.5t-48.5 13.5q-46 0 -95 -26q-12 18 -12 38q0 19 21 26q48 16 97 16q58 0 93 -24.5t35 -62.5q0 -35 -22.5 -61t-57.5 -35q41 -8 67 -32.5t26 -62.5
q0 -52 -43 -80.5t-106 -28.5q-51 0 -99 16q-21 7 -21 27q0 19 11 38zM235 0h-73l431 720h74zM681 379q61 0 100.5 -25.5t39.5 -70.5q0 -31 -20 -54.5t-49 -32.5q24 -7 44.5 -23.5t29 -36t8.5 -36.5q0 -52 -41.5 -80t-111.5 -28q-71 0 -112.5 28t-41.5 80q0 17 8.5 36.5
t29 36t44.5 23.5q-29 9 -49 32.5t-20 54.5q0 45 39.5 70.5t101.5 25.5zM760 101q0 30 -23.5 50.5t-55.5 20.5q-33 0 -57 -20.5t-24 -50.5t22.5 -47t58.5 -17t57.5 17t21.5 47zM610 280q0 -26 19 -44t52 -18q32 0 51 18t19 44t-19 40.5t-51 14.5q-33 0 -52 -14.5t-19 -40.5z
" />
    <glyph glyph-name="fiveeighths" unicode="&#x215d;" horiz-adv-x="876" 
d="M48 423q45 -24 97 -24q39 0 62.5 17.5t23.5 54.5q0 32 -23 49t-58 17q-39 0 -76 -10l-23 18l12 181h221v-55h-165l-7 -98q38 9 67 9q57 0 94 -29t37 -82q0 -46 -25.5 -76t-62.5 -40.5t-67 -10.5q-53 0 -98 15q-21 7 -21 27q0 18 12 37zM235 0h-73l431 720h74zM682 379
q61 0 100.5 -25.5t39.5 -70.5q0 -31 -20 -54.5t-49 -32.5q24 -7 44.5 -23.5t29 -36t8.5 -36.5q0 -52 -41.5 -80t-111.5 -28q-71 0 -112.5 28t-41.5 80q0 17 8.5 36.5t29 36t44.5 23.5q-29 9 -49 32.5t-20 54.5q0 45 39.5 70.5t101.5 25.5zM761 101q0 30 -23.5 50.5
t-55.5 20.5q-33 0 -57 -20.5t-24 -50.5t22.5 -47t58.5 -17t57.5 17t21.5 47zM611 280q0 -26 19 -44t52 -18q32 0 51 18t19 44t-19 40.5t-51 14.5q-33 0 -52 -14.5t-19 -40.5z" />
    <glyph glyph-name="seveneighths" unicode="&#x215e;" horiz-adv-x="803" 
d="M10 664v60h269l8 -34q-38 -39 -70.5 -102t-47 -127t-15.5 -112h-74q3 83 38 167t88 148h-196zM163 0h-73l431 720h74zM610 379q61 0 100.5 -25.5t39.5 -70.5q0 -31 -20 -54.5t-49 -32.5q24 -7 44.5 -23.5t29 -36t8.5 -36.5q0 -52 -41.5 -80t-111.5 -28q-71 0 -112.5 28
t-41.5 80q0 17 8.5 36.5t29 36t44.5 23.5q-29 9 -49 32.5t-20 54.5q0 45 39.5 70.5t101.5 25.5zM689 101q0 30 -23.5 50.5t-55.5 20.5q-33 0 -57 -20.5t-24 -50.5t22.5 -47t58.5 -17t57.5 17t21.5 47zM539 280q0 -26 19 -44t52 -18q32 0 51 18t19 44t-19 40.5t-51 14.5
q-33 0 -52 -14.5t-19 -40.5z" />
    <glyph glyph-name="arrowleft" unicode="&#x2190;" horiz-adv-x="833" 
d="M763 408v-97l-591 13q42 -66 125 -128t193 -107l-48 -73q-125 55 -230.5 151.5t-149.5 192.5q44 96 149.5 192.5t230.5 151.5l48 -73q-99 -40 -185.5 -101t-133.5 -137z" />
    <glyph glyph-name="arrowup" unicode="&#x2191;" horiz-adv-x="833" 
d="M468 0h-102l14 624q-64 -43 -123.5 -129.5t-103.5 -202.5l-74 48q53 129 147.5 238t189.5 155q95 -46 190 -155t148 -238l-74 -48q-21 55 -55 120t-79.5 121.5t-91.5 88.5z" />
    <glyph glyph-name="arrowright" unicode="&#x2192;" horiz-adv-x="833" 
d="M62 312v97l591 -14q-31 48 -85 96t-117 83t-116 57l48 73q125 -55 231 -151.5t149 -192.5q-43 -96 -149 -192.5t-231 -151.5l-48 73q112 46 195 108.5t124 128.5z" />
    <glyph glyph-name="arrowdown" unicode="&#x2193;" horiz-adv-x="833" 
d="M366 720h102l-14 -623q64 45 122.5 130t103.5 201l74 -48q-53 -129 -148 -238t-190 -155q-95 46 -189.5 155t-147.5 238l74 48q21 -55 54.5 -121t79.5 -123t93 -89z" />
    <glyph glyph-name="uni2196" unicode="&#x2196;" horiz-adv-x="833" 
d="M685 151l-69 -69l-408 427q-10 -47 -10 -92q0 -65 17.5 -142t51.5 -157l-86 -17q-28 72 -42.5 153.5t-14.5 157.5q0 51 7.5 104.5t23.5 96.5q85 32 203 32q76 0 157 -15t152 -43l-17 -85q-164 67 -299 67q-54 0 -94 -10z" />
    <glyph glyph-name="uni2197" unicode="&#x2197;" horiz-adv-x="833" 
d="M198 82l-68 69l427 408q-41 10 -94 10q-134 0 -299 -67l-17 85q71 28 152.5 43t157.5 15q117 0 202 -32q32 -85 32 -202q0 -76 -15 -157.5t-43 -152.5l-85 17q68 164 68 299q0 53 -10 93z" />
    <glyph glyph-name="uni2198" unicode="&#x2198;" horiz-adv-x="833" 
d="M130 571l68 69l408 -429q10 40 10 94q0 135 -68 299l85 17q28 -71 43 -152.5t15 -157.5q0 -117 -32 -202q-85 -32 -202 -32q-76 0 -157.5 15t-152.5 43l17 85q162 -67 298 -67q54 0 95 10z" />
    <glyph glyph-name="uni2199" unicode="&#x2199;" horiz-adv-x="833" 
d="M616 640l69 -69l-428 -408q41 -10 95 -10q138 0 298 67l17 -85q-71 -28 -152 -43t-157 -15q-118 0 -203 32q-16 43 -23.5 96.5t-7.5 104.5q0 76 14.5 157.5t42.5 153.5l86 -17q-69 -163 -69 -299q0 -46 10 -93z" />
    <glyph glyph-name="partialdiff" unicode="&#x2202;" horiz-adv-x="599" 
d="M174 604q-21 24 -21 56q0 13 8 24t20 18q27 13 66 20.5t76 7.5q59 0 105 -18.5t75.5 -54.5t44.5 -87.5t15 -115.5q0 -125 -25 -214t-66 -143.5t-94 -80.5t-111 -26q-57 0 -101 24.5t-72.5 72t-28.5 111.5q0 59 18.5 107t51 80t74 49t85.5 17q43 0 80.5 -18.5t57.5 -44
t27 -47.5q9 47 9 113q0 196 -150 196q-34 0 -74 -12.5t-70 -33.5zM308 384q-29 0 -56.5 -12t-48.5 -35.5t-33.5 -57.5t-12.5 -74q0 -28 10.5 -59.5t38.5 -54.5t70 -23q40 0 78 27.5t59 73.5t21 89q0 32 -10 53q-14 33 -44 53t-72 20z" />
    <glyph glyph-name="uni2206" unicode="&#x2206;" horiz-adv-x="654" 
d="M609 73v-73h-565v73l244 653h79zM515 82l-188 526l-188 -526h376z" />
    <glyph glyph-name="product" unicode="&#x220f;" horiz-adv-x="706" 
d="M224 -100h-91v731h-102v89h644v-89h-100v-731h-91v731h-260v-731z" />
    <glyph glyph-name="summation" unicode="&#x2211;" horiz-adv-x="621" 
d="M65 -100v62l224 348l-224 348v62h491v-89h-374l211 -321l-211 -321h374v-89h-491z" />
    <glyph glyph-name="minus" unicode="&#x2212;" horiz-adv-x="454" 
d="M416 283h-375v69h375v-69z" />
    <glyph glyph-name="radical" unicode="&#x221a;" horiz-adv-x="605" 
d="M368 0h-58l-192 266h-78v82h123l154 -217l158 619h86z" />
    <glyph glyph-name="infinity" unicode="&#x221e;" horiz-adv-x="812" 
d="M61 360q0 87 43.5 140.5t117.5 53.5q54 0 101.5 -36.5t82.5 -105.5q34 68 82 105t101 37q46 0 84.5 -23.5t57.5 -70t19 -100.5q0 -88 -43.5 -142.5t-117.5 -54.5q-39 0 -76.5 21.5t-64.5 56t-43 67.5q-35 -70 -82 -107.5t-101 -37.5q-27 0 -55 9.5t-51.5 33t-39 62
t-15.5 92.5zM580 483q-19 0 -39.5 -9.5t-40.5 -35.5t-50 -78q49 -85 75 -105t55 -20q19 0 40.5 11.5t35.5 42.5t14 71q0 26 -8 55t-30 48.5t-52 19.5zM231 233q29 0 55 20t76 107q-49 85 -75 105t-55 20q-19 0 -40.5 -11.5t-35.5 -42t-14 -71.5t14 -72t35 -43t40 -12z" />
    <glyph glyph-name="integral" unicode="&#x222b;" horiz-adv-x="301" 
d="M105 -14v618q0 73 37.5 114t103.5 41q31 0 58 -9v-73q-21 8 -44 8q-65 0 -65 -87v-618q0 -72 -37 -113.5t-104 -41.5q-31 0 -58 9v73q18 -7 45 -7q64 0 64 86z" />
    <glyph glyph-name="approxequal" unicode="&#x2248;" horiz-adv-x="502" 
d="M78 356l-28 44q21 29 51 46.5t67 17.5q22 0 42 -6t62.5 -24.5t65.5 -18.5q45 0 89 39l27 -44q-26 -36 -58 -49.5t-59 -13.5q-37 0 -84.5 21t-63.5 24t-23 3q-44 0 -88 -39zM78 181l-28 45q21 28 51 45.5t67 17.5t84 -21t63 -24t23 -3q45 0 89 39l27 -45
q-21 -28 -51 -45.5t-66 -17.5q-37 0 -84.5 21t-63.5 24t-23 3q-44 0 -88 -39z" />
    <glyph glyph-name="notequal" unicode="&#x2260;" horiz-adv-x="502" 
d="M449 192h-231l-53 -109l-42 19l43 90h-109v68h142l56 115h-198v68h231l54 110l42 -19l-44 -91h109v-68h-142l-56 -115h198v-68z" />
    <glyph glyph-name="lessequal" unicode="&#x2264;" horiz-adv-x="449" 
d="M48 297v70l349 168v-81l-274 -122l274 -122v-81zM397 13h-349v68h349v-68z" />
    <glyph glyph-name="greaterequal" unicode="&#x2265;" horiz-adv-x="449" 
d="M401 367v-70l-349 -168v81l273 122l-273 122v81zM401 13h-349v68h349v-68z" />
    <glyph glyph-name="uni24C5" unicode="&#x24c5;" horiz-adv-x="870" 
d="M435 -43q-36 0 -83 8.5t-97 33t-91 63t-69.5 91t-39 107.5t-10.5 100q0 70 21.5 141.5t71 129t108.5 86.5t106 37.5t83 8.5q97 0 186.5 -44t147 -137t57.5 -222q0 -118 -50.5 -210t-142 -142.5t-198.5 -50.5zM435 17q30 0 70 7t81 28t74.5 53.5t56 77t31 91.5t8.5 86
t-8.5 86t-31 91.5t-56 77t-74.5 53.5t-81 28t-70 7q-65 0 -123 -22.5t-102.5 -66t-69.5 -109t-25 -145.5t25 -145.5t69.5 -109t102.5 -66t123 -22.5zM637 427q0 -79 -48 -118.5t-130 -39.5h-90v-136h-82v453h171q82 0 130.5 -39.5t48.5 -119.5zM454 527h-85v-198h85
q45 0 71 24t26 74q0 46 -22.5 73t-74.5 27z" />
    <glyph glyph-name="lozenge" unicode="&#x25ca;" horiz-adv-x="639" 
d="M591 360l-231 -366h-80l-232 366l232 366h80zM320 81l174 279l-174 279l-176 -279z" />
    <glyph glyph-name="uniF6C3" unicode="&#xf6c3;" horiz-adv-x="280" 
d="M126 -266l-40 22q17 27 26 59.5t9 60.5q0 32 -10 62q23 11 54 11q39 0 39 -39q0 -37 -19.5 -84.5t-58.5 -91.5z" />
    <glyph glyph-name="uniFB01" unicode="&#xfb01;" horiz-adv-x="581" 
d="M462 650q-29 14 -67.5 24.5t-80.5 10.5q-60 0 -90.5 -26t-30.5 -74v-81h307v-504h-90v436h-217v-436h-91v436h-73v55l73 10v91q0 78 57 122.5t157 44.5q80 0 130 -18q13 -4 21.5 -12t8.5 -28q0 -26 -14 -51z" />
    <glyph glyph-name="uniFB02" unicode="&#xfb02;" horiz-adv-x="593" 
d="M512 0h-91v660q-23 12 -54.5 18.5t-61.5 6.5q-54 0 -83 -26t-29 -74v-81h139v-68h-139v-436h-91v436h-73v55l73 10v91q0 78 54.5 122.5t151.5 44.5q102 0 204 -48v-711z" />
    <glyph glyph-name="G.aalt" horiz-adv-x="644" 
d="M542 600q-94 51 -190 51q-101 0 -155.5 -71t-54.5 -219q0 -149 51.5 -220.5t152.5 -71.5q78 0 121 44.5t43 131.5q0 37 -5 75h-146v74h224q15 -73 15 -146q0 -120 -68 -189t-187 -69q-69 0 -124.5 22.5t-94 68t-59 116t-20.5 164.5q0 92 21.5 163t61 116t95 67.5
t123.5 22.5q105 0 184 -28q13 -4 22 -12t9 -27q0 -32 -19 -63z" />
    <glyph glyph-name="Gcircumflex.aalt" horiz-adv-x="644" 
d="M542 600q-94 51 -190 51q-101 0 -155.5 -71t-54.5 -219q0 -149 51.5 -220.5t152.5 -71.5q78 0 121 44.5t43 131.5q0 37 -5 75h-146v74h224q15 -73 15 -146q0 -120 -68 -189t-187 -69q-69 0 -124.5 22.5t-94 68t-59 116t-20.5 164.5q0 92 21.5 163t61 116t95 67.5
t123.5 22.5q105 0 184 -28q13 -4 22 -12t9 -27q0 -32 -19 -63zM493 788l-29 -29q-79 64 -124 86q-46 -22 -125 -86l-29 29q56 74 104 114q25 20 49 20t50 -20q48 -40 104 -114z" />
    <glyph glyph-name="Gbreve.aalt" horiz-adv-x="644" 
d="M542 600q-94 51 -190 51q-101 0 -155.5 -71t-54.5 -219q0 -149 51.5 -220.5t152.5 -71.5q78 0 121 44.5t43 131.5q0 37 -5 75h-146v74h224q15 -73 15 -146q0 -120 -68 -189t-187 -69q-69 0 -124.5 22.5t-94 68t-59 116t-20.5 164.5q0 92 21.5 163t61 116t95 67.5
t123.5 22.5q105 0 184 -28q13 -4 22 -12t9 -27q0 -32 -19 -63zM467 930l37 -33q-20 -29 -50 -55t-63.5 -37.5t-61.5 -11.5q-42 0 -78.5 18.5t-59.5 42.5t-36 43l36 33q63 -65 138 -65q31 0 67.5 14.5t70.5 50.5z" />
    <glyph glyph-name="Gdotaccent.aalt" horiz-adv-x="644" 
d="M542 600q-94 51 -190 51q-101 0 -155.5 -71t-54.5 -219q0 -149 51.5 -220.5t152.5 -71.5q78 0 121 44.5t43 131.5q0 37 -5 75h-146v74h224q15 -73 15 -146q0 -120 -68 -189t-187 -69q-69 0 -124.5 22.5t-94 68t-59 116t-20.5 164.5q0 92 21.5 163t61 116t95 67.5
t123.5 22.5q105 0 184 -28q13 -4 22 -12t9 -27q0 -32 -19 -63zM332 793q-27 0 -42 8.5t-15 47.5q0 32 11 44t46 12q26 0 42 -8t16 -48q0 -32 -11.5 -44t-46.5 -12z" />
    <glyph glyph-name="Gcommaaccent.aalt" horiz-adv-x="644" 
d="M542 600q-94 51 -190 51q-101 0 -155.5 -71t-54.5 -219q0 -149 51.5 -220.5t152.5 -71.5q78 0 121 44.5t43 131.5q0 37 -5 75h-146v74h224q15 -73 15 -146q0 -120 -68 -189t-187 -69q-69 0 -124.5 22.5t-94 68t-59 116t-20.5 164.5q0 92 21.5 163t61 116t95 67.5
t123.5 22.5q105 0 184 -28q13 -4 22 -12t9 -27q0 -32 -19 -63zM307 -266l-40 22q17 27 26 59.5t9 60.5q0 32 -10 62q23 11 54 11q39 0 39 -39q0 -37 -19.5 -84.5t-58.5 -91.5z" />
    <glyph glyph-name="a.salt" 
d="M53 252q0 88 23 145t66 86.5t105 29.5q46 0 87.5 -21t71.5 -57l15 69h65v-504h-65l-16 70q-30 -36 -73.5 -57t-86.5 -21q-64 0 -105.5 29t-64 86t-22.5 145zM148 253q0 -96 27.5 -142.5t90.5 -46.5q35 0 65 17.5t49 45.5q17 23 17 70v111q0 49 -21 76q-42 57 -109 57
q-61 0 -90 -46.5t-29 -141.5z" />
    <glyph glyph-name="agrave.aalt" 
d="M53 252q0 88 23 145t66 86.5t105 29.5q46 0 87.5 -21t71.5 -57l15 69h65v-504h-65l-16 70q-30 -36 -73.5 -57t-86.5 -21q-64 0 -105.5 29t-64 86t-22.5 145zM148 253q0 -96 27.5 -142.5t90.5 -46.5q35 0 65 17.5t49 45.5q17 23 17 70v111q0 49 -21 76q-42 57 -109 57
q-61 0 -90 -46.5t-29 -141.5zM342 607l-28 -38l-192 117q5 31 20 49.5t34 18.5q16 0 41 -24z" />
    <glyph glyph-name="aacute.aalt" 
d="M53 252q0 88 23 145t66 86.5t105 29.5q46 0 87.5 -21t71.5 -57l15 69h65v-504h-65l-16 70q-30 -36 -73.5 -57t-86.5 -21q-64 0 -105.5 29t-64 86t-22.5 145zM148 253q0 -96 27.5 -142.5t90.5 -46.5q35 0 65 17.5t49 45.5q17 23 17 70v111q0 49 -21 76q-42 57 -109 57
q-61 0 -90 -46.5t-29 -141.5zM259 569l-29 38l125 123q5 5 16.5 14.5t24.5 9.5q19 0 34.5 -18.5t20.5 -49.5z" />
    <glyph glyph-name="acircumflex.aalt" 
d="M53 252q0 88 23 145t66 86.5t105 29.5q46 0 87.5 -21t71.5 -57l15 69h65v-504h-65l-16 70q-30 -36 -73.5 -57t-86.5 -21q-64 0 -105.5 29t-64 86t-22.5 145zM148 253q0 -96 27.5 -142.5t90.5 -46.5q35 0 65 17.5t49 45.5q17 23 17 70v111q0 49 -21 76q-42 57 -109 57
q-61 0 -90 -46.5t-29 -141.5zM434 604l-32 -25q-66 61 -116 87q-47 -24 -117 -87l-31 25q54 80 98 120q24 21 49 21q26 0 50 -21q40 -35 99 -120z" />
    <glyph glyph-name="atilde.aalt" 
d="M53 252q0 88 23 145t66 86.5t105 29.5q46 0 87.5 -21t71.5 -57l15 69h65v-504h-65l-16 70q-30 -36 -73.5 -57t-86.5 -21q-64 0 -105.5 29t-64 86t-22.5 145zM148 253q0 -96 27.5 -142.5t90.5 -46.5q35 0 65 17.5t49 45.5q17 23 17 70v111q0 49 -21 76q-42 57 -109 57
q-61 0 -90 -46.5t-29 -141.5zM140 601l-46 15q14 56 47 84.5t72 28.5q20 0 40.5 -8.5t56 -31t51.5 -22.5q41 0 66 61l46 -16q-8 -28 -24 -56t-42 -43.5t-55 -15.5q-20 0 -39.5 8.5t-55.5 31.5t-53 23q-41 0 -64 -59z" />
    <glyph glyph-name="adieresis.aalt" 
d="M53 252q0 88 23 145t66 86.5t105 29.5q46 0 87.5 -21t71.5 -57l15 69h65v-504h-65l-16 70q-30 -36 -73.5 -57t-86.5 -21q-64 0 -105.5 29t-64 86t-22.5 145zM148 253q0 -96 27.5 -142.5t90.5 -46.5q35 0 65 17.5t49 45.5q17 23 17 70v111q0 49 -21 76q-42 57 -109 57
q-61 0 -90 -46.5t-29 -141.5zM187 611q-24 0 -38 8t-14 47q0 32 10.5 44t41.5 12q24 0 38 -8t14 -48q0 -24 -7 -39.5t-45 -15.5zM385 611q-24 0 -38 8t-14 47q0 32 10.5 44t41.5 12q24 0 38 -8t14 -48q0 -24 -7 -39.5t-45 -15.5z" />
    <glyph glyph-name="aring.aalt" 
d="M53 252q0 88 23 145t66 86.5t105 29.5q46 0 87.5 -21t71.5 -57l15 69h65v-504h-65l-16 70q-30 -36 -73.5 -57t-86.5 -21q-64 0 -105.5 29t-64 86t-22.5 145zM148 253q0 -96 27.5 -142.5t90.5 -46.5q35 0 65 17.5t49 45.5q17 23 17 70v111q0 49 -21 76q-42 57 -109 57
q-61 0 -90 -46.5t-29 -141.5zM286 568q-30 0 -56 15.5t-36.5 39.5t-10.5 46t10.5 46.5t36.5 40t56 15.5q25 0 48 -11t39.5 -33.5t16.5 -57.5q0 -23 -10.5 -46.5t-36.5 -39t-57 -15.5zM286 608q24 0 41 15.5t17 45.5q0 31 -17 46.5t-41 15.5t-40.5 -16t-16.5 -46t16.5 -45.5
t40.5 -15.5z" />
    <glyph glyph-name="amacron.aalt" 
d="M53 252q0 88 23 145t66 86.5t105 29.5q46 0 87.5 -21t71.5 -57l15 69h65v-504h-65l-16 70q-30 -36 -73.5 -57t-86.5 -21q-64 0 -105.5 29t-64 86t-22.5 145zM148 253q0 -96 27.5 -142.5t90.5 -46.5q35 0 65 17.5t49 45.5q17 23 17 70v111q0 49 -21 76q-42 57 -109 57
q-61 0 -90 -46.5t-29 -141.5zM132 643v67h308v-67h-308z" />
    <glyph glyph-name="abreve.aalt" 
d="M53 252q0 88 23 145t66 86.5t105 29.5q46 0 87.5 -21t71.5 -57l15 69h65v-504h-65l-16 70q-30 -36 -73.5 -57t-86.5 -21q-64 0 -105.5 29t-64 86t-22.5 145zM148 253q0 -96 27.5 -142.5t90.5 -46.5q35 0 65 17.5t49 45.5q17 23 17 70v111q0 49 -21 76q-42 57 -109 57
q-61 0 -90 -46.5t-29 -141.5zM422 749l36 -31q-20 -35 -49.5 -65t-62 -44t-62.5 -14q-50 0 -95 31t-80 92l37 31q27 -36 62 -59t76 -23q40 0 75.5 23t62.5 59z" />
    <glyph glyph-name="aogonek.aalt" 
d="M484 -167q12 -15 12 -39q0 -22 -18 -28q-24 -8 -55 -8q-51 0 -80 25.5t-29 70.5q0 41 28 80.5t77 71.5l-14 64q-30 -36 -73.5 -57t-86.5 -21q-64 0 -105.5 29t-64 86t-22.5 145t23 145t66 86.5t105 29.5q46 0 87.5 -21t71.5 -57l15 69h65v-504q-100 -67 -100 -132
q0 -22 13 -34t34 -12q24 0 51 11zM148 253q0 -96 27.5 -142.5t90.5 -46.5q35 0 65 17.5t49 45.5q17 23 17 70v111q0 49 -21 76q-42 57 -109 57q-61 0 -90 -46.5t-29 -141.5z" />
    <glyph glyph-name="cacute.aalt" horiz-adv-x="481" 
d="M416 406q-69 33 -127 33q-75 0 -108 -48.5t-33 -138.5q0 -91 33 -139t108 -48q57 0 135 37q15 -24 15 -50q0 -15 -6 -24t-25 -16q-60 -21 -129 -21q-48 0 -89 14.5t-72 45.5t-48 82t-17 119q0 51 11.5 99.5t39 84.5t71 56.5t104.5 20.5q72 0 120 -17q13 -4 22 -12t9 -28
q0 -25 -14 -50zM281 573l-54 13l36 147q4 16 13 25t25 9q32 0 63 -28z" />
    <glyph glyph-name="glyph420" horiz-adv-x="353" 
d="M359 664q-37 19 -82 19q-39 0 -61.5 -25.5t-22.5 -72.5v-81h149v-68h-149v-436h-91v436h-73v55l73 10v91q0 78 47.5 122.5t133.5 44.5q37 0 61 -6q32 -7 32 -35q0 -25 -17 -54z" />
    <glyph glyph-name="glyph421" horiz-adv-x="353" 
d="M293 668q-23 10 -43 10q-30 0 -48 -23.5t-18 -60.5q0 -41 7 -90h151v-68h-149v-436h-91v436h-73v55l73 10v103q0 72 39 113.5t103 41.5q59 0 59 -42q0 -25 -10 -49z" />
    <glyph glyph-name="g.aalt" horiz-adv-x="548" 
d="M259 147q-48 0 -84 12q-20 -10 -32 -25t-12 -32q0 -22 21 -36t62 -14h121q87 0 134.5 -35.5t47.5 -100.5q0 -83 -67 -129.5t-196 -46.5q-56 0 -107.5 12t-80 43.5t-28.5 75.5q0 83 81 118q-33 13 -48.5 36t-15.5 50q0 65 67 104q-70 47 -70 152q0 93 53.5 138t153.5 45
q34 0 67.5 -8t58.5 -25q29 22 60 34.5t56 12.5q36 0 36 -32q0 -20 -7 -44q-12 2 -33 2q-32 0 -64 -13q14 -20 22.5 -49t8.5 -61q0 -184 -205 -184zM260 -203q85 0 135 27t50 76q0 38 -27.5 55.5t-84.5 17.5h-130q-15 0 -34.5 -8t-35 -29.5t-15.5 -49.5q0 -41 33.5 -65
t108.5 -24zM259 212q57 0 86 27.5t29 91.5t-29 91.5t-86 27.5t-85.5 -27.5t-28.5 -91.5t28.5 -91.5t85.5 -27.5z" />
    <glyph glyph-name="gcircumflex.aalt" horiz-adv-x="548" 
d="M259 147q-48 0 -84 12q-20 -10 -32 -25t-12 -32q0 -22 21 -36t62 -14h121q87 0 134.5 -35.5t47.5 -100.5q0 -83 -67 -129.5t-196 -46.5q-56 0 -107.5 12t-80 43.5t-28.5 75.5q0 83 81 118q-33 13 -48.5 36t-15.5 50q0 65 67 104q-70 47 -70 152q0 93 53.5 138t153.5 45
q34 0 67.5 -8t58.5 -25q29 22 60 34.5t56 12.5q36 0 36 -32q0 -20 -7 -44q-12 2 -33 2q-32 0 -64 -13q14 -20 22.5 -49t8.5 -61q0 -184 -205 -184zM260 -203q85 0 135 27t50 76q0 38 -27.5 55.5t-84.5 17.5h-130q-15 0 -34.5 -8t-35 -29.5t-15.5 -49.5q0 -41 33.5 -65
t108.5 -24zM259 212q57 0 86 27.5t29 91.5t-29 91.5t-86 27.5t-85.5 -27.5t-28.5 -91.5t28.5 -91.5t85.5 -27.5zM418 604l-32 -25q-66 61 -116 87q-47 -24 -117 -87l-31 25q54 80 98 120q24 21 49 21q26 0 50 -21q40 -35 99 -120z" />
    <glyph glyph-name="gbreve.aalt" horiz-adv-x="548" 
d="M259 147q-48 0 -84 12q-20 -10 -32 -25t-12 -32q0 -22 21 -36t62 -14h121q87 0 134.5 -35.5t47.5 -100.5q0 -83 -67 -129.5t-196 -46.5q-56 0 -107.5 12t-80 43.5t-28.5 75.5q0 83 81 118q-33 13 -48.5 36t-15.5 50q0 65 67 104q-70 47 -70 152q0 93 53.5 138t153.5 45
q34 0 67.5 -8t58.5 -25q29 22 60 34.5t56 12.5q36 0 36 -32q0 -20 -7 -44q-12 2 -33 2q-32 0 -64 -13q14 -20 22.5 -49t8.5 -61q0 -184 -205 -184zM260 -203q85 0 135 27t50 76q0 38 -27.5 55.5t-84.5 17.5h-130q-15 0 -34.5 -8t-35 -29.5t-15.5 -49.5q0 -41 33.5 -65
t108.5 -24zM259 212q57 0 86 27.5t29 91.5t-29 91.5t-86 27.5t-85.5 -27.5t-28.5 -91.5t28.5 -91.5t85.5 -27.5zM411 749l36 -31q-20 -35 -49.5 -65t-62 -44t-62.5 -14q-50 0 -95 31t-80 92l37 31q27 -36 62 -59t76 -23q40 0 75.5 23t62.5 59z" />
    <glyph glyph-name="gdotaccent.aalt" horiz-adv-x="548" 
d="M259 147q-48 0 -84 12q-20 -10 -32 -25t-12 -32q0 -22 21 -36t62 -14h121q87 0 134.5 -35.5t47.5 -100.5q0 -83 -67 -129.5t-196 -46.5q-56 0 -107.5 12t-80 43.5t-28.5 75.5q0 83 81 118q-33 13 -48.5 36t-15.5 50q0 65 67 104q-70 47 -70 152q0 93 53.5 138t153.5 45
q34 0 67.5 -8t58.5 -25q29 22 60 34.5t56 12.5q36 0 36 -32q0 -20 -7 -44q-12 2 -33 2q-32 0 -64 -13q14 -20 22.5 -49t8.5 -61q0 -184 -205 -184zM260 -203q85 0 135 27t50 76q0 38 -27.5 55.5t-84.5 17.5h-130q-15 0 -34.5 -8t-35 -29.5t-15.5 -49.5q0 -41 33.5 -65
t108.5 -24zM259 212q57 0 86 27.5t29 91.5t-29 91.5t-86 27.5t-85.5 -27.5t-28.5 -91.5t28.5 -91.5t85.5 -27.5zM267 611q-27 0 -42 8t-15 47q0 32 11 44t46 12q26 0 42 -8t16 -48q0 -32 -11.5 -43.5t-46.5 -11.5z" />
    <glyph glyph-name="gcommaaccent.aalt" horiz-adv-x="548" 
d="M259 147q-48 0 -84 12q-20 -10 -32 -25t-12 -32q0 -22 21 -36t62 -14h121q87 0 134.5 -35.5t47.5 -100.5q0 -83 -67 -129.5t-196 -46.5q-56 0 -107.5 12t-80 43.5t-28.5 75.5q0 83 81 118q-33 13 -48.5 36t-15.5 50q0 65 67 104q-70 47 -70 152q0 93 53.5 138t153.5 45
q34 0 67.5 -8t58.5 -25q29 22 60 34.5t56 12.5q36 0 36 -32q0 -20 -7 -44q-12 2 -33 2q-32 0 -64 -13q14 -20 22.5 -49t8.5 -61q0 -184 -205 -184zM260 -203q85 0 135 27t50 76q0 38 -27.5 55.5t-84.5 17.5h-130q-15 0 -34.5 -8t-35 -29.5t-15.5 -49.5q0 -41 33.5 -65
t108.5 -24zM259 212q57 0 86 27.5t29 91.5t-29 91.5t-86 27.5t-85.5 -27.5t-28.5 -91.5t28.5 -91.5t85.5 -27.5zM285 791l40 -22q-17 -27 -26 -59.5t-9 -60.5q0 -32 10 -62q-23 -11 -54 -11q-39 0 -39 39q0 37 19.5 84.5t58.5 91.5z" />
    <glyph glyph-name="i.aalt" horiz-adv-x="252" 
d="M171 0h-90v504h90v-504zM125 611q-26 0 -41 8t-15 47q0 32 11 44t45 12q32 0 45.5 -9.5t13.5 -46.5q0 -32 -12 -43.5t-47 -11.5z" />
    <glyph glyph-name="nacute.aalt" horiz-adv-x="572" 
d="M491 0h-91v336q0 97 -88 97q-36 0 -69 -16.5t-54 -43.5q-18 -23 -18 -55v-318h-90v504h66l16 -76q32 39 79.5 61.5t92.5 22.5q80 0 118 -42t38 -117v-353zM306 573l-54 13l36 147q4 16 13 25t25 9q32 0 63 -28z" />
    <glyph glyph-name="oacute.aalt" horiz-adv-x="559" 
d="M279 -9q-75 0 -124.5 31t-75.5 88.5t-26 143.5q0 84 26 140.5t76 87.5t124 31q75 0 125 -30.5t76 -87t26 -141.5q0 -68 -17.5 -119t-48.5 -82.5t-72 -46.5t-89 -15zM279 63q70 0 101 48.5t31 142.5q0 93 -31 140.5t-101 47.5q-69 0 -100 -47.5t-31 -140.5
q0 -94 31 -142.5t100 -48.5zM292 573l-54 13l36 147q4 16 13 25t25 9q32 0 63 -28z" />
    <glyph glyph-name="sacute.aalt" horiz-adv-x="458" 
d="M369 407q-35 18 -74 28.5t-73 10.5q-32 0 -53.5 -12.5t-29 -29t-7.5 -30.5q0 -29 24 -49.5t99 -37.5q82 -19 120 -54.5t38 -94.5q0 -50 -23.5 -82.5t-64.5 -49t-101 -16.5q-80 0 -142 20q-14 5 -25 13.5t-11 28.5q0 12 5.5 27t13.5 24q85 -43 165 -43q47 0 72 19t25 56
q0 25 -15.5 41.5t-41.5 26.5t-70 20q-82 19 -118 52.5t-36 91.5q0 36 20.5 71.5t65.5 55.5t103 20q63 0 118 -17q35 -10 35 -41q0 -13 -5.5 -27t-13.5 -22zM245 573l-54 13l36 147q4 16 13 25t25 9q32 0 63 -28z" />
    <glyph glyph-name="v.aalt" horiz-adv-x="554" 
d="M81 504h90v-325q0 -117 83 -117q35 0 71.5 25t58.5 79t22 122q0 47 -9.5 101.5t-30.5 107.5q34 14 65 14q17 0 27 -6.5t17 -25.5q12 -35 18.5 -84.5t6.5 -91.5q0 -74 -20 -133.5t-55.5 -99.5t-81.5 -60t-97 -20q-76 0 -120.5 47.5t-44.5 139.5v327z" />
    <glyph glyph-name="w.aalt" horiz-adv-x="859" 
d="M394 504h91v-325q0 -117 78 -117q26 0 52.5 14t48.5 42.5t35 72t13 97.5q0 47 -9.5 101.5t-30.5 107.5q34 14 65 14q16 0 26.5 -6.5t17.5 -25.5q12 -35 18.5 -84.5t6.5 -91.5q0 -74 -20.5 -133.5t-55.5 -99.5t-80.5 -60t-94.5 -20q-56 0 -96 28t-55 81q-30 -53 -77.5 -81
t-95.5 -28q-70 0 -111 47.5t-41 140.5v326h90v-325q0 -117 81 -117q24 0 50 13.5t47 40t34 67.5t13 93v228z" />
    <glyph glyph-name="wgrave.aalt" horiz-adv-x="859" 
d="M394 504h91v-325q0 -117 78 -117q26 0 52.5 14t48.5 42.5t35 72t13 97.5q0 47 -9.5 101.5t-30.5 107.5q34 14 65 14q16 0 26.5 -6.5t17.5 -25.5q12 -35 18.5 -84.5t6.5 -91.5q0 -74 -20.5 -133.5t-55.5 -99.5t-80.5 -60t-94.5 -20q-56 0 -96 28t-55 81q-30 -53 -77.5 -81
t-95.5 -28q-70 0 -111 47.5t-41 140.5v326h90v-325q0 -117 81 -117q24 0 50 13.5t47 40t34 67.5t13 93v228zM485 607l-28 -38l-192 117q5 31 20 49.5t34 18.5q16 0 41 -24z" />
    <glyph glyph-name="wacute.aalt" horiz-adv-x="859" 
d="M394 504h91v-325q0 -117 78 -117q26 0 52.5 14t48.5 42.5t35 72t13 97.5q0 47 -9.5 101.5t-30.5 107.5q34 14 65 14q16 0 26.5 -6.5t17.5 -25.5q12 -35 18.5 -84.5t6.5 -91.5q0 -74 -20.5 -133.5t-55.5 -99.5t-80.5 -60t-94.5 -20q-56 0 -96 28t-55 81q-30 -53 -77.5 -81
t-95.5 -28q-70 0 -111 47.5t-41 140.5v326h90v-325q0 -117 81 -117q24 0 50 13.5t47 40t34 67.5t13 93v228zM407 569l-29 38l125 123q5 5 16.5 14.5t24.5 9.5q19 0 34.5 -18.5t20.5 -49.5z" />
    <glyph glyph-name="wcircumflex.aalt" horiz-adv-x="859" 
d="M394 504h91v-325q0 -117 78 -117q26 0 52.5 14t48.5 42.5t35 72t13 97.5q0 47 -9.5 101.5t-30.5 107.5q34 14 65 14q16 0 26.5 -6.5t17.5 -25.5q12 -35 18.5 -84.5t6.5 -91.5q0 -74 -20.5 -133.5t-55.5 -99.5t-80.5 -60t-94.5 -20q-56 0 -96 28t-55 81q-30 -53 -77.5 -81
t-95.5 -28q-70 0 -111 47.5t-41 140.5v326h90v-325q0 -117 81 -117q24 0 50 13.5t47 40t34 67.5t13 93v228zM587 604l-32 -25q-66 61 -116 87q-47 -24 -117 -87l-31 25q54 80 98 120q24 21 49 21q26 0 50 -21q40 -35 99 -120z" />
    <glyph glyph-name="wdieresis.aalt" horiz-adv-x="859" 
d="M394 504h91v-325q0 -117 78 -117q26 0 52.5 14t48.5 42.5t35 72t13 97.5q0 47 -9.5 101.5t-30.5 107.5q34 14 65 14q16 0 26.5 -6.5t17.5 -25.5q12 -35 18.5 -84.5t6.5 -91.5q0 -74 -20.5 -133.5t-55.5 -99.5t-80.5 -60t-94.5 -20q-56 0 -96 28t-55 81q-30 -53 -77.5 -81
t-95.5 -28q-70 0 -111 47.5t-41 140.5v326h90v-325q0 -117 81 -117q24 0 50 13.5t47 40t34 67.5t13 93v228zM339 611q-24 0 -38 8t-14 47q0 32 10.5 44t41.5 12q24 0 38 -8t14 -48q0 -24 -7 -39.5t-45 -15.5zM537 611q-24 0 -38 8t-14 47q0 32 10.5 44t41.5 12q24 0 38 -8
t14 -48q0 -24 -7 -39.5t-45 -15.5z" />
    <glyph glyph-name="y.aalt" horiz-adv-x="569" 
d="M398 504h90v-510q0 -79 -25.5 -131.5t-76 -80t-129.5 -27.5q-32 0 -73.5 6.5t-69.5 16.5q-13 5 -22 13t-9 27q0 31 15 55q32 -16 75 -28t78 -12q70 0 108.5 35.5t38.5 118.5v79q-16 -17 -41 -34.5t-59 -28.5t-64 -11q-77 0 -115 42.5t-38 117.5v352h90v-335q0 -98 89 -98
q36 0 68 16.5t52 43.5q18 22 18 49v324z" />
    <glyph glyph-name="ygrave.aalt" horiz-adv-x="569" 
d="M398 504h90v-510q0 -79 -25.5 -131.5t-76 -80t-129.5 -27.5q-32 0 -73.5 6.5t-69.5 16.5q-13 5 -22 13t-9 27q0 31 15 55q32 -16 75 -28t78 -12q70 0 108.5 35.5t38.5 118.5v79q-16 -17 -41 -34.5t-59 -28.5t-64 -11q-77 0 -115 42.5t-38 117.5v352h90v-335q0 -98 89 -98
q36 0 68 16.5t52 43.5q18 22 18 49v324zM329 607l-28 -38l-192 117q5 31 20 49.5t34 18.5q16 0 41 -24z" />
    <glyph glyph-name="yacute.aalt" horiz-adv-x="569" 
d="M398 504h90v-510q0 -79 -25.5 -131.5t-76 -80t-129.5 -27.5q-32 0 -73.5 6.5t-69.5 16.5q-13 5 -22 13t-9 27q0 31 15 55q32 -16 75 -28t78 -12q70 0 108.5 35.5t38.5 118.5v79q-16 -17 -41 -34.5t-59 -28.5t-64 -11q-77 0 -115 42.5t-38 117.5v352h90v-335q0 -98 89 -98
q36 0 68 16.5t52 43.5q18 22 18 49v324zM265 569l-29 38l125 123q5 5 16.5 14.5t24.5 9.5q19 0 34.5 -18.5t20.5 -49.5z" />
    <glyph glyph-name="ycircumflex.aalt" horiz-adv-x="569" 
d="M398 504h90v-510q0 -79 -25.5 -131.5t-76 -80t-129.5 -27.5q-32 0 -73.5 6.5t-69.5 16.5q-13 5 -22 13t-9 27q0 31 15 55q32 -16 75 -28t78 -12q70 0 108.5 35.5t38.5 118.5v79q-16 -17 -41 -34.5t-59 -28.5t-64 -11q-77 0 -115 42.5t-38 117.5v352h90v-335q0 -98 89 -98
q36 0 68 16.5t52 43.5q18 22 18 49v324zM433 604l-32 -25q-66 61 -116 87q-47 -24 -117 -87l-31 25q54 80 98 120q24 21 49 21q26 0 50 -21q40 -35 99 -120z" />
    <glyph glyph-name="ydieresis.aalt" horiz-adv-x="569" 
d="M398 504h90v-510q0 -79 -25.5 -131.5t-76 -80t-129.5 -27.5q-32 0 -73.5 6.5t-69.5 16.5q-13 5 -22 13t-9 27q0 31 15 55q32 -16 75 -28t78 -12q70 0 108.5 35.5t38.5 118.5v79q-16 -17 -41 -34.5t-59 -28.5t-64 -11q-77 0 -115 42.5t-38 117.5v352h90v-335q0 -98 89 -98
q36 0 68 16.5t52 43.5q18 22 18 49v324zM186 611q-24 0 -38 8t-14 47q0 32 10.5 44t41.5 12q24 0 38 -8t14 -48q0 -24 -7 -39.5t-45 -15.5zM384 611q-24 0 -38 8t-14 47q0 32 10.5 44t41.5 12q24 0 38 -8t14 -48q0 -24 -7 -39.5t-45 -15.5z" />
    <glyph glyph-name="zacute.aalt" horiz-adv-x="454" 
d="M49 430v74h361l5 -67q-42 -32 -96.5 -86.5t-107 -130.5t-82.5 -146h281v-74h-368l-6 56q28 71 75.5 146.5t100 133.5t95.5 94h-258zM248 573l-54 13l36 147q4 16 13 25t25 9q32 0 63 -28z" />
    <glyph glyph-name="zero.tnum" horiz-adv-x="635" 
d="M317 70q82 0 120 73.5t38 216.5t-38 216.5t-120 73.5q-83 0 -120.5 -73.5t-37.5 -216.5t37.5 -216.5t120.5 -73.5zM317 -10q-255 0 -255 370t255 370t255 -370t-255 -370z" />
    <glyph glyph-name="one.tnum" horiz-adv-x="635" 
d="M100 0v78h198v569q-91 -12 -183 -68q-22 26 -22 62q0 13 8.5 24.5t24.5 18.5q44 19 97 29.5t96 10.5t74 -7v-639h176v-78h-469z" />
    <glyph glyph-name="two.tnum" horiz-adv-x="635" 
d="M531 0h-437l-9 55q134 139 205 225t105 148.5t34 109.5q0 109 -130 109q-86 0 -180 -56q-20 32 -20 63q0 16 9.5 27t32.5 20q78 29 167 29q41 0 81 -8.5t70.5 -30t48.5 -55.5t18 -84q0 -47 -23 -103.5t-85.5 -138t-211.5 -232.5h325v-78z" />
    <glyph glyph-name="three.tnum" horiz-adv-x="635" 
d="M109 122q88 -52 175 -52q80 0 127 34.5t47 99.5q0 71 -56 106.5t-151 35.5h-41l-5 64h15q68 0 114.5 16.5t72.5 47t26 72.5q0 48 -32.5 76t-101.5 28q-82 0 -171 -52q-20 33 -20 58q0 34 40 48q75 26 158 26q41 0 80.5 -8.5t69.5 -29.5t48 -53.5t18 -77.5
q0 -43 -21.5 -82t-52 -61.5t-57.5 -31.5q31 -7 69.5 -27.5t65 -61t26.5 -97.5q0 -50 -20.5 -90t-56.5 -66.5t-83.5 -40t-99.5 -13.5q-90 0 -167 28q-36 14 -36 46q0 25 20 58z" />
    <glyph glyph-name="four.tnum" horiz-adv-x="635" 
d="M481 0h-91v160h-319l-19 50q15 69 51.5 145t86.5 146t108 127.5t114 91.5h69v-481h100v-79h-100v-160zM390 614q-85 -67 -156 -171.5t-99 -203.5h255v375z" />
    <glyph glyph-name="five.tnum" horiz-adv-x="635" 
d="M107 122q88 -52 177 -52q47 0 88.5 16t64 53.5t22.5 87.5q0 29 -9 56.5t-33.5 50.5t-60.5 32.5t-67 9.5q-71 0 -146 -24l-27 17l23 351h368v-78h-289l-14 -211q59 16 111 16q49 0 92.5 -14t76 -41.5t50.5 -69.5t18 -96q0 -42 -13 -84.5t-45 -76t-83.5 -54.5t-122.5 -21
q-88 0 -165 28q-36 14 -36 46q0 25 20 58z" />
    <glyph glyph-name="six.tnum" horiz-adv-x="635" 
d="M71 330q0 100 24 176.5t66.5 126t96.5 73.5t114 24q42 0 77.5 -7t56.5 -21t21 -36q0 -32 -21 -55q-56 39 -131 39q-43 0 -80 -17t-65 -53t-44 -94t-16 -135q26 43 77.5 72t106.5 29q67 0 115 -28.5t73.5 -76.5t25.5 -116q0 -26 -6 -58t-22 -63t-44.5 -58.5t-72 -44.5
t-93.5 -17q-54 0 -101.5 20.5t-82.5 62.5t-55 107.5t-20 149.5zM474 229q0 50 -18 86.5t-51 52t-70 15.5q-44 0 -81 -22t-63 -58q-17 -24 -17 -51q0 -26 9.5 -59t28.5 -61t49.5 -46t69.5 -18q63 0 103 45t40 116z" />
    <glyph glyph-name="seven.tnum" horiz-adv-x="635" 
d="M60 638v82h496l10 -55q-52 -56 -99.5 -130.5t-84.5 -160.5t-60 -182t-28 -192h-99q10 174 80 345t177 293h-392z" />
    <glyph glyph-name="eight.tnum" horiz-adv-x="635" 
d="M318 730q36 0 75.5 -8t77.5 -31.5t57 -62t19 -81.5t-22.5 -81t-54 -58t-57.5 -28q66 -17 112 -69t46 -120q0 -95 -68 -148.5t-185 -53.5t-185.5 53.5t-68.5 148.5q0 68 46 120t112 69q-56 17 -94 62.5t-38 104.5q0 86 63 134.5t165 48.5zM473 197q0 61 -46 102t-109 41
q-39 0 -76.5 -18t-58.5 -52.5t-21 -72.5q0 -66 42.5 -101t113.5 -35q72 0 113.5 35t41.5 101zM181 542q0 -38 20.5 -69.5t52 -43.5t64.5 -12q32 0 64 12t53 43.5t21 69.5q0 35 -15 61t-46.5 41t-76.5 15q-30 0 -63 -9.5t-53.5 -37t-20.5 -70.5z" />
    <glyph glyph-name="nine.tnum" horiz-adv-x="635" 
d="M563 390q0 -114 -33.5 -204.5t-104 -143t-162.5 -52.5q-60 0 -107.5 15t-47.5 48q0 15 5.5 30.5t15.5 25.5q56 -39 130 -39q32 0 61 9.5t53.5 29t43.5 50.5t33 82.5t14 128.5q-12 -20 -37 -44t-65.5 -41t-80.5 -17q-67 0 -115 28.5t-73.5 76.5t-25.5 116q0 26 6 58t22 63
t44.5 58.5t72 44.5t93.5 17q54 0 101.5 -20.5t82.5 -62.5t54.5 -107.5t19.5 -149.5zM161 491q0 -50 17.5 -86.5t50.5 -52t70 -15.5q45 0 82 22t62 58q18 25 18 51t-9.5 59t-28.5 61t-49.5 46t-69.5 18q-63 0 -103 -45t-40 -116z" />
    <glyph glyph-name="glyph453" horiz-adv-x="635" 
d="M317 150q-27 0 -57.5 9t-54.5 24l-82 -81l-58 57l82 80q-15 22 -25.5 53t-10.5 67q0 34 10.5 64t25.5 52l-82 80l58 56l83 -81q24 15 54.5 24t56.5 9t56.5 -9t54.5 -24l83 81l58 -56l-82 -80q15 -22 25.5 -52t10.5 -64q0 -36 -10.5 -67t-25.5 -54l82 -79l-58 -57l-82 80
q-24 -15 -54 -23.5t-58 -8.5zM317 226q51 0 86 33t35 100q0 62 -34 95.5t-87 33.5q-38 0 -65.5 -17.5t-38.5 -39t-14 -39.5t-3 -33q0 -67 35 -100t86 -33z" />
    <glyph glyph-name="glyph454" horiz-adv-x="635" 
d="M548 603q-79 43 -162 43q-148 0 -178 -181h275l-14 -61h-267l-2 -43l2 -49h246l-15 -61h-224q31 -177 177 -177q41 0 87 12.5t84 33.5q20 -30 20 -63q0 -16 -9.5 -27t-32.5 -17q-79 -23 -156 -23q-110 0 -178.5 64t-88.5 197h-71v61h65l-1 49l1 43h-65v61h70
q19 135 89 200t181 65q77 0 145 -20q42 -12 42 -44q0 -33 -20 -63z" />
    <glyph glyph-name="glyph455" horiz-adv-x="635" 
d="M362 -110h-92v101q-77 6 -134 28q-18 6 -29.5 16.5t-11.5 31.5q0 14 5.5 32t14.5 31q97 -57 186 -57q71 0 108.5 32t37.5 87q0 52 -36 84t-120 54q-197 50 -197 199q0 75 45.5 129t129.5 68v104h93v-101q51 -4 108 -20q42 -12 42 -44q0 -33 -20 -63q-81 45 -167 45
q-68 0 -100.5 -30.5t-32.5 -79.5q0 -44 31.5 -72.5t112.5 -48.5q79 -20 124.5 -51t66.5 -72t21 -95q0 -78 -50 -133.5t-136 -69.5v-105z" />
    <glyph glyph-name="glyph456" horiz-adv-x="635" 
d="M390 0h-92v104q-40 6 -73.5 24.5t-57.5 49.5t-37.5 77.5t-13.5 106.5q0 45 9 88.5t31 78.5t57 58.5t85 31.5v105h92v-103q15 -1 39.5 -5.5t38.5 -9.5q13 -4 22 -12t9 -28q0 -25 -14 -50q-70 33 -133 33q-75 0 -108 -48.5t-33 -138.5q0 -91 33 -139t108 -48q60 0 142 37
q14 -25 14 -50q0 -15 -6 -24t-25 -16q-43 -14 -87 -19v-103z" />
    <glyph glyph-name="glyph457" horiz-adv-x="635" 
d="M80 323v71h74v97q0 114 52 176.5t155 62.5q72 0 138 -24q31 -12 31 -41q0 -13 -5 -33.5t-11 -30.5q-81 45 -146 45q-57 0 -88 -36t-31 -109v-107h207v-71h-207v-30q0 -81 -15.5 -130t-47.5 -81h350v-82h-456v50q35 25 54.5 80t19.5 130v63h-74z" />
    <glyph glyph-name="glyph458" horiz-adv-x="594" 
d="M531 630q-19 12 -43.5 18.5t-44.5 6.5q-36 0 -56 -26t-27 -81l-12 -99h136v-68h-144l-38 -324q-10 -86 -55.5 -133.5t-116.5 -47.5q-34 0 -65 10q-13 4 -18 11t-5 18q0 10 5.5 25.5t13.5 26.5q38 -19 69 -19q21 0 40 15t29 41.5t13 53.5l38 323h-84v55l91 11l13 106
q11 86 55.5 131t122.5 45q46 0 83 -10q25 -7 25 -32q0 -12 -7.5 -28.5t-17.5 -28.5z" />
    <glyph glyph-name="glyph459" horiz-adv-x="635" 
d="M541 139h-175v-139h-95v139h-176v61h176v93h-176v61h117q-34 35 -71 90.5t-63 129t-33 146.5h99q8 -83 32 -152t51 -110t49.5 -65t41.5 -40q60 51 97.5 117t54.5 131.5t22 118.5h99q-9 -99 -52.5 -196t-114.5 -170h117v-61h-175v-93h175v-61z" />
    <glyph glyph-name="zero.numr" horiz-adv-x="386" 
d="M193 399q44 0 63 34t19 101q0 68 -19 102.5t-63 34.5t-63 -34.5t-19 -102.5q0 -67 19 -101t63 -34zM193 344q-53 0 -87 22t-51.5 63.5t-17.5 104.5q0 51 10 83.5t26.5 55t46 37.5t73.5 15q25 0 51.5 -7t49.5 -26t39 -57t16 -101t-17.5 -104.5t-51.5 -63.5t-87 -22z" />
    <glyph glyph-name="one.numr" horiz-adv-x="302" 
d="M221 346h-77v326q-25 -2 -55 -14t-54 -29q-5 6 -10 21.5t-5 25.5q0 20 20 28q21 9 55.5 15t61.5 6q32 0 64 -6v-373z" />
    <glyph glyph-name="two.numr" horiz-adv-x="335" 
d="M291 349h-256l-5 35q117 122 148.5 166t31.5 76q0 22 -17.5 34.5t-49.5 12.5q-46 0 -96 -26q-11 20 -11 41q0 20 20 26q50 16 102 16q61 0 96.5 -24.5t35.5 -64.5t-34 -90t-136 -142h171v-60z" />
    <glyph glyph-name="three.numr" horiz-adv-x="342" 
d="M41 424q44 -24 98 -24q37 0 59.5 15t22.5 44t-23 45t-75 16h-27l-5 47h19q49 0 76 18.5t27 45.5q0 18 -17.5 31.5t-48.5 13.5q-46 0 -95 -26q-12 18 -12 38q0 19 21 26q48 16 97 16q58 0 93 -24.5t35 -62.5q0 -35 -22.5 -61t-57.5 -35q41 -8 67 -32.5t26 -62.5
q0 -52 -43 -80.5t-106 -28.5q-51 0 -99 16q-21 7 -21 27q0 19 11 38z" />
    <glyph glyph-name="four.numr" horiz-adv-x="360" 
d="M275 349h-73v80h-178l-11 30q19 73 77.5 151.5t120.5 113.5h64v-243h59v-52h-59v-80zM202 665q-43 -34 -79.5 -84.5t-54.5 -99.5h134v184z" />
    <glyph glyph-name="five.numr" horiz-adv-x="342" 
d="M48 423q45 -24 97 -24q39 0 62.5 17.5t23.5 54.5q0 32 -23 49t-58 17q-39 0 -76 -10l-23 18l12 181h221v-55h-165l-7 -98q38 9 67 9q57 0 94 -29t37 -82q0 -46 -25.5 -76t-62.5 -40.5t-67 -10.5q-53 0 -98 15q-21 7 -21 27q0 18 12 37z" />
    <glyph glyph-name="six.numr" horiz-adv-x="365" 
d="M37 521q0 39 10 77.5t33 67.5t57 46t76 17q43 0 72 -10q18 -6 18 -24t-12 -37q-32 19 -76 19q-22 0 -47 -10t-42 -42t-17 -87q14 20 43.5 33.5t60.5 13.5q52 0 88.5 -29t36.5 -85q0 -43 -23.5 -73.5t-59 -42t-65.5 -11.5q-67 0 -110 45t-43 132zM267 468q0 37 -20 55
t-52 18q-22 0 -43 -10.5t-31 -24.5q-10 -13 -10 -25q0 -21 11 -44t30.5 -33.5t38.5 -10.5q34 0 55 21t21 54z" />
    <glyph glyph-name="seven.numr" horiz-adv-x="294" 
d="M10 664v60h269l8 -34q-38 -39 -70.5 -102t-47 -127t-15.5 -112h-74q3 83 38 167t88 148h-196z" />
    <glyph glyph-name="eight.numr" horiz-adv-x="389" 
d="M195 730q61 0 100.5 -25.5t39.5 -70.5q0 -31 -20 -54.5t-49 -32.5q24 -7 44.5 -23.5t29 -36t8.5 -36.5q0 -52 -41.5 -80t-111.5 -28q-71 0 -112.5 28t-41.5 80q0 17 8.5 36.5t29 36t44.5 23.5q-29 9 -49 32.5t-20 54.5q0 45 39.5 70.5t101.5 25.5zM274 452
q0 30 -23.5 50.5t-55.5 20.5q-33 0 -57 -20.5t-24 -50.5t22.5 -47t58.5 -17t57.5 17t21.5 47zM124 631q0 -26 19 -44t52 -18q32 0 51 18t19 44t-19 40.5t-51 14.5q-33 0 -52 -14.5t-19 -40.5z" />
    <glyph glyph-name="nine.numr" horiz-adv-x="369" 
d="M332 552q0 -64 -22.5 -110t-63 -72t-94.5 -26q-43 0 -72 10q-17 6 -17 24q0 20 11 36q33 -18 77 -18q21 0 47 10t44 42t18 87q-14 -20 -43 -33.5t-60 -13.5q-38 0 -67 15t-44 39.5t-15 60.5q0 42 23.5 72.5t59 42t65.5 11.5q49 0 83 -22.5t52 -61t18 -93.5zM102 604
q0 -36 20 -54t52 -18q21 0 42.5 9.5t31.5 24.5q10 13 10 26q0 21 -11 43.5t-30.5 33t-38.5 10.5q-34 0 -55 -21t-21 -54z" />
    <glyph glyph-name="zero.dnom" horiz-adv-x="386" 
d="M193 50q44 0 63 34t19 101q0 68 -19 102.5t-63 34.5t-63 -34.5t-19 -102.5q0 -67 19 -101t63 -34zM193 -5q-53 0 -87 22t-51.5 63.5t-17.5 104.5q0 51 10 83.5t26.5 55t46 37.5t73.5 15q25 0 51.5 -7t49.5 -26t39 -57t16 -101t-17.5 -104.5t-51.5 -63.5t-87 -22z" />
    <glyph glyph-name="one.dnom" horiz-adv-x="302" 
d="M221 -3h-77v326q-25 -2 -55 -14t-54 -29q-5 6 -10 21.5t-5 25.5q0 20 20 28q21 9 55.5 15t61.5 6q32 0 64 -6v-373z" />
    <glyph glyph-name="two.dnom" horiz-adv-x="335" 
d="M291 -2h-256l-5 35q117 122 148.5 166t31.5 76q0 22 -17.5 34.5t-49.5 12.5q-46 0 -96 -26q-11 20 -11 41q0 20 20 26q50 16 102 16q61 0 96.5 -24.5t35.5 -64.5t-34 -90t-136 -142h171v-60z" />
    <glyph glyph-name="three.dnom" horiz-adv-x="342" 
d="M41 73q44 -24 98 -24q37 0 59.5 15t22.5 44t-23 45t-75 16h-27l-5 47h19q49 0 76 18.5t27 45.5q0 18 -17.5 31.5t-48.5 13.5q-46 0 -95 -26q-12 18 -12 38q0 19 21 26q48 16 97 16q58 0 93 -24.5t35 -62.5q0 -35 -22.5 -61t-57.5 -35q41 -8 67 -32.5t26 -62.5
q0 -52 -43 -80.5t-106 -28.5q-51 0 -99 16q-21 7 -21 27q0 19 11 38z" />
    <glyph glyph-name="four.dnom" horiz-adv-x="360" 
d="M275 -2h-73v80h-178l-11 30q19 73 77.5 151.5t120.5 113.5h64v-243h59v-52h-59v-80zM202 314q-43 -34 -79.5 -84.5t-54.5 -99.5h134v184z" />
    <glyph glyph-name="five.dnom" horiz-adv-x="342" 
d="M48 72q45 -24 97 -24q39 0 62.5 17.5t23.5 54.5q0 32 -23 49t-58 17q-39 0 -76 -10l-23 18l12 181h221v-55h-165l-7 -98q38 9 67 9q57 0 94 -29t37 -82q0 -46 -25.5 -76t-62.5 -40.5t-67 -10.5q-53 0 -98 15q-21 7 -21 27q0 18 12 37z" />
    <glyph glyph-name="six.dnom" horiz-adv-x="365" 
d="M37 170q0 39 10 77.5t33 67.5t57 46t76 17q43 0 72 -10q18 -6 18 -24t-12 -37q-32 19 -76 19q-22 0 -47 -10t-42 -42t-17 -87q14 20 43.5 33.5t60.5 13.5q52 0 88.5 -29t36.5 -85q0 -43 -23.5 -73.5t-59 -42t-65.5 -11.5q-67 0 -110 45t-43 132zM267 117q0 37 -20 55
t-52 18q-22 0 -43 -10.5t-31 -24.5q-10 -13 -10 -25q0 -21 11 -44t30.5 -33.5t38.5 -10.5q34 0 55 21t21 54z" />
    <glyph glyph-name="seven.dnom" horiz-adv-x="294" 
d="M10 313v60h269l8 -34q-38 -39 -70.5 -102t-47 -127t-15.5 -112h-74q3 83 38 167t88 148h-196z" />
    <glyph glyph-name="eight.dnom" horiz-adv-x="389" 
d="M195 379q61 0 100.5 -25.5t39.5 -70.5q0 -31 -20 -54.5t-49 -32.5q24 -7 44.5 -23.5t29 -36t8.5 -36.5q0 -52 -41.5 -80t-111.5 -28q-71 0 -112.5 28t-41.5 80q0 17 8.5 36.5t29 36t44.5 23.5q-29 9 -49 32.5t-20 54.5q0 45 39.5 70.5t101.5 25.5zM274 101
q0 30 -23.5 50.5t-55.5 20.5q-33 0 -57 -20.5t-24 -50.5t22.5 -47t58.5 -17t57.5 17t21.5 47zM124 280q0 -26 19 -44t52 -18q32 0 51 18t19 44t-19 40.5t-51 14.5q-33 0 -52 -14.5t-19 -40.5z" />
    <glyph glyph-name="nine.dnom" horiz-adv-x="369" 
d="M332 201q0 -64 -22.5 -110t-63 -72t-94.5 -26q-43 0 -72 10q-17 6 -17 24q0 20 11 36q33 -18 77 -18q21 0 47 10t44 42t18 87q-14 -20 -43 -33.5t-60 -13.5q-38 0 -67 15t-44 39.5t-15 60.5q0 42 23.5 72.5t59 42t65.5 11.5q49 0 83 -22.5t52 -61t18 -93.5zM102 253
q0 -36 20 -54t52 -18q21 0 42.5 9.5t31.5 24.5q10 13 10 26q0 21 -11 43.5t-30.5 33t-38.5 10.5q-34 0 -55 -21t-21 -54z" />
    <glyph glyph-name="zero.zero" horiz-adv-x="641" 
d="M320 -10q-255 0 -255 370t255 370q256 0 256 -370t-256 -370zM155 360q0 -132 33 -204l233 454q-37 40 -101 40q-87 0 -126 -73.5t-39 -216.5zM320 70q86 0 126 73.5t40 216.5q0 133 -37 205l-232 -453q38 -42 103 -42z" />
    <glyph glyph-name="zero.tnum.zero" horiz-adv-x="635" 
d="M317 -10q-255 0 -255 370t255 370q256 0 256 -370t-256 -370zM152 360q0 -132 33 -204l233 454q-37 40 -101 40q-87 0 -126 -73.5t-39 -216.5zM317 70q86 0 126 73.5t40 216.5q0 133 -37 205l-232 -453q38 -42 103 -42z" />
    <glyph glyph-name="ampersand.aalt" horiz-adv-x="634" 
d="M578 415q13 -51 13 -105q0 -102 -47 -181l84 -88l-54 -51l-77 80q-40 -38 -95 -59.5t-121 -21.5q-106 0 -170.5 51t-64.5 133q0 45 17 81.5t50 69t84 62.5q-50 54 -74 96t-24 86q0 43 22.5 82t67 59.5t96.5 20.5q53 0 92.5 -17.5t63.5 -50.5t24 -78q0 -58 -41.5 -104.5
t-120.5 -97.5l185 -194q22 53 22 114q0 55 -18 113h86zM291 62q96 0 155 62l-206 216q-46 -33 -68.5 -65t-26.5 -56.5t-4 -33.5q0 -56 40.5 -89.5t109.5 -33.5zM183 565q0 -23 13.5 -52.5t65.5 -86.5q44 29 73 56.5t39.5 52t10.5 43.5q0 36 -26.5 59.5t-71.5 23.5
q-36 0 -61 -16t-34 -38.5t-9 -41.5z" />
    <glyph glyph-name="glyph502" horiz-adv-x="308" 
d="M266 800l-22 -41l-210 91q1 30 15.5 50t33.5 20q13 0 34 -15z" />
    <glyph glyph-name="glyph503" horiz-adv-x="308" 
d="M60 759l-22 41l149 105q21 15 34 15q19 0 33.5 -20t15.5 -50z" />
    <glyph glyph-name="glyph504" horiz-adv-x="440" 
d="M375 788l-29 -29q-79 64 -124 86q-46 -22 -125 -86l-29 29q56 74 104 114q25 20 49 20t50 -20q48 -40 104 -114z" />
    <glyph glyph-name="glyph505" horiz-adv-x="444" 
d="M68 899l29 28q75 -62 125 -85q50 23 124 85l29 -28q-25 -33 -53 -64.5t-51 -49.5q-24 -20 -50 -20t-49 20q-12 10 -38.5 36t-65.5 78z" />
    <glyph glyph-name="glyph506" horiz-adv-x="387" 
d="M50 794l-46 15q7 27 22.5 54.5t42 43t54.5 15.5q20 0 40.5 -8.5t56 -31t51.5 -22.5q41 0 66 61l46 -16q-16 -58 -48.5 -87t-72.5 -29q-20 0 -39.5 8.5t-55.5 32t-53 23.5q-41 0 -64 -59z" />
    <glyph glyph-name="glyph507" horiz-adv-x="252" 
d="M126 793q-27 0 -42 8.5t-15 47.5q0 32 11 44t46 12q26 0 42 -8t16 -48q0 -32 -11.5 -44t-46.5 -12z" />
    <glyph glyph-name="glyph508" horiz-adv-x="369" 
d="M85 793q-24 0 -37.5 8.5t-13.5 47.5q0 32 10 44t41 12q24 0 38.5 -8t14.5 -48q0 -32 -10.5 -44t-42.5 -12zM283 793q-24 0 -37.5 8.5t-13.5 47.5q0 32 10 44t41 12q24 0 38.5 -8t14.5 -48q0 -32 -10.5 -44t-42.5 -12z" />
    <glyph glyph-name="glyph509" horiz-adv-x="256" 
d="M128 741q-25 0 -48 10.5t-39.5 33.5t-16.5 57t18 59t42.5 34t43.5 9q30 0 56 -15.5t36.5 -40t10.5 -46.5t-10.5 -46t-36.5 -39.5t-56 -15.5zM128 781q24 0 40.5 15.5t16.5 45.5t-16.5 46t-40.5 16t-41 -15.5t-17 -46.5q0 -30 17 -45.5t41 -15.5z" />
    <glyph glyph-name="glyph510" horiz-adv-x="334" 
d="M13 815v66h308v-66h-308z" />
    <glyph glyph-name="glyph511" horiz-adv-x="360" 
d="M317 930l37 -33q-20 -29 -50 -55t-63.5 -37.5t-61.5 -11.5q-42 0 -78.5 18.5t-59.5 42.5t-36 43l36 33q63 -65 138 -65q31 0 67.5 14.5t70.5 50.5z" />
    <glyph glyph-name="glyph512" horiz-adv-x="344" 
d="M228 767l-46 20l56 121q12 26 33 26q15 0 31.5 -12t24.5 -28zM86 771l-48 16l36 119q9 32 34 32q15 0 29.5 -7.5t25.5 -19.5z" />
    <glyph glyph-name="glyph513" horiz-adv-x="175" 
d="M90 552l-48 6v192q22 11 50 11q16 0 25.5 -7t9.5 -18l-2 -12z" />
    <glyph glyph-name="glyph514" horiz-adv-x="271" 
d="M147 791l40 -22q-17 -27 -26 -59.5t-9 -60.5q0 -32 10 -62q-23 -11 -54 -11q-39 0 -39 39q0 37 19.5 84.5t58.5 91.5z" />
    <glyph glyph-name="glyph515" horiz-adv-x="210" 
d="M110 573l-54 13l36 147q4 16 13 25t25 9q32 0 63 -28z" />
    <glyph glyph-name="parenleft.aalt" horiz-adv-x="315" 
d="M291 796q-72 -72 -110 -184.5t-38 -251.5t38 -251.5t110 -184.5q-18 -27 -49 -27q-24 0 -53 35q-69 83 -105.5 188.5t-36.5 239.5t36.5 239.5t105.5 188.5q29 35 53 35q31 0 49 -27z" />
    <glyph glyph-name="parenright.aalt" horiz-adv-x="315" 
d="M25 796q8 13 21.5 20t26.5 7q25 0 54 -34q141 -166 141 -429t-141 -429q-29 -34 -54 -34q-13 0 -26.5 7t-21.5 20q72 72 109.5 184.5t37.5 251.5t-37.5 251.5t-109.5 184.5z" />
    <glyph glyph-name="bracketleft.aalt" horiz-adv-x="307" 
d="M66 814h203v-65h-115v-778h115v-65h-203v908z" />
    <glyph glyph-name="bracketright.aalt" horiz-adv-x="307" 
d="M38 814h203v-908h-203v65h115v778h-115v65z" />
    <glyph glyph-name="braceleft.aalt" horiz-adv-x="343" 
d="M320 782q0 -20 -9 -47l-25 2q-48 0 -75.5 -25.5t-27.5 -68.5q0 -29 10 -85.5t10 -91.5q0 -37 -19 -66t-51 -39q32 -10 51 -39.5t19 -65.5q0 -35 -10 -91.5t-10 -85.5q0 -43 27.5 -68.5t75.5 -25.5l25 2q9 -27 9 -47q0 -15 -7.5 -25.5t-38.5 -10.5q-54 0 -92.5 17.5
t-60.5 50t-22 77.5q0 37 14 102.5t14 102.5q0 32 -17.5 53.5t-51.5 21.5h-24v64h24q34 0 51.5 21.5t17.5 53.5q0 37 -14 102.5t-14 102.5q0 45 22 77.5t60.5 50t92.5 17.5q19 0 32.5 -5.5t13.5 -30.5z" />
    <glyph glyph-name="braceright.aalt" horiz-adv-x="343" 
d="M23 782q0 15 7 25.5t39 10.5q54 0 92.5 -17.5t60.5 -50t22 -77.5q0 -37 -14 -102.5t-14 -102.5q0 -32 17.5 -53.5t50.5 -21.5h24v-64h-24q-33 0 -50.5 -21.5t-17.5 -53.5q0 -37 14 -102.5t14 -102.5q0 -45 -22 -77.5t-60.5 -50t-92.5 -17.5q-20 0 -33 5.5t-13 30.5t9 47
l25 -2q48 0 75.5 25.5t27.5 68.5q0 29 -10 85.5t-10 91.5q0 37 19 66t50 39q-32 10 -50.5 39t-18.5 66q0 35 10 91.5t10 85.5q0 43 -27.5 68.5t-75.5 25.5l-25 -2q-9 23 -9 47z" />
    <glyph glyph-name="guilsinglleft.aalt" horiz-adv-x="320" 
d="M285 157l-38 -32q-136 110 -202 216v38q68 109 202 216l38 -31q-105 -114 -145 -204q39 -89 145 -203z" />
    <glyph glyph-name="guilsinglright.aalt" horiz-adv-x="320" 
d="M74 125l-39 32q105 111 145 203q-41 94 -145 204l39 31q134 -108 201 -216v-38q-64 -105 -201 -216z" />
    <glyph glyph-name="guillemotleft.aalt" horiz-adv-x="534" 
d="M285 157l-38 -32q-136 110 -202 216v38q68 109 202 216l38 -31q-105 -114 -145 -204q39 -89 145 -203zM498 157l-38 -32q-136 110 -202 216v38q68 109 202 216l38 -31q-105 -114 -145 -204q39 -89 145 -203z" />
    <glyph glyph-name="guillemotright.aalt" horiz-adv-x="534" 
d="M74 125l-39 32q105 111 145 203q-41 94 -145 204l39 31q134 -108 201 -216v-38q-64 -105 -201 -216zM287 125l-39 32q105 111 145 203q-41 94 -145 204l39 31q134 -108 201 -216v-38q-64 -105 -201 -216z" />
    <glyph glyph-name="hyphen.case" horiz-adv-x="364" 
d="M47 338v74h269v-74h-269z" />
    <glyph glyph-name="endash.aalt" horiz-adv-x="531" 
d="M47 338v73h436v-73h-436z" />
    <glyph glyph-name="emdash.aalt" horiz-adv-x="1049" 
d="M47 338v73h954v-73h-954z" />
    <glyph glyph-name="questiondown.aalt" horiz-adv-x="425" 
d="M234 727q31 0 42.5 -14.5t11.5 -49.5q0 -33 -11.5 -48.5t-42.5 -15.5t-43.5 14.5t-12.5 49.5t12.5 49.5t43.5 14.5zM377 118q20 -30 20 -63t-42 -44q-72 -21 -154 -21q-95 0 -146 45t-51 114q0 51 27 94t87 88q40 30 67 64.5t27 79.5l-2 31h64q10 -42 10 -72
q0 -88 -91 -158q-56 -42 -76 -67.5t-20 -56.5q0 -25 14 -44.5t40 -27t52 -7.5q89 0 174 45z" />
    <glyph glyph-name="exclamdown.aalt" horiz-adv-x="274" 
d="M124 727q24 0 39.5 -10.5t15.5 -53.5q0 -33 -12 -48.5t-43 -15.5t-43.5 14.5t-12.5 49.5t12.5 49.5t43.5 14.5zM91 491h66q16 -283 16 -491h-98q0 132 16 491z" />
    <glyph glyph-name="periodcentered.aalt" horiz-adv-x="225" 
d="M116 310q-35 0 -49.5 15.5t-14.5 52.5t14.5 53.5t49.5 16.5t49.5 -16t14.5 -54q0 -37 -14.5 -52.5t-49.5 -15.5z" />
    <glyph glyph-name="at.aalt" horiz-adv-x="884" 
d="M616 140q-44 0 -70.5 24t-30.5 63q-25 -37 -64.5 -62t-80.5 -25q-61 0 -96 37.5t-35 109.5q0 49 13.5 99.5t49 97t88 69t104.5 22.5q79 0 142 -38l-37 -248l-3 -41q0 -29 10 -42t32 -13q36 0 67.5 36t48 96.5t16.5 115.5q0 113 -73 175t-206 62q-50 0 -110.5 -17
t-119 -61.5t-92 -104.5t-44.5 -116t-11 -102t14.5 -91.5t48.5 -79.5t86.5 -54.5t122.5 -20.5q57 0 123 16l12 -57q-70 -18 -141 -18q-67 0 -128 18.5t-107.5 56t-73 96.5t-26.5 135q0 111 39 197t103.5 144.5t146 88.5t165.5 30q74 0 137.5 -20.5t109 -59t70 -93.5
t24.5 -121q0 -55 -14 -109.5t-42 -98.5t-71 -70t-97 -26zM332 303q0 -46 19 -67.5t50 -21.5q16 0 38.5 11t45.5 43q22 30 28 71l25 165q-19 8 -47 8q-30 0 -58.5 -14t-51 -41t-36 -66.5t-13.5 -87.5z" />
    </font>
</defs>
</svg>
